<svg width="481" height="283" viewBox="0 0 481 283" fill="none" xmlns="http://www.w3.org/2000/svg">
<path d="M13.5308 114.864L1.4696 72.1134L301.619 25.3015L314.998 11.0929L462.785 0.55012L480.909 100.363C424.051 106.57 308.333 118.958 300.32 118.847C292.306 118.735 296.787 132.792 300.028 139.834L12.5316 186.822L0.878373 114.689L13.5308 114.864Z" fill="#AF12C9"/>
<path d="M366.99 160.462L362.038 117.756L305.892 112.319L177.933 108.274L112.475 124.315L115.122 275.755C143.836 275.088 244.929 274.251 244.929 274.251C244.929 274.251 244.909 273.129 250.324 282.201L374.16 269.933L372.424 170.656L366.99 160.462Z" fill="#AF12C9"/>
</svg>
