<svg width="257" height="163" viewBox="0 0 257 163" fill="none" xmlns="http://www.w3.org/2000/svg">
<path d="M191.622 0.721419L256.713 2.54277L197.632 16.3617L106.5 56.5L70.5 120L90.6674 135.066L0.0538726 162.997L0.0538721 81L27.6527 90.5642L90.6675 22L191.622 0.721419Z" fill="white"/>
<path d="M16.3328 101.86C16.1078 118.134 15.3782 132.32 8.6989 147.282C8.46492 147.806 4.15479 156.352 6.21786 151.194C7.44755 148.12 16.849 146.382 19.4818 145.278C26.6687 142.266 33.6169 139.054 41.0477 136.69C44.4268 135.615 64.7765 137.385 63.8542 133.827C62.9302 130.263 54.7631 127.233 51.9261 126.098C46.3647 123.873 40.1367 121.207 34.1772 120.372C27.2884 119.408 11.1799 123.843 11.1799 112.834C11.1799 109.66 11.9259 102.509 16.3328 105.963C18.9151 107.987 20.6618 111.052 23.3942 112.834C27.4057 115.45 32.6801 115.74 36.9922 117.7C39.5969 118.884 41.9949 120.191 44.6739 121.279C48.112 122.676 50.2404 125.828 53.4529 127.529C54.6248 128.15 61.5039 130.059 60.7529 130.153C55.5952 130.798 50.1643 130.442 44.9601 130.869C35.9157 131.61 28.6664 136.468 21.3903 141.461C18.4838 143.456 11.0894 146.73 11.3231 140.889C11.6518 132.67 13.4918 124.944 15.808 117.223C16.5919 114.61 16.0526 107.582 18.9093 106.154" stroke="#D3A100" stroke-linecap="round" stroke-linejoin="round"/>
<path d="M30.0742 111.307C37.7766 105.744 44.2287 98.483 50.7813 91.6496C58.202 83.9108 66.6383 77.3193 74.2079 69.7497C76.5304 67.4272 82.1195 59.5418 81.0308 62.6406C79.5098 66.9696 75.417 70.6533 72.3472 73.8052C65.2011 81.1423 57.4542 88.0813 51.7355 96.6593C48.8885 100.93 46.8071 105.506 45.2944 110.4C44.8716 111.768 44.7618 113.548 43.3859 114.313C41.5488 115.333 41.1826 115.697 39.4258 117.223C36.8811 119.434 34.2715 121.685 31.5055 123.617C30.8641 124.065 30.0454 125.118 29.4062 124.666C26.9839 122.956 32.1356 119.374 33.8912 116.985C40.0592 108.589 47.3165 101.283 54.0257 93.3672C60.5418 85.6796 68.6093 78.9959 73.206 69.8928C75.4164 65.5153 78.1401 60.5063 81.317 56.7242C86.3805 50.6963 92.2344 45.1635 98.3503 40.4067C106.729 33.8902 116.786 29.3041 126.262 24.5662C130.903 22.2459 135.613 20.1323 140.242 17.7434C141.842 16.9171 143.431 16.0299 145.013 15.167C148.116 13.4742 139.44 15.0844 139.144 15.1192" stroke="#D3A100" stroke-linecap="round" stroke-linejoin="round"/>
</svg>
