<svg width="279" height="115" viewBox="0 0 279 115" fill="none" xmlns="http://www.w3.org/2000/svg">
<path d="M77.9999 0.499954L0.315707 20.9999L77.9997 21L125 33.2077L197 81.0001L178.5 115L279 103L243 0.499954L221.5 33.2077L147 0.499954L77.9999 0.499954Z" fill="white"/>
<path d="M97.9443 10.9183C116.827 13.3203 135.725 15.5431 154.626 17.7888" stroke="#D3A100" stroke-linecap="round" stroke-linejoin="round"/>
<path d="M132.297 18.6476C143.186 21.6514 154.163 21.2241 165.361 21.2241C169.868 21.2241 171.535 21.0418 173.52 25.1365C176.729 31.7547 165.082 11.5853 158.061 9.39148C156.99 9.05678 162.787 20.9083 163.119 21.5104C165.669 26.1408 169.298 30.4986 171.135 35.4423C171.446 36.2806 171.773 36.037 171.612 35.1083C171.025 31.7334 167.922 30.0054 165.171 28.5241C159.489 25.4647 153.817 21.9988 147.469 20.5561C146.196 20.2667 153.893 22.4855 155.58 23.562C161.458 27.3116 167.297 31.0811 173.329 34.5835C174.35 35.1759 166.734 26.5545 166.077 25.9476C163.056 23.1555 160.053 20.482 156.344 18.6476C155.92 18.438 153.957 17.7094 153.386 17.3117C153.072 17.0937 154.162 17.214 154.531 17.3117C164.775 20.0235 174.309 26.2626 183.349 31.5299C187.14 33.739 201.69 39.5175 201.002 45.939C200.604 49.6581 192.061 44.0169 191.46 43.6011C185.615 39.5545 179.756 35.5817 173.663 31.9116C172.773 31.3754 168.686 28.1901 167.127 28.1901C166.512 28.1901 167.387 29.4486 167.795 29.9077C171.311 33.8634 175.689 37.1094 179.723 40.4998C187.433 46.9798 195.528 51.5578 203.913 57.0082C210.177 61.0798 200.558 55.0522 199.285 54.1455C191.467 48.5774 183.749 41.2355 177.576 33.8678C172.178 27.4253 181.167 34.2935 183.54 35.9194C192.357 41.9611 201.463 48.8491 208.589 56.8651C210.155 58.627 220.353 71.5747 214.839 62.0657C209.806 53.3856 203.121 44.0929 196.422 36.6351C195.232 35.3105 193.028 32.6343 191.078 32.1025C188.516 31.4037 194.338 36.4057 196.517 37.9234C204.287 43.3344 213.216 46.3248 221.185 51.2828C222.76 52.2629 232.306 57.4407 226.099 53.0958C221.439 49.8341 216.921 46.4717 212.501 42.8854C208.097 39.3122 204.465 35.3133 198.521 35.1083C192.773 34.9101 191.895 38.9584 194.036 44.0305C196.18 49.1073 202.885 54.906 207.825 57.1514C209.47 57.899 214.715 61.2511 213.312 57.6762C211.149 52.1633 207.204 48.227 202.529 44.6985C199.272 42.2401 192.313 36.0149 187.738 36.0149C183.316 36.0149 186.583 44.3644 187.643 45.7481C192.12 51.5933 200.034 55.4331 207.014 57.2945C209.115 57.8547 212.736 59.439 212.978 56.2925C213.266 52.547 211.165 50.6067 207.682 53.4775C199.975 59.831 204.455 84.3729 215.316 75.7114C221.72 70.6047 223.67 60.923 224.047 53.1912C224.277 48.4767 213.107 62.4858 212.262 64.4513C211.598 65.999 208.425 77.5364 210.974 78.6695C215.789 80.8096 222.455 73.5129 224.286 70.1768C224.694 69.4324 229.263 57.7536 225.908 61.7794C224.309 63.698 223.638 66.8327 224.191 69.318C224.88 72.4203 232.571 61.1494 232.922 59.8709C235.323 51.1139 229.372 48.7023 224.095 55.9585C222.039 58.7863 217.143 67.6248 218.226 71.4173C218.751 73.2532 229.56 58.5752 230.298 57.1991C231.531 54.8993 232.557 52.464 233.256 49.9468C233.56 48.8516 233.695 45.7434 234.305 46.7024C236.88 50.7474 227.996 63.7751 226.433 67.0755C224.845 70.4271 222.81 74.0771 221.9 77.7153C221.407 79.6895 226.23 72.4665 226.29 72.3715C231.58 64.0152 237.085 55.6618 239.792 46.0344C242.127 37.7352 230.99 60.8853 227.244 68.65C223.378 76.6624 214.604 101.795 216.604 93.1263C218.292 85.8122 223.943 78.066 227.149 71.3219C230.628 64.0011 234.114 56.6784 236.977 49.088C237.673 47.2433 239.128 41.5155 238.79 43.458C237.177 52.7373 230.736 62.0495 226.147 70.0336C222.451 76.4635 218.721 82.8698 215.125 89.3571C208.757 100.848 215.077 89.5215 209.877 98.9949C209.333 99.9851 208.814 102.702 208.064 101.858C206.094 99.6413 210.013 96.246 211.261 93.5557C215.485 84.4438 220.198 75.6547 225.336 67.0278C228.464 61.7759 231.785 56.6488 233.733 50.8056C234.634 48.1011 236.63 39.8584 235.355 42.4083C232.291 48.5357 228.113 53.7626 224.62 59.6801C222.025 64.076 219.843 68.6947 217.511 73.2304C216.569 75.0629 212.766 82.4609 214.934 75.3297C217.323 67.4737 221.229 60.3556 224.572 52.905C226.366 48.9077 227.467 44.4596 229.63 40.6429C229.778 40.3819 230.44 39.8694 230.393 40.1658C230.232 41.1839 229.338 43.3618 229.057 44.0305C223.626 56.9827 215.573 68.6388 210.354 81.7231C205.662 93.486 210.449 84.0853 213.408 78.9081C220.85 65.8842 228.716 53.0428 235.26 39.5456C238.991 31.849 229.444 55.6343 226.433 63.6402C224.123 69.7811 217.821 88.3548 220.755 82.4865C224.843 74.3115 230.518 67.5746 233.399 58.6781C233.98 56.883 236.564 50.3606 235.451 48.1338C234.154 45.5396 233.005 53.4311 232.302 56.2448C230.677 62.7431 238.039 44.075 239.888 37.6371C240.95 33.9393 241.602 30.1931 242.035 26.377C242.101 25.797 242.226 22.8732 242.226 25.2319C242.226 28.317 241.765 31.7712 242.273 34.8221C242.872 38.4157 243.178 26.2155 240.222 24.0868C239.024 23.2246 239.649 27.0008 239.649 28.4763C239.649 33.7659 239.697 39.041 240.126 44.3168C240.908 53.9141 245.47 82.3346 245.47 72.7055C245.47 66.9351 241.519 60.9432 238.981 55.9585C236.912 51.8939 238.134 59.6349 238.504 60.7298C239.845 64.6974 241.274 68.1465 240.27 72.467C239.719 74.8338 231.688 84.5567 231.824 81.6277C232.27 72.0394 241.355 63.5844 245.327 55.2429C246.035 53.7569 246.22 52.8239 244.516 54.3363C239.804 58.5176 235.793 63.6761 231.729 68.4591C228.144 72.6776 224.557 76.9076 221.709 81.6754C221.703 81.6867 218.054 88.241 221.28 85.0153C223.939 82.3564 226.584 79.3 228.962 76.3794C233.072 71.3293 226.436 76.7952 225.145 78.8127C224.248 80.2142 217.565 94.5302 221.328 95.9413C229.773 99.1083 242.441 65.7918 228.389 71.5127C221.246 74.421 214.237 79.5734 212.406 87.4486C211.148 92.8581 219.912 90.7884 223.141 90.7884C224.859 90.7884 230.532 91.7929 232.254 90.6453C235.026 88.7971 231.041 83.4941 229.343 82.5819C227.079 81.3654 224.534 81.3414 222.043 81.3414C217.039 81.3414 231.838 83.6324 236.834 83.9179C239.88 84.0919 248.946 85.339 245.947 84.7767C240.559 83.7664 232.182 80.9512 228.723 76.4748C227.577 74.9909 241.773 76.5097 243.275 76.8565C248.572 78.0787 254.486 79.984 257.446 85.0153C260.345 89.944 248.718 77.5886 244.802 73.4212C240.993 69.3668 237.446 65.1558 234.019 60.7775C232.637 59.0114 231.089 56.3982 229.009 55.2429C225.961 53.5492 233.993 60.1405 236.214 62.8291C240.45 67.9564 246.543 73.9048 248.524 80.3872C250.16 85.7432 248.438 83.375 245.661 80.6735C238.37 73.5813 232.228 62.0765 222.95 57.4376C220.029 55.9772 220.713 73.0346 220.946 75.2343C221.398 79.5106 224.867 84.1948 228.532 86.3512C228.959 86.6021 235.62 89.1137 234.592 87.4486C231.327 82.1635 222.815 83.0591 217.606 83.0591C216.558 83.0591 207.375 83.4338 213.503 84.395C224.044 86.0486 235.47 84.7767 246.138 84.7767C249.357 84.7767 251.623 85.181 254.535 86.6375C262.057 90.3981 239.899 78.3299 232.874 73.7075C230.059 71.8549 221.614 68.1683 221.614 63.7356C221.614 60.661 228.863 63.4463 229.821 63.9742C236.328 67.5612 241.476 74.1671 245.47 80.3395C249.225 86.1424 246.455 81.2284 244.039 78.3833C237.446 70.6203 231.297 62.3918 224.763 54.6703C222.338 51.8041 223.633 62.272 224.477 65.9304C225.689 71.1815 229.358 72.814 233.256 75.5205C237.15 78.225 234.275 74.4557 232.731 72.7055C224.886 63.8148 200.92 37.555 209.304 45.939C212.478 49.1122 214.83 53.0344 217.32 56.7219C219.64 60.1576 222.809 63.0573 215.984 61.3023C205.816 58.6878 199.069 52.0754 191.365 45.4619C188.628 43.1125 185.661 39.111 182.108 38.4005" stroke="#D3A100" stroke-linecap="round" stroke-linejoin="round"/>
</svg>
