<svg width="232" height="85" viewBox="0 0 232 85" fill="none" xmlns="http://www.w3.org/2000/svg">
<path d="M43.1034 22.3214L0.603612 49.8966L45.0112 36.758L89.3356 38.1706L164.728 57.5848L160.723 84.969L231.371 69.9949L211.103 0.120281L185.758 25.4284L110.774 7.5923L43.1034 22.3214Z" fill="white"/>
<path d="M111.721 24.3555C129.346 27.9523 145.084 36.8623 162.582 39.8619C175.382 42.0563 190.537 38.8079 200.656 48.9272C203.004 51.2753 207.825 54.1917 209.054 57.4677C209.171 57.7815 201.09 55.8311 199.988 55.4638C196.822 54.4085 194.205 56.561 193.5 51.8377C192.807 47.1962 193.587 42.8737 196.362 39.1463C199.303 35.1971 202.778 30.2896 204.76 25.7868C206.262 22.3724 205.701 19.4686 204.092 24.8803C202.334 30.7934 201.077 36.8731 198.939 42.677C196.907 48.1921 193.413 52.7541 191.162 58.1834C189.453 62.3048 186.381 68.3799 182.621 71.0657C182.02 71.4954 184.067 64.487 184.243 64.052C186.089 59.4933 188.849 55.3761 191.114 51.0266C194.607 44.32 198.304 37.7146 201.754 30.9875C206.246 22.2271 199.404 34.6167 198.032 36.9038C194.664 42.5175 192.333 48.6422 189.683 54.605C188.449 57.381 181.839 64.3604 187.583 62.8115C189.58 62.2731 218.534 57.6593 218.024 54.8913C216.652 47.4478 214.258 40.1103 212.632 32.7051C211.805 28.9381 210.443 26.8594 208.052 24.0692C206.027 21.7069 209.215 30.1876 209.579 33.2777C210.086 37.5919 211.344 41.7222 211.344 46.1122C211.344 52.2704 202.389 39.0126 201.229 44.2992C200.936 45.6336 201.765 49.7687 200.847 50.788C199.233 52.5813 189.706 46.5886 187.679 46.0168C183.684 44.8902 179.401 43.7448 175.274 43.2495C171.339 42.7773 167.266 39.9941 163.441 38.7646C156.857 36.6482 148.506 38.208 141.78 38.9554" stroke="#D3A100" stroke-width="2" stroke-linecap="round" stroke-linejoin="round"/>
</svg>
