<svg width="1920" height="5728" viewBox="0 0 1920 5728" fill="none" xmlns="http://www.w3.org/2000/svg">
<rect y="-27" width="1920" height="5755" fill="url(#paint0_linear)"/>
<path d="M-31.74 44.3188C67.2951 -9.95332 109.121 -14.2951 125.272 -14.3351C142.729 -14.4139 157.655 -10.1314 170.074 -1.15969C181.568 7.1601 188.866 17.5983 194.736 28.7449C201.95 42.4902 206.603 56.9687 210.307 71.5892C214.815 89.7097 218.639 108.017 223.663 126.03C234.183 163.602 250.834 199.232 278.706 231.057C294.567 249.192 313.414 265.371 336.873 278.079C357.506 289.297 380.431 296.436 406.478 297.847C422.789 298.719 439.018 297.484 455.219 294.8C487.788 289.352 518.423 279.372 548.345 268.13C620.134 241.057 691.733 213.802 763.424 186.605C795.458 174.467 827.502 162.461 858.336 148.439C888.074 134.901 916.196 119.71 940.516 100.666C964.26 82.0636 984.626 61.6199 1002.61 39.7829C1013.67 26.2898 1024 12.5245 1034.87 -1.08586C1046.38 -15.5388 1058.88 -29.5436 1073.57 -42.338C1083.85 -51.2809 1094.99 -59.4338 1108.46 -65.6618C1118.48 -70.293 1128.39 -73.067 1138.19 -73.8527C1182.61 -77.4122 1217.12 -57.6033 1257.17 -1.20974C1316.72 82.6645 1374.81 228.9 1384.51 350.035C1386.44 374.105 1387.07 398.279 1388.38 422.331C1389.26 437.575 1390.83 452.828 1397.05 467.247C1398.88 471.523 1401.65 475.591 1404.74 479.37C1409.09 484.632 1415.9 486.727 1424.41 486.111C1433.61 485.439 1442.06 483.046 1449.97 479.376C1464.72 472.65 1477.1 463.802 1488.28 453.93C1507.37 437.219 1523.09 418.732 1537.54 399.62C1562.26 367.078 1580.8 332.59 1596.66 297.326C1610.37 266.789 1621.41 235.739 1632.37 204.63C1642.68 175.29 1653.7 146.156 1668.63 117.765C1679.92 96.3322 1693.11 75.606 1710.61 56.5137C1720.25 45.9729 1730.98 36.07 1742.73 26.9433C1801.35 -18.5451 1861.83 -62.4674 1927.37 -102.174C1932.03 -104.99 1939.71 -109.434 1945.06 -112.436C1945.18 -110.862 1947.07 -87.3174 1947.19 -85.7434C1892.74 -57.0235 1840.59 -22.4159 1792.64 12.2515C1780.25 21.1645 1767.87 30.0775 1755.76 39.1009C1730.79 57.7348 1712.74 79.7755 1698.14 103.585C1682.77 128.645 1671.51 154.762 1661.48 181.11C1647.99 216.514 1635.02 251.942 1621.26 287.236C1607.35 322.871 1591.13 357.966 1570.98 392.056C1553.54 421.704 1533.12 450.139 1507.36 476.361C1488.71 495.347 1467.94 512.853 1443.74 527.928C1428.94 537.232 1413.17 545.36 1395.05 550.179C1388.98 551.787 1382.51 552.833 1376.18 553.275C1362.28 554.191 1352.9 549.398 1348.1 539.618C1344.44 532.056 1343.8 524.055 1343.84 515.933C1344.03 500.868 1347.21 485.96 1349.06 470.961C1351.91 447.63 1355.1 424.338 1356.9 400.96C1358.65 378.114 1357.26 355.387 1355.27 332.709C1353.22 309.309 1349.45 286.179 1343.85 263.261C1324.79 181.159 1242.41 -14.3501 1135.19 3.15252C1064.73 13.023 1031.88 104.367 822.984 182.36C781.417 197.572 739.359 212.098 698.203 228.069C642.22 249.716 586.94 272.496 531.357 294.771C509.449 303.589 487.345 312.159 464.007 318.386C446.397 323.097 428.493 326.314 410.068 327.394C377.741 329.325 348.758 322.869 322.388 309.8C300.475 298.949 282.506 285.01 266.427 269.598C234.939 239.515 212.662 205.591 198.514 168.507C192.218 152.048 187.549 135.194 182.197 118.528C176.85 101.927 171.167 85.4846 161.724 70.0698C156.702 61.8914 150.672 54.1899 142.453 47.5218C127.505 35.3205 108.723 29.7629 86.2517 31.5635C40.1819 35.2552 -26.6985 70.1852 -29.3355 71.0565C-30.321 62.0267 -31.0305 53.1727 -31.74 44.3188Z" fill="#FF5B37"/>
<path d="M-140.213 224.867C-112.771 157.412 -256.637 95.7993 -332 73.4251L-283.797 1H2356L2278.17 51.2358C2477.75 219.32 2050.78 210.723 2043.07 244.717C1911.01 827.546 1835.54 380.581 1584.16 572.454C1403.4 710.428 1411.23 695.835 1364.46 614.289C1317.68 532.743 1157.5 501.532 1038 553.33C918.5 605.128 943.672 607.168 886.5 634.5C806.667 672.666 778.33 669.207 746.995 614.289C697.62 527.751 645.761 529.082 439.941 614.289C182.666 720.798 255.028 459.848 160.514 477.27C66.0007 494.692 35.6219 168.743 -19.9911 168.743C-75.604 168.743 -174.517 309.186 -140.213 224.867Z" fill="url(#paint1_linear)" fill-opacity="0.51"/>
<defs>
<linearGradient id="paint0_linear" x1="1059" y1="-1043.04" x2="953.126" y2="5727.89" gradientUnits="userSpaceOnUse">
<stop offset="0.145833" stop-color="#FF451C"/>
<stop offset="1" stop-color="#170461"/>
</linearGradient>
<linearGradient id="paint1_linear" x1="995.224" y1="77.7978" x2="1016.89" y2="780.832" gradientUnits="userSpaceOnUse">
<stop stop-color="#FCFF54"/>
<stop offset="1" stop-color="#FF451C"/>
</linearGradient>
</defs>
</svg>
