<svg width="1920" height="676" viewBox="0 0 1920 676" fill="none" xmlns="http://www.w3.org/2000/svg">
<path d="M-140.213 223.867C-112.771 156.412 -256.637 94.7993 -332 72.4251L-283.797 0H2356L2278.17 50.2358C2477.75 218.32 2050.78 209.723 2043.07 243.717C1911.01 826.546 1835.54 379.581 1584.16 571.454C1403.4 709.428 1411.23 694.835 1364.46 613.289C1317.68 531.743 1157.5 500.532 1038 552.33C918.5 604.128 943.672 606.168 886.5 633.5C806.667 671.666 778.33 668.207 746.995 613.289C697.62 526.751 645.761 528.082 439.941 613.289C182.666 719.798 255.028 458.848 160.514 476.27C66.0007 493.692 35.6219 167.743 -19.9911 167.743C-75.604 167.743 -174.517 308.186 -140.213 223.867Z" fill="url(#paint0_linear)" fill-opacity="0.51"/>
<defs>
<linearGradient id="paint0_linear" x1="995.224" y1="76.7978" x2="1016.89" y2="779.832" gradientUnits="userSpaceOnUse">
<stop stop-color="#FCFF54"/>
<stop offset="1" stop-color="#FF451C"/>
</linearGradient>
</defs>
</svg>
