<svg width="151" height="62" viewBox="0 0 151 62" fill="none" xmlns="http://www.w3.org/2000/svg">
<path d="M2.216 14H8.408C11.9 14 13.826 12.416 13.826 10.166C13.826 8.87 13.106 8.096 12.062 7.61C13.682 7.25 14.762 6.17 14.762 4.496C14.762 2.804 13.466 1.4 10.496 1.4H5.6L2.216 14ZM5.564 11.57L6.302 8.798H9.344C10.478 8.798 11.072 9.248 11.072 9.986C11.072 10.958 10.208 11.57 8.822 11.57H5.564ZM6.932 6.494L7.634 3.83H10.244C11.468 3.83 11.99 4.316 11.99 4.964C11.99 6.008 11.144 6.494 9.722 6.494H6.932ZM15.2083 14H19.9063C22.5883 14 24.4963 12.686 24.4963 10.328C24.4963 8.78 23.2363 7.664 21.0763 7.664H19.6363L20.5183 4.352H17.7823L15.2083 14ZM18.4843 11.93L19.1323 9.536H20.5003C21.2743 9.536 21.8143 9.896 21.8143 10.49C21.8143 11.462 20.9503 11.93 19.7443 11.93H18.4843ZM24.7663 14H27.4843L30.0583 4.352H27.3403L24.7663 14ZM35.7524 14.234C38.8124 14.234 41.3504 11.768 41.3504 8.798C41.3504 6.332 39.5684 4.874 37.2644 4.874C35.3924 4.874 34.1144 5.846 33.6284 6.422C33.8624 5.504 34.5644 4.388 36.4364 4.028L41.7464 3.02L41.4944 0.86L36.4364 1.742C32.5304 2.426 31.1804 6.386 31.1804 9.536C31.1804 12.326 32.8004 14.234 35.7524 14.234ZM35.8604 11.876C34.5464 11.876 33.8084 10.976 33.8084 9.806C33.8084 8.204 35.0504 6.854 36.5624 6.854C37.8584 6.854 38.6504 7.718 38.6504 8.942C38.6504 10.526 37.3364 11.876 35.8604 11.876ZM47.6394 14.216C49.2774 14.216 50.4834 13.658 51.3474 12.938L50.0874 11.246C49.2954 11.804 48.6654 12.02 47.9454 12.02C46.5054 12.02 45.8394 11.264 45.7494 10.13H52.3554C52.6614 9.392 52.8414 8.618 52.8414 7.934C52.8414 5.792 51.4014 4.172 48.8994 4.172C45.4434 4.172 43.1754 7.142 43.1754 9.932C43.1754 12.596 44.8674 14.216 47.6394 14.216ZM45.9834 8.42C46.4334 7.196 47.4414 6.368 48.6834 6.368C49.7994 6.368 50.2674 6.998 50.2674 7.79C50.2674 8.024 50.2314 8.24 50.1774 8.42H45.9834ZM52.903 16.88H55.639L56.773 12.596C57.403 13.55 58.285 14.18 59.797 14.18C62.515 14.18 65.125 11.732 65.125 8.312C65.125 5.702 63.523 4.172 61.417 4.172C60.337 4.172 59.527 4.622 58.699 5.396L58.987 4.352H56.251L52.903 16.88ZM59.437 11.876C58.231 11.876 57.367 11.048 57.367 9.824C57.367 7.988 58.771 6.476 60.283 6.476C61.507 6.476 62.299 7.232 62.299 8.492C62.299 10.436 60.913 11.876 59.437 11.876ZM66.1659 14H68.6859L74.1579 8.204L72.6279 14H75.2559L77.8299 4.352H75.3099L69.8199 10.148L71.3679 4.352H68.7399L66.1659 14ZM89.1412 14.216C90.7792 14.216 91.8052 13.622 92.8132 12.722L91.4092 10.94C90.6892 11.552 90.0772 11.894 89.2312 11.894C88.1692 11.894 87.3412 11.102 87.3412 9.86C87.3412 8.078 88.6732 6.512 90.1132 6.512C91.1932 6.512 91.7152 7.034 92.2012 7.772L94.2892 6.296C93.6232 5.144 92.4532 4.172 90.3292 4.172C87.2512 4.172 84.6412 6.71 84.6412 9.86C84.6412 12.488 86.5132 14.216 89.1412 14.216ZM96.2289 14H98.9289L100.909 6.62H103.843L104.437 4.352H95.7069L95.1129 6.62H98.2089L96.2289 14ZM102.937 16.88H105.673L106.807 12.596C107.437 13.55 108.319 14.18 109.831 14.18C112.549 14.18 115.159 11.732 115.159 8.312C115.159 5.702 113.557 4.172 111.451 4.172C110.371 4.172 109.561 4.622 108.733 5.396L109.021 4.352H106.285L102.937 16.88ZM109.471 11.876C108.265 11.876 107.401 11.048 107.401 9.824C107.401 7.988 108.805 6.476 110.317 6.476C111.541 6.476 112.333 7.232 112.333 8.492C112.333 10.436 110.947 11.876 109.471 11.876ZM119.188 14.18C120.322 14.18 121.294 13.712 122.068 12.884L121.78 14H124.426L125.848 8.672C125.974 8.186 126.064 7.718 126.064 7.214C126.064 5.324 124.75 4.244 122.158 4.244C120.79 4.244 119.566 4.514 118.576 4.928L119.008 7.088C119.71 6.8 120.646 6.566 121.582 6.566C122.932 6.566 123.4 7.034 123.4 7.7C123.4 7.988 123.346 8.204 123.292 8.42L123.256 8.546C122.446 8.294 121.582 8.114 120.538 8.114C118.198 8.114 116.38 9.356 116.38 11.588C116.38 13.1 117.514 14.18 119.188 14.18ZM120.358 12.308C119.584 12.308 119.098 11.876 119.098 11.282C119.098 10.346 119.926 9.77 121.06 9.77C121.726 9.77 122.392 9.932 122.86 10.112L122.788 10.364C122.482 11.408 121.492 12.308 120.358 12.308ZM127.142 14H129.878L130.868 10.256H134.306L133.316 14H136.034L138.608 4.352H135.89L134.9 7.988H131.48L132.452 4.352H129.716L127.142 14ZM140.442 16.934C142.08 16.934 143.16 16.196 144.42 14.234L150.396 4.352H147.444L143.826 10.904L143.376 4.352H140.586L141.774 14.072C141.396 14.558 141.126 14.666 140.712 14.666C140.352 14.666 139.938 14.504 139.65 14.288L138.192 16.268C138.786 16.682 139.452 16.934 140.442 16.934ZM1.946 30H4.466L9.938 24.204L8.408 30H11.036L13.61 20.352H11.09L5.6 26.148L7.148 20.352H4.52L1.946 30ZM21.5553 32.934C23.1933 32.934 24.2733 32.196 25.5333 30.234L31.5093 20.352H28.5573L24.9393 26.904L24.4893 20.352H21.6993L22.8873 30.072C22.5093 30.558 22.2393 30.666 21.8253 30.666C21.4653 30.666 21.0513 30.504 20.7633 30.288L19.3053 32.268C19.8993 32.682 20.5653 32.934 21.5553 32.934ZM36.6717 30H39.3717L41.9457 20.352H39.2277L38.1657 24.348C37.5537 24.726 36.7797 24.906 36.0777 24.906C35.3757 24.906 35.0877 24.51 35.0877 23.988C35.0877 23.754 35.1597 23.52 35.2137 23.304L35.9877 20.352H33.2697L32.3337 23.808C32.2437 24.15 32.1897 24.474 32.1897 24.762C32.1897 26.184 33.1617 27.138 34.7817 27.138C35.6097 27.138 36.8517 26.868 37.5537 26.562L36.6717 30ZM45.2034 30.18C46.3374 30.18 47.3094 29.712 48.0834 28.884L47.7954 30H50.4414L51.8634 24.672C51.9894 24.186 52.0794 23.718 52.0794 23.214C52.0794 21.324 50.7654 20.244 48.1734 20.244C46.8054 20.244 45.5814 20.514 44.5914 20.928L45.0234 23.088C45.7254 22.8 46.6614 22.566 47.5974 22.566C48.9474 22.566 49.4154 23.034 49.4154 23.7C49.4154 23.988 49.3614 24.204 49.3074 24.42L49.2714 24.546C48.4614 24.294 47.5974 24.114 46.5534 24.114C44.2134 24.114 42.3954 25.356 42.3954 27.588C42.3954 29.1 43.5294 30.18 45.2034 30.18ZM46.3734 28.308C45.5994 28.308 45.1134 27.876 45.1134 27.282C45.1134 26.346 45.9414 25.77 47.0754 25.77C47.7414 25.77 48.4074 25.932 48.8754 26.112L48.8034 26.364C48.4974 27.408 47.5074 28.308 46.3734 28.308ZM58.6474 30.216C60.2854 30.216 61.3114 29.622 62.3194 28.722L60.9154 26.94C60.1954 27.552 59.5834 27.894 58.7374 27.894C57.6754 27.894 56.8474 27.102 56.8474 25.86C56.8474 24.078 58.1794 22.512 59.6194 22.512C60.6994 22.512 61.2214 23.034 61.7074 23.772L63.7954 22.296C63.1294 21.144 61.9594 20.172 59.8354 20.172C56.7574 20.172 54.1474 22.71 54.1474 25.86C54.1474 28.488 56.0194 30.216 58.6474 30.216ZM65.915 30H68.615L70.595 22.62H73.529L74.123 20.352H65.393L64.799 22.62H67.895L65.915 30ZM73.5776 30H78.9956C81.8216 30 83.2436 28.758 83.2436 27.102C83.2436 26.094 82.5596 25.428 81.6776 25.158C83.0456 24.834 83.9456 23.952 83.9456 22.692C83.9456 21.432 83.0096 20.352 80.6336 20.352H76.1516L73.5776 30ZM76.8356 28.056L77.4116 25.914H79.0856C79.9676 25.914 80.5076 26.238 80.5076 26.832C80.5076 27.57 79.8236 28.056 78.7076 28.056H76.8356ZM77.8616 24.258L78.4016 22.224H79.8956C80.7956 22.224 81.2276 22.53 81.2276 23.088C81.2276 23.808 80.5796 24.258 79.4456 24.258H77.8616ZM86.4594 32.934C88.0974 32.934 89.1774 32.196 90.4374 30.234L96.4134 20.352H93.4614L89.8434 26.904L89.3934 20.352H86.6034L87.7914 30.072C87.4134 30.558 87.1434 30.666 86.7294 30.666C86.3694 30.666 85.9554 30.504 85.6674 30.288L84.2094 32.268C84.8034 32.682 85.4694 32.934 86.4594 32.934ZM103.412 19.416C104.942 19.416 106.022 18.48 106.49 16.914L105.032 16.644C104.726 17.328 104.24 17.76 103.52 17.76C102.8 17.76 102.494 17.328 102.368 16.644L100.856 16.914C100.874 18.48 101.882 19.416 103.412 19.416ZM96.0677 30H98.5877L104.06 24.204L102.53 30H105.158L107.732 20.352H105.212L99.7217 26.148L101.27 20.352H98.6417L96.0677 30ZM114.093 30H119.511C122.337 30 123.759 28.758 123.759 27.102C123.759 26.094 123.075 25.428 122.193 25.158C123.561 24.834 124.461 23.952 124.461 22.692C124.461 21.432 123.525 20.352 121.149 20.352H116.667L114.093 30ZM117.351 28.056L117.927 25.914H119.601C120.483 25.914 121.023 26.238 121.023 26.832C121.023 27.57 120.339 28.056 119.223 28.056H117.351ZM118.377 24.258L118.917 22.224H120.411C121.311 22.224 121.743 22.53 121.743 23.088C121.743 23.808 121.095 24.258 119.961 24.258H118.377ZM13.6 56L13.107 51.099H7.423L5.422 56H0.927L9.83 35.758H15.804L18.008 56H13.6ZM12.324 39.963H12.063L8.873 47.619H12.933L12.324 39.963ZM26.1457 35.758H30.4377L29.0747 44.023H31.6847L36.1797 35.758H40.5297L36.4407 43.298C36.054 44.0133 35.6383 44.5353 35.1937 44.864C34.7683 45.1733 34.2753 45.3763 33.7147 45.473L33.6857 45.647C34.1883 45.8017 34.575 46.0627 34.8457 46.43C35.1357 46.7973 35.3677 47.358 35.5417 48.112L36.5277 52.462H38.1517L37.5717 56H35.6577C34.7103 56 33.9853 55.7873 33.4827 55.362C32.98 54.9173 32.603 54.1633 32.3517 53.1L31.0757 47.474H28.4947L27.0737 56H22.7817L26.1457 35.758ZM54.0033 61.51C53.1913 61.51 52.3987 61.365 51.6253 61.075C50.852 60.8043 49.953 60.408 48.9283 59.886L48.6093 60.031L48.3773 61.394H45.1583L45.3323 60.292C45.6803 58.1267 46.763 57.044 48.5803 57.044C48.8703 57.044 49.17 57.0633 49.4793 57.102C49.7887 57.16 50.2237 57.2663 50.7843 57.421L54.2353 58.291L54.5543 58.146L55.0763 56H42.2583L45.6223 35.758H49.9143L47.1303 52.462H51.7123L54.4963 35.758H58.7883L56.0043 52.462H58.2663L57.2803 58.262C57.087 59.422 56.7197 60.2533 56.1783 60.756C55.637 61.2587 54.912 61.51 54.0033 61.51ZM65.737 35.758H69.797L68.55 43.269L67.216 48.75H67.477L70.464 44.197L75.974 35.758H79.947L76.583 56H72.523L73.77 48.489L75.104 43.008H74.843L71.769 47.706L66.346 56H62.373L65.737 35.758ZM85.7357 35.758H89.7957L88.5487 43.269L87.2147 48.75H87.4757L90.4627 44.197L95.9727 35.758H99.9457L96.5817 56H92.5217L93.7687 48.489L95.1027 43.008H94.8417L91.7677 47.706L86.3447 56H82.3717L85.7357 35.758Z" fill="white"/>
</svg>
