<svg width="894" height="466" viewBox="0 0 894 466" fill="none" xmlns="http://www.w3.org/2000/svg">
<path d="M103.662 458.5L86 122L103.662 141.109L91 12.5L825.289 31.3875L811.267 203.68L819.78 224.894L805.187 466L103.662 458.5Z" fill="#FF5B37"/>
<path d="M824.934 126.554C827.649 118.286 838.983 47.5642 850.268 1.29131L892.116 28.9133C840.598 81.2148 824.934 126.554 824.934 126.554Z" fill="#FF5B37"/>
<path d="M104.82 449.245C104.846 467.822 110.189 456.573 49.2333 352.492L84.2879 329.21C90.7013 385.742 104.794 430.668 104.82 449.245Z" fill="#FF5B37"/>
<path d="M797.285 443.261C792.15 454.281 804.034 365.881 810.618 320.303H843.21C830.042 356.697 802.421 432.241 797.285 443.261Z" fill="#FF5B37"/>
<path d="M82.8745 106.015C82.4778 115.255 60.5086 58.5061 49.5737 28.9764L77.5398 9.65695C79.4833 37.926 83.2712 96.7742 82.8745 106.015Z" fill="#FF5B37"/>
<path d="M55.8046 111.229C61.2787 114.797 30.9521 77.3905 15.1045 58.2414L0.000330827 68.0089C16.3209 80.9288 50.3306 107.66 55.8046 111.229Z" fill="#FF5B37"/>
<path d="M844.148 402.532C839.752 405.901 863.024 372.366 875.21 355.178L888.548 362.423C875.58 374.389 848.545 399.164 844.148 402.532Z" fill="#FF5B37"/>
</svg>
