<svg width="70" height="69" viewBox="0 0 70 69" fill="none" xmlns="http://www.w3.org/2000/svg">
<path d="M34.9248 68C16.4232 68 1.4248 53.0016 1.4248 34.5C1.4248 15.9984 16.4232 1 34.9248 1C53.4264 1 68.4248 15.9984 68.4248 34.5C68.4248 53.0016 53.4264 68 34.9248 68Z" stroke="#00C9F5" stroke-width="1.5" stroke-miterlimit="10"/>
<path d="M29.8197 54.7441H37.9702V34.3237H43.6563L44.2548 27.4934H37.9526C37.9526 27.4934 37.9526 24.9409 37.9526 23.603C37.9526 21.9834 38.2695 21.3497 39.8362 21.3497C41.0861 21.3497 44.2548 21.3497 44.2548 21.3497V14.2554C44.2548 14.2554 39.6074 14.2554 38.604 14.2554C32.5307 14.2554 29.8021 16.9311 29.8021 22.0362C29.8021 26.49 29.8021 27.4934 29.8021 27.4934H25.5596V34.4117H29.8021V54.7441H29.8197Z" fill="#00C9F5"/>
</svg>
