<svg width="240" height="336" viewBox="0 0 240 336" fill="none" xmlns="http://www.w3.org/2000/svg">
<path d="M93 327.566C93 332.941 97.8878 336 103.976 336C110.064 336 115 331.643 115 326.268C115 320.894 108.251 317 102.163 317C96.0744 317 93 322.191 93 327.566Z" fill="#F4712C"/>
<path fill-rule="evenodd" clip-rule="evenodd" d="M33.8338 267.144H30.6952V259.464L44.4556 259.457C44.4556 263.884 44.2192 267.17 43.7463 269.321C43.2912 271.396 42.3277 273.503 40.8677 275.635C39.4373 277.749 37.7055 279.295 35.6722 280.268C33.6388 281.241 31.4518 281.724 29.1229 281.724C25.6592 281.724 22.5087 280.97 19.6774 279.456C16.8343 277.981 14.6355 275.539 13.0868 272.124C11.5204 268.767 10.7402 265.005 10.7402 260.836C10.7402 254.529 12.3184 249.445 15.4748 245.586C18.6016 241.727 22.4378 239.794 26.9773 239.794C30.7661 239.794 33.7393 241.005 35.8909 243.428V240.606L43.303 240.599V254.741H35.8909C35.2407 252.995 34.3954 251.675 33.361 250.785C32.3207 249.896 31.109 249.445 29.7199 249.445C27.7752 249.445 26.3448 250.283 25.4286 251.952C24.5302 253.62 24.0809 256.687 24.0809 261.146C24.0809 265.585 24.5538 268.606 25.4996 270.191C26.4571 271.802 27.8521 272.607 29.6786 272.607C32.4507 272.614 33.8338 270.79 33.8338 267.144Z" fill="#231F20"/>
<path fill-rule="evenodd" clip-rule="evenodd" d="M64.0738 249.471V257.183H65.4038C67.1416 257.183 68.3237 257.112 68.9444 256.977C69.6064 256.842 70.168 256.455 70.6231 255.811C71.0782 255.212 71.3087 254.387 71.3087 253.337C71.3087 252.287 71.0782 251.456 70.6231 250.837C70.168 250.199 69.5827 249.806 68.8734 249.671C68.1937 249.536 66.9584 249.471 65.1556 249.471H64.0738ZM66.3968 281.067L49.675 281.073V271.383H52.1753V250.289H49.675V240.599L66.3968 240.593C67.8982 240.593 69.2931 240.625 70.5758 240.69C71.8584 240.754 72.9579 240.857 73.874 240.98C74.7902 241.108 75.6295 241.276 76.3979 241.489C78.5495 242.088 80.2991 243.396 81.6408 245.412C82.9944 247.467 83.6742 249.89 83.6742 252.686C83.6742 254.78 83.2604 256.681 82.4329 258.388C81.6054 260.076 80.5237 261.32 79.182 262.112L83.4318 271.364H85.6425V281.054L74.5597 281.06L67.8568 264.534H64.0738V271.37H66.3968V281.067Z" fill="#231F20"/>
<path fill-rule="evenodd" clip-rule="evenodd" d="M118.689 281.047L89.3302 281.06V271.37H91.7241V250.27H89.2888V240.586L118.689 240.574V253.517L110.609 253.524V250.264H103.623V256.494L109.705 256.487V264.721L103.623 264.728V271.364L110.609 271.357V268.097H118.689V281.047Z" fill="#231F20"/>
<path fill-rule="evenodd" clip-rule="evenodd" d="M136.268 281.035L123.636 281.041V271.351H126.338V250.257H123.636V240.567L138.219 240.561L149.408 261.713V250.244L146.907 250.251V240.561L159.32 240.554V250.244H156.643V281.55L146.511 281.556L133.549 257.093V271.351H136.268V281.035Z" fill="#231F20"/>
<path fill-rule="evenodd" clip-rule="evenodd" d="M199.645 281.009L183.721 281.015V271.325H185.205L178.46 259.805L186.292 250.231H183.792V240.541L198.947 240.535V250.225H196.559L190.276 257.911L198.132 271.319H199.656V281.009H199.645ZM180.511 281.015V271.325H178.076V250.231H180.511V240.541L163.766 240.548V250.238H166.177V271.332H163.831V281.022L180.511 281.015Z" fill="#231F20"/>
<path fill-rule="evenodd" clip-rule="evenodd" d="M220.48 281.002L202.937 281.009V271.319H205.768V250.225H202.937V240.535L220.48 240.529V250.219H217.673V271.312H220.48V281.002Z" fill="#231F20"/>
<path fill-rule="evenodd" clip-rule="evenodd" d="M33.8338 265.488H30.6952V257.808L44.4556 257.802C44.4556 262.228 44.2192 265.514 43.7463 267.666C43.2912 269.74 42.3277 271.847 40.8677 273.98C39.4373 276.093 37.7055 277.639 35.6722 278.612C33.6388 279.585 31.4518 280.068 29.1229 280.068C25.6592 280.068 22.5087 279.314 19.6774 277.8C16.8343 276.325 14.6355 273.883 13.0868 270.468C11.5204 267.111 10.7402 263.349 10.7402 259.18C10.7402 252.873 12.3184 247.79 15.4748 243.93C18.6016 240.071 22.4378 238.138 26.9773 238.138C30.7661 238.138 33.7393 239.349 35.8909 241.772V238.95H43.303V253.092L35.8909 253.098C35.2407 251.352 34.3954 250.032 33.361 249.143C32.3207 248.253 31.109 247.802 29.7199 247.809C27.7752 247.809 26.3448 248.646 25.4286 250.315C24.5302 251.984 24.0809 255.051 24.0809 259.509C24.0809 263.948 24.5538 266.97 25.4996 268.555C26.4571 270.165 27.8521 270.971 29.6786 270.971C32.4507 270.958 33.8338 269.135 33.8338 265.488Z" fill="white"/>
<path fill-rule="evenodd" clip-rule="evenodd" d="M64.0738 247.809V255.521H65.4038C67.1416 255.521 68.3237 255.45 68.9444 255.315C69.6064 255.179 70.168 254.793 70.6231 254.149C71.0782 253.549 71.3087 252.725 71.3087 251.675C71.3087 250.624 71.0782 249.793 70.6231 249.175C70.168 248.537 69.5827 248.144 68.8734 248.009C68.1937 247.873 66.9584 247.809 65.1556 247.809H64.0738ZM66.3968 279.411L49.675 279.417V269.727H52.1753V248.634H49.675V238.944L66.3968 238.937C67.8982 238.937 69.2931 238.969 70.5758 239.034C71.8584 239.098 72.9579 239.195 73.874 239.324C74.7902 239.453 75.6295 239.62 76.3979 239.833C78.5495 240.432 80.2991 241.74 81.6408 243.756C82.9944 245.812 83.6742 248.234 83.6742 251.03C83.6742 253.124 83.2604 255.025 82.4329 256.732C81.6054 258.42 80.5237 259.664 79.182 260.456L83.4318 269.708H85.6425V279.398L74.5597 279.404L67.8568 262.879H64.0738V269.714H66.3968V279.411Z" fill="white"/>
<path fill-rule="evenodd" clip-rule="evenodd" d="M118.689 279.385L89.3302 279.398V269.708H91.7241V248.614H89.2888V238.924L118.689 238.911V251.861H110.609V248.608H103.623V254.832H109.705V263.065H103.623V269.702H110.609V266.441H118.689V279.385Z" fill="white"/>
<path fill-rule="evenodd" clip-rule="evenodd" d="M136.268 279.379L123.636 279.385V269.695H126.338V248.601H123.636V238.911L138.219 238.905L149.408 260.05V248.588H146.907V238.898L159.32 238.892V248.582H156.643V279.894L146.511 279.9L133.549 255.431V269.689H136.268V279.379Z" fill="white"/>
<path fill-rule="evenodd" clip-rule="evenodd" d="M199.645 279.353L183.721 279.359V269.669H185.205L178.46 258.15L186.292 248.576H183.792V238.886L198.947 238.879V248.569H196.559L190.276 256.255L198.132 269.663H199.656V279.353H199.645ZM180.511 279.359V269.669H178.076V248.576H180.511V238.886L163.766 238.892V248.582H166.177V269.676H163.831V279.366L180.511 279.359Z" fill="white"/>
<path fill-rule="evenodd" clip-rule="evenodd" d="M220.48 279.34L202.937 279.346V269.663L205.768 269.656V248.563H202.937V238.879L220.48 238.866V248.556H217.673V269.656L220.48 269.65V279.34Z" fill="white"/>
<path d="M225.221 226.76H6V229.421H225.221V226.76Z" fill="#231F20"/>
<path d="M225.221 290.299H6V292.96H225.221V290.299Z" fill="#231F20"/>
<path d="M225.221 226H6V228.661H225.221V226Z" fill="white"/>
<path d="M225.221 289.545H6V292.206H225.221V289.545Z" fill="white"/>
<path d="M230.5 114C230.5 171.99 179.289 205 115.5 205C51.7111 205 0 157.99 0 100C0 42.0101 70.7111 0 134.5 0C198.289 0 230.5 56.0101 230.5 114Z" fill="#F4712C"/>
<path d="M123 29C85.9984 29 56 58.9969 56 95.9966C56 132.996 85.9984 162.993 123 162.993C160.002 162.993 190 132.996 190 95.9966C190 58.9969 160.008 29 123 29Z" fill="white"/>
<path d="M85.2355 57.8624C86.1066 57.8624 87.0048 57.8961 87.9165 57.9434C97.2902 49.752 109.554 44.7886 122.987 44.7886C138.317 44.7886 152.134 51.2579 161.866 61.6171C162.71 58.1933 160.137 53.689 153.991 49.6575C145.043 43.9242 134.407 40.6017 122.993 40.6017C106.806 40.6017 92.1847 47.2872 81.7305 58.0515C82.4666 57.9637 83.2162 57.9097 83.9658 57.8826C84.3845 57.8691 84.81 57.8624 85.2355 57.8624Z" fill="#231F20"/>
<path d="M122.453 80.4377C119.765 80.6606 117.455 82.5177 117.293 84.5841C117.131 86.6505 119.177 88.1497 121.865 87.9336C124.553 87.7107 126.863 85.8604 127.025 83.7872C127.187 81.714 125.141 80.2149 122.453 80.4377Z" fill="#231F20"/>
<path d="M147.913 80.2216C153.964 79.9718 159.184 78.3848 162.743 75.7647C165.35 73.8468 167.072 71.3752 167.558 68.4646C168.126 65.0881 166.957 61.5901 164.499 58.3689C165.073 59.9423 165.256 61.5496 164.992 63.123C164.047 68.674 157.732 72.2801 149.541 72.5907C129.456 73.3336 101.619 61.5023 84.0938 62.0223C78.7857 62.1911 73.957 64.163 70.7762 67.4247C69.1419 69.0994 67.9398 71.1118 67.332 73.4011C66.8458 75.2447 66.785 77.1085 67.0956 78.9318C67.6562 82.3556 70.6074 85.5768 74.9903 86.4952C76.5301 86.8193 78.0901 86.7653 79.3935 86.4952C76.7597 84.6651 75.1861 82.153 75.3212 79.4653C75.49 76.1833 78.1711 73.4416 82.0611 72.0032C83.6954 71.3955 85.5458 71.024 87.511 70.9362C105.239 70.315 127.7 81.0523 147.913 80.2216Z" fill="#231F20"/>
<path d="M174.177 83.9358L175.507 77.3921C175.744 76.4062 176.284 75.0961 177.932 74.5626L178.026 74.0831L173.427 74.6099C169.247 75.0826 166.411 79.2289 165.634 83.0849L165.256 84.9622L162.521 85.2729L161.704 89.3112L164.439 88.9938L161.548 103.229C161.433 103.864 161.373 104.465 161.352 105.032C160.461 105.998 159.435 106.781 158.381 107.207C155.828 108.253 154.153 106.828 154.646 104.019H154.64L156.767 93.5521C157.024 92.2015 156.888 90.9522 156.544 89.8852C155.997 88.1699 154.795 86.9071 153.147 86.3263C152.175 85.9819 151.06 85.8739 149.824 86.0562C146.65 86.5222 144.104 88.2509 142.389 90.574C142.085 90.9927 141.795 91.4181 141.545 91.8706C141.41 90.5875 140.998 89.4665 140.093 88.7844C139.364 88.2239 138.472 88.0146 137.756 88.0956L132.185 88.7372L132.09 89.2166C132.205 89.2031 132.32 89.2031 132.421 89.2099C132.725 89.2301 132.941 89.3517 133.103 89.5273C133.211 89.6488 133.292 89.7906 133.346 89.9527C133.63 90.7698 133.373 92.0326 133.272 92.5594L130.138 108.004C129.139 109.273 127.876 110.327 126.593 110.853C124.04 111.9 122.365 110.475 122.858 107.673H122.852L124.709 98.5223C125.29 95.659 125.593 92.1609 123.642 90.6753C122.906 90.1215 122.021 89.9054 121.305 89.9865L115.734 90.628L115.639 91.1075C117.523 90.8779 116.996 93.5588 116.821 94.4232L113.93 108.686H113.937C113.87 109.07 113.822 109.435 113.789 109.793C112.776 111.103 111.486 112.197 110.169 112.737C107.616 113.784 105.941 112.359 106.427 109.557L110.243 90.7698C110.824 87.9065 111.128 84.4085 109.176 82.9296C108.44 82.3691 107.555 82.1597 106.839 82.2408L101.268 82.8823L101.173 83.3618C103.044 83.1389 102.538 85.7793 102.362 86.6572L102.355 86.6978C102.355 86.691 102.362 86.6775 102.362 86.6707L97.513 110.576C96.8917 114.128 97.6954 116.62 99.5593 117.863C101.092 118.889 103.355 119.072 106.13 118.282C109.19 117.41 111.83 115.337 113.917 112.737C114.228 114.189 114.937 115.283 115.983 115.979C117.523 117.012 119.779 117.188 122.554 116.397C125.141 115.661 127.43 114.061 129.335 112.008L128.828 114.507L137.756 113.48L141.309 95.9764C141.889 93.7411 143.713 91.9381 145.138 91.3506C147.096 90.547 148.481 91.6275 148.015 93.7817L145.732 105.046C145.111 108.598 145.914 111.09 147.771 112.332C149.311 113.359 151.567 113.541 154.342 112.751C157.179 111.941 159.651 110.104 161.656 107.767C162.014 108.976 162.676 109.901 163.601 110.516C165.134 111.549 167.397 111.724 170.172 110.934C170.415 110.874 170.679 110.786 170.949 110.678C173.238 109.759 176.169 107.213 176.331 104.195C175.204 105.39 173.698 105.687 172.907 105.728C172.874 105.728 172.84 105.728 172.806 105.734C172.759 105.734 172.718 105.734 172.671 105.734C171.03 105.741 170.098 104.404 170.476 102.216H170.469L173.36 87.9673L177.419 87.5014L178.236 83.4631L174.177 83.9358Z" fill="#231F20"/>
<path d="M171.232 114.939C170.598 115.114 169.983 115.249 169.375 115.351C162.129 133.894 144.07 147.07 122.986 147.07C105.428 147.07 89.9557 137.926 81.0953 124.157L80.4268 124.231L76.3342 124.704C85.7416 140.674 103.111 151.398 122.986 151.398C147.265 151.398 167.802 135.414 174.656 113.392C173.934 113.852 173.198 114.236 172.475 114.527C172.036 114.702 171.624 114.837 171.232 114.939Z" fill="#231F20"/>
<path d="M89.7128 93.6263C89.7128 93.6263 92.1913 81.3359 92.2791 80.9712C92.5154 79.9853 93.0557 78.6752 94.7035 78.1417L94.7981 77.6622L90.1518 78.1957V78.2025C85.9985 78.7022 83.1823 82.8283 82.3989 86.6708L80.7781 94.6528V94.6596L78.0227 94.9769L77.2056 99.0153L79.961 98.6979L75.5105 120.638L84.4384 119.612L88.8889 97.6714L96.5202 96.7935L97.3373 92.7552L89.7128 93.6263Z" fill="#231F20"/>
<path d="M94.17 123.353C94.6832 122.833 95.5274 122.833 96.0474 123.346C96.5674 123.86 96.5809 124.704 96.0541 125.23C95.5409 125.75 94.6967 125.75 94.1767 125.237C93.6567 124.724 93.6432 123.887 94.17 123.353Z" fill="#231F20"/>
<path d="M97.4858 126.581C98.4313 125.284 100.174 125.001 101.524 125.98C102.436 126.642 102.713 127.452 102.706 128.289L101.295 128.33C101.274 127.824 101.119 127.412 100.694 127.101C100.072 126.642 99.2417 126.851 98.7622 127.513C98.2759 128.181 98.33 129.026 98.9513 129.478C99.4173 129.816 99.8427 129.802 100.349 129.674L100.795 131.011C99.9508 131.281 99.0728 131.295 98.0869 130.572C96.8172 129.647 96.5066 127.925 97.4858 126.581Z" fill="#231F20"/>
<path d="M102.22 132.828L103.246 132.105C103.375 132.328 103.57 132.476 103.719 132.551C103.841 132.611 104.023 132.645 104.252 132.551L104.117 127.938L105.644 128.688L105.623 131.571L107.832 129.768L109.324 130.504L105.529 133.327C104.637 133.989 104.003 134.124 103.239 133.746C102.767 133.51 102.449 133.192 102.22 132.828Z" fill="#231F20"/>
<path d="M111.404 133.996L110.391 130.896L112.08 131.369L112.607 133.125L113.971 131.902L115.625 132.362L113.154 134.469L114.207 137.69L112.519 137.217L111.952 135.333L110.479 136.643L108.825 136.184L111.404 133.996Z" fill="#231F20"/>
<path d="M120.211 136.251L119.731 134.637L118.982 136.15L120.211 136.251ZM119.164 132.767L120.63 132.888L122.507 138.622L120.873 138.487L120.555 137.474L118.435 137.298L117.962 138.243L116.362 138.108L119.164 132.767Z" fill="#231F20"/>
<path d="M126.789 135.556C127.329 135.508 127.633 135.191 127.592 134.745C127.545 134.273 127.194 134.057 126.647 134.104L125.931 134.171L126.066 135.623L126.789 135.556ZM124.29 133.03L126.647 132.814C128.038 132.686 128.997 133.314 129.112 134.55C129.233 135.846 128.301 136.623 126.93 136.744L126.181 136.812L126.329 138.385L124.81 138.527L124.29 133.03Z" fill="#231F20"/>
<path d="M130.246 132.375L131.705 131.977L132.515 134.975L133.771 131.423L135.142 131.045L136.587 136.373L135.129 136.765L134.318 133.773L133.069 137.325L131.691 137.697L130.246 132.375Z" fill="#231F20"/>
<path d="M136.858 130.403L138.235 129.741L139.208 131.761L139.951 128.924L141.578 128.141L140.727 131.18L144.03 133.077L142.375 133.874L140.241 132.625L140.005 133.429L140.619 134.712L139.242 135.373L136.858 130.403Z" fill="#231F20"/>
<path d="M142.747 127.405L143.969 126.514L145.799 129.026L145.698 125.257L146.846 124.413L150.094 128.877L148.872 129.768L147.049 127.256L147.15 131.025L145.995 131.862L142.747 127.405Z" fill="#231F20"/>
<path d="M150 125.197C149.487 124.677 149.493 123.833 150.013 123.319C150.533 122.806 151.378 122.806 151.898 123.333C152.411 123.853 152.404 124.697 151.884 125.21C151.364 125.73 150.52 125.73 150 125.197Z" fill="#231F20"/>
<path d="M111.796 59.1657L113.431 57.1466C113.843 56.6401 113.964 56.3362 113.89 56.0121C113.809 55.6744 113.518 55.5258 113.161 55.6136C112.803 55.7014 112.566 55.9783 112.262 56.559L111.053 55.9648C111.452 55.0801 111.918 54.5399 112.965 54.29C114.133 54.0064 115.105 54.5129 115.355 55.5393C115.558 56.397 115.234 56.9575 114.565 57.7138L113.802 58.5782L116.017 58.0447L116.308 59.2535L112.06 60.28L111.796 59.1657Z" fill="#231F20"/>
<path d="M120.589 56.0255C120.515 55.1544 120.042 54.5533 119.441 54.6074C118.833 54.6614 118.489 55.3029 118.563 56.2011C118.638 57.079 119.103 57.6732 119.711 57.6192C120.319 57.5652 120.664 56.9102 120.589 56.0255ZM117.03 56.3294C116.895 54.7762 117.773 53.3851 119.34 53.2568C120.9 53.1217 121.987 54.3305 122.122 55.8972C122.257 57.4504 121.386 58.8415 119.813 58.9766C118.239 59.1049 117.165 57.8961 117.03 56.3294Z" fill="#231F20"/>
<path d="M127.12 56.1606C127.187 55.2894 126.816 54.6209 126.215 54.5736C125.607 54.5263 125.161 55.1071 125.094 56.0053C125.026 56.8831 125.384 57.5449 125.999 57.5922C126.606 57.6395 127.045 57.0452 127.12 56.1606ZM123.554 55.8905C123.675 54.3373 124.763 53.1082 126.329 53.223C127.896 53.3446 128.767 54.7087 128.646 56.2754C128.531 57.8286 127.444 59.0576 125.877 58.9428C124.303 58.8213 123.439 57.4572 123.554 55.8905Z" fill="#231F20"/>
<path d="M129.49 58.0514L131.86 56.9777C132.455 56.7076 132.698 56.4915 132.779 56.1673C132.853 55.8297 132.664 55.5663 132.306 55.4853C131.948 55.4042 131.61 55.546 131.077 55.931L130.267 54.8572C131.016 54.2427 131.678 53.9658 132.725 54.2089C133.9 54.4791 134.548 55.3637 134.305 56.3969C134.109 57.2546 133.569 57.6125 132.63 57.9906L131.556 58.4228L133.778 58.9361L133.501 60.1516L129.247 59.1724L129.49 58.0514Z" fill="#231F20"/>
<path d="M234.309 193.883C237.726 203.027 231.69 211.215 221.75 214.929C211.81 218.644 200.981 214.241 197.564 205.097C194.147 195.952 202.691 185.21 212.631 181.495C222.571 177.781 230.891 184.738 234.309 193.883Z" fill="#F4712C"/>
</svg>
