<svg width="446" height="50" viewBox="0 0 446 50" fill="none" xmlns="http://www.w3.org/2000/svg">
<path d="M16.758 41.7623C23.268 41.7623 27.006 38.9483 29.778 35.1263L23.646 30.7583C21.882 32.9003 20.076 34.3283 17.01 34.3283C12.894 34.3283 9.996 30.8843 9.996 26.4743C9.996 22.1063 12.894 18.6203 17.01 18.6203C19.824 18.6203 21.798 19.9223 23.478 22.0223L29.442 17.4023C26.838 13.7903 23.1 11.1863 17.094 11.1863C8.19 11.1863 1.596 17.9063 1.596 26.4743C1.596 35.3363 8.358 41.7623 16.758 41.7623ZM42.2717 41.5943C46.8077 41.5943 49.5377 39.4523 52.2257 34.2023L63.6917 11.7743H54.8297L48.5297 25.5923L41.8517 11.7743H32.7797L44.2877 33.4883C43.4057 34.4963 42.4397 34.7483 41.7257 34.7483C40.8437 34.7483 39.5417 34.4963 38.4077 33.7403L35.2157 39.6203C37.1897 40.7963 39.4577 41.5943 42.2717 41.5943ZM66.2675 41.1743H75.4235L81.0935 32.3123L86.7215 41.1743H96.0875L86.0075 26.1383L95.6675 11.7743H86.5115L81.2615 20.0483L76.0535 11.7743H66.6875L76.3475 26.2223L66.2675 41.1743ZM98.9192 41.1743H107.487L109.587 35.9243H120.927L123.069 41.1743H131.805L119.289 11.5643H111.435L98.9192 41.1743ZM111.981 29.5823L115.299 21.2243L118.575 29.5823H111.981ZM136.758 41.1743H144.906V32.7743H148.938C156.246 32.7743 161.58 29.1203 161.58 22.1903C161.58 15.5963 156.792 11.7743 149.358 11.7743H136.758V41.1743ZM144.906 26.3903V18.6203H148.728C151.668 18.6203 153.432 19.9643 153.432 22.4843C153.432 24.8783 151.668 26.3903 148.77 26.3903H144.906ZM167.118 41.1743H174.72L186.102 24.6263V41.1743H194.166V11.7743H186.564L175.182 28.3223V11.7743H167.118V41.1743ZM201.456 41.1743H209.604V33.5723L212.586 30.2543L219.978 41.1743H229.764L218.256 24.4163L229.386 11.7743H219.726L209.604 23.7023V11.7743H201.456V41.1743ZM234.236 41.1743H241.838L253.22 24.6263V41.1743H261.284V11.7743H253.682L242.3 28.3223V11.7743H234.236V41.1743ZM282.322 41.1743H290.47V30.6743H304.372V23.9123H290.47V18.9143H305.842V11.7743H282.322V41.1743ZM311.657 41.1743H334.043V34.0343H319.805V11.7743H311.657V41.1743ZM339.806 41.1743H347.996V11.7743H339.806V41.1743ZM355.478 41.1743H363.542V25.0463L376.1 41.1743H383.24V11.7743H375.176V27.3143L363.08 11.7743H355.478V41.1743ZM397.736 41.1743H405.884V18.9143H414.704V11.7743H388.916V18.9143H397.736V41.1743Z" fill="white"/>
<path d="M429.775 6.51318H425.855V17.1743H423.219V6.51318H419.352V4.37744H429.775V6.51318ZM434.732 4.37744L438.02 13.6587L441.289 4.37744H444.752V17.1743H442.106V13.6763L442.37 7.63818L438.916 17.1743H437.105L433.66 7.64697L433.924 13.6763V17.1743H431.287V4.37744H434.732Z" fill="white"/>
</svg>
