<svg width="658" height="221" viewBox="0 0 658 221" fill="none" xmlns="http://www.w3.org/2000/svg">
<path d="M410.632 51.1706C405.626 51.4248 454.132 15.1706 472.133 11.6706L483.132 33.1707C452.132 40.1707 415.639 50.9165 410.632 51.1706Z" fill="#FFAC30"/>
<path d="M399.21 50.0294C396.07 53.0332 409.487 27.2062 415.258 13.5047L432.637 24.1001C409.5 37.6587 402.351 47.0256 399.21 50.0294Z" fill="#FFCA42"/>
<path d="M193.649 55.0591C197.186 60.1878 170.695 44.3379 152.802 33.5904L164.424 1.45097C187.256 37.5252 190.113 49.9304 193.649 55.0591Z" fill="#FCA338"/>
<path d="M656.94 177.66L401.06 198.53L401.35 202.06L657.23 181.19L656.94 177.66Z" fill="white"/>
<path d="M265.56 98.16L58.6201 115.02L58.9101 118.55L265.85 101.69L265.56 98.16Z" fill="white"/>
<path fill-rule="evenodd" clip-rule="evenodd" d="M57.34 131.54L38.82 174.03L49.51 216.38L35.15 217.64L27.5 185L12.75 219.6L0 220.71L19.76 175.7L9.81 135.69L23.92 134.46L30.94 164.87L44.71 132.64L57.34 131.54ZM83.93 174.3L87.4 140.93L98.91 139.92L91.35 212.73L104.97 211.54L113.79 126.6L76.04 129.89L71.34 175.15C70.9 179.36 70.39 183.17 69.78 186.59C69.18 190.01 68.32 192.95 67.25 195.41C66.18 197.87 64.79 199.81 63.11 201.24C61.45 202.67 59.36 203.49 56.87 203.71L55.24 203.85L53.98 215.98L55.47 215.85C60.42 215.42 64.56 214.29 67.9 212.48C71.24 210.67 73.98 208.06 76.13 204.66C78.28 201.27 79.95 197.05 81.12 192.02C82.28 187.01 83.22 181.1 83.93 174.3ZM129.86 160.68L148.55 159.05L147.29 171.18L128.6 172.81L126.02 197.68L149.54 195.62L148.28 207.75L111.14 211L119.96 126.06L157.09 122.82L155.83 134.95L132.31 137.01L129.86 160.68ZM173.3 155.68L175.63 133.23L198.03 131.27L199.29 119.14L163.27 122.29L154.45 207.23L176.24 205.33C183.09 204.73 188.37 202.51 192.08 198.66C195.79 194.81 198.01 189.45 198.72 182.57L199.59 174.2C200.31 167.32 199.18 162.25 196.2 158.98C193.23 155.72 188.32 154.38 181.47 154.97L173.3 155.68ZM177.51 193.19L169.34 193.9L172.05 167.81L180.22 167.1C182.37 166.91 183.95 167.35 184.99 168.43C186.02 169.5 186.38 171.53 186.07 174.53L185.03 184.6C184.72 187.59 183.93 189.73 182.65 191C181.36 192.27 179.65 193 177.51 193.19ZM249.03 198.97L235.29 200.17L234.54 184.97L217.83 186.43L213.88 202.05L201.38 203.14L224.06 116.99L243.99 115.25L249.03 198.97ZM220.76 174.74L233.88 173.6L231.78 131.22L220.76 174.74Z" fill="white"/>
<path fill-rule="evenodd" clip-rule="evenodd" d="M283.33 175.7L278 176.16L282.75 130.2L289.28 129.62L286.44 157.13L300.67 128.62L306 128.15L301.25 174.11L294.66 174.69L297.35 148.62L283.33 175.7Z" fill="white"/>
<path fill-rule="evenodd" clip-rule="evenodd" d="M365.73 125.03C366.13 121.23 365.75 118.71 364.61 117.49C363.47 116.27 361.83 115.75 359.68 115.94C357.54 116.13 355.76 116.91 354.35 118.27C352.94 119.63 352.07 121.85 351.75 124.93L350.81 134.03L337.93 135.16L338.79 126.91C339.51 120.03 341.76 114.6 345.57 110.63C349.37 106.65 354.62 104.37 361.31 103.79C367.99 103.21 372.86 104.61 375.9 107.98C378.94 111.36 380.11 116.49 379.39 123.37L379.17 125.56C378.23 134.62 374.45 140.72 367.82 143.87C371.13 145.03 373.35 147.05 374.49 149.96C375.62 152.87 375.96 156.51 375.5 160.87L374.81 167.54C374.09 174.42 371.83 179.85 368.03 183.82C364.23 187.8 358.98 190.08 352.29 190.66C345.61 191.24 340.74 189.84 337.7 186.47C334.66 183.09 333.49 177.96 334.21 171.08L335.32 160.4L348.2 159.27L347 170.8C346.68 173.87 347.1 175.98 348.24 177.12C349.39 178.26 351.04 178.74 353.18 178.55C355.33 178.36 357.1 177.57 358.52 176.16C359.94 174.76 360.84 172.15 361.23 168.35L361.92 161.68C362.33 157.72 361.92 154.98 360.69 153.49C359.46 152 357.27 151.39 354.14 151.66L352.04 151.84L353.3 139.71L356.14 139.46C358.7 139.23 360.77 138.42 362.34 137C363.92 135.58 364.88 133.17 365.24 129.77L365.73 125.03ZM407.25 100.73L387.2 102.48L378.38 187.42L392 186.23L395.31 154.32L401.74 153.76C408.59 153.16 413.87 150.94 417.58 147.09C421.29 143.24 423.51 137.88 424.22 131L425.37 119.96C426.09 113.09 424.95 108.01 421.98 104.74C419.01 101.46 414.1 100.13 407.25 100.73ZM399.56 113.42L405.99 112.86C408.13 112.67 409.73 113.1 410.77 114.13C411.81 115.16 412.17 117.22 411.85 120.29L410.53 133.03C410.21 136.11 409.42 138.26 408.14 139.49C406.87 140.72 405.16 141.43 403.01 141.62L396.58 142.18L399.56 113.42ZM441.53 133.21L460.22 131.58L458.96 143.71L440.27 145.34L437.69 170.21L461.21 168.15L459.95 180.28L422.82 183.52L431.64 98.58L468.77 95.34L467.51 107.47L443.99 109.53L441.53 133.21ZM494.86 138.17L498.33 104.8L509.84 103.79L502.28 176.6L515.89 175.41L524.71 90.47L486.96 93.76L482.26 139.02C481.82 143.23 481.31 147.04 480.7 150.46C480.1 153.88 479.24 156.82 478.17 159.28C477.1 161.74 475.71 163.68 474.03 165.11C472.37 166.54 470.28 167.36 467.79 167.58L466.16 167.72L464.9 179.85L466.39 179.72C471.34 179.29 475.48 178.16 478.82 176.35C482.16 174.54 484.9 171.93 487.05 168.53C489.2 165.13 490.87 160.92 492.04 155.89C493.21 150.88 494.15 144.96 494.86 138.17ZM531.98 174.01L522.08 174.88L530.9 89.94L543.03 88.88L537.75 139.72L564.19 87.03L574.09 86.16L565.27 171.1L553.02 172.17L558.02 124L531.98 174.01ZM571.09 170.59L625.79 165.81C626.37 165.76 626.83 165.86 627.17 166.11C627.51 166.36 627.71 166.84 627.76 167.56C627.81 168.28 627.79 169.26 627.7 170.51C627.61 171.76 627.46 173.35 627.26 175.3L638.65 174.3L640.92 152.46L635.23 152.96L642.79 80.15L629.17 81.34L621.61 154.15L610.6 155.11L618.16 82.3L604.55 83.49L596.99 156.3L585.98 157.26L593.54 84.45L579.93 85.64L571.09 170.59Z" fill="white"/>
<path d="M230.03 41.52C230.02 42.07 230.01 42.34 230 42.89C229.91 46.84 228.64 49.5 225.95 51.01C229.11 52.02 230.26 54.87 230.16 58.95C230.13 60.21 230.11 60.84 230.09 62.09C229.96 68.01 226.89 71.32 220.94 71.81C217.19 72.12 215.32 72.28 211.58 72.59C211.67 59.84 212.26 47.09 212.35 34.34C215.94 34.04 217.74 33.89 221.33 33.6C227.49 33.09 230.16 35.62 230.03 41.52ZM218.25 39.16C218.19 43.15 218.13 45.22 218.02 49.34C218.95 49.26 219.42 49.22 220.35 49.15C222.57 48.97 223.95 47.84 224.03 44.75C224.05 43.89 224.06 43.46 224.08 42.6C224.14 39.86 223.23 38.76 221.12 38.92C219.97 39.02 219.4 39.07 218.25 39.16ZM217.85 54.92C217.71 59.72 217.64 62.13 217.57 66.78C218.93 66.66 219.62 66.6 220.98 66.48C222.98 66.3 224.07 65.3 224.14 62.45C224.17 61.11 224.19 60.44 224.22 59.09C224.31 55.49 223.21 54.47 220.51 54.7C219.44 54.79 218.91 54.83 217.85 54.92Z" fill="white"/>
<path d="M251.05 55.03C251 57.07 250.97 58.1 250.93 60.14C250.8 66.29 247.78 70 241.94 70.49C236.09 70.97 233.05 67.86 233.18 61.71C233.35 53.72 233.54 49.57 233.71 41.61C233.84 35.49 236.86 31.89 242.7 31.41C248.54 30.93 251.58 34.08 251.45 40.18C251.42 41.66 251.4 42.4 251.36 43.89C249.11 44.07 247.98 44.17 245.73 44.35C245.77 42.7 245.79 41.88 245.83 40.25C245.89 37.53 244.71 36.6 242.81 36.75C240.92 36.9 239.72 38.02 239.66 40.74C239.49 48.99 239.29 53.27 239.12 61.56C239.06 64.3 240.24 65.17 242.14 65C244.03 64.83 245.23 63.75 245.29 61.01C245.34 58.82 245.36 57.72 245.42 55.51C247.67 55.33 248.8 55.23 251.05 55.03Z" fill="white"/>
<path d="M260.84 46.32C264.11 46.05 265.74 45.91 269.01 45.64C268.95 47.81 268.92 48.9 268.86 51.08C265.59 51.36 263.96 51.5 260.69 51.78C260.57 56.27 260.5 58.52 260.44 63.02C264.55 62.66 266.61 62.48 270.72 62.12C270.69 64.32 270.68 65.43 270.67 67.65C264.18 68.19 260.93 68.46 254.43 69.01C254.51 56.27 255.09 43.54 255.18 30.79C261.67 30.25 264.91 29.99 271.4 29.45C271.4 31.62 271.39 32.71 271.35 34.88C267.24 35.21 265.19 35.38 261.08 35.71C261.02 39.94 260.96 42.06 260.84 46.32Z" fill="white"/>
<path d="M308.29 26.82C305.8 34.6 304.43 38.23 301.74 45.73C304.19 53.23 305.38 56.88 308.03 64.95C305.52 65.16 304.26 65.26 301.75 65.47C299.81 59.29 298.92 56.4 297.12 50.58C294.99 56.74 293.93 59.86 291.95 66.29C289.72 66.48 288.61 66.57 286.38 66.76C289.05 58.44 290.53 54.42 293.41 46.43C291.12 39.31 290.01 35.78 287.53 28.53C289.99 28.33 291.23 28.22 293.69 28.02C295.48 33.56 296.3 36.26 297.96 41.65C299.94 35.96 300.93 33.14 302.77 27.27C304.99 27.09 306.09 27 308.29 26.82Z" fill="white"/>
<path d="M311.11 35.76C311.23 29.73 314.4 25.86 320.24 25.38C326.08 24.9 329.28 28.3 329.17 34.3C329.02 42.1 328.86 45.73 328.71 53.71C328.59 59.85 325.42 63.97 319.57 64.45C313.72 64.93 310.52 61.44 310.64 55.3C310.79 47.33 310.96 43.6 311.11 35.76ZM316.58 55.17C316.53 57.92 317.71 58.89 319.61 58.73C321.5 58.56 322.7 57.37 322.75 54.63C322.9 46.32 323.08 42.54 323.23 34.41C323.28 31.72 322.1 30.77 320.21 30.92C318.32 31.07 317.12 32.21 317.07 34.9C316.91 43.04 316.73 46.87 316.58 55.17Z" fill="white"/>
<path d="M331.38 24.91C338.73 24.3 342.4 24 349.76 23.39C349.76 25.69 349.75 26.8 349.72 28.98C347.23 29.18 345.99 29.28 343.5 29.48C343.31 40.34 343.02 51.18 342.89 62.04C340.51 62.24 339.32 62.34 336.94 62.54C337.07 51.68 337.36 40.82 337.56 29.96C335.07 30.16 333.83 30.26 331.34 30.46C331.37 28.28 331.38 27.18 331.38 24.91Z" fill="white"/>
<path d="M350.63 61.4C351.23 59.78 351.29 58.3 351.31 56.36C351.34 53.89 351.36 52.7 351.4 50.36C351.48 46.4 352.53 43.57 355.54 42.12C352.92 41.15 351.74 38.82 351.83 35.02C351.86 33.86 351.87 33.28 351.89 32.1C351.99 26.33 354.63 22.99 360.79 22.48C364.38 22.18 366.18 22.03 369.77 21.74C369.72 34.45 369.19 47.15 369.14 59.86C366.76 60.06 365.57 60.16 363.19 60.36C363.19 53.4 363.27 50.4 363.42 44.42C362.6 44.49 362.19 44.53 361.36 44.6C358.65 44.83 357.43 46.16 357.36 49.68C357.31 52.06 357.29 53.27 357.26 55.79C357.23 59.05 357.01 59.78 356.69 60.9C354.27 61.1 353.06 61.2 350.63 61.4ZM360.92 28.08C358.81 28.25 357.88 29.54 357.83 32.2C357.8 33.67 357.79 34.39 357.75 35.84C357.68 38.77 359.01 39.58 361.23 39.4C362.16 39.32 362.63 39.28 363.56 39.2C363.67 34.74 363.73 32.55 363.79 27.85C362.63 27.94 362.06 27.99 360.92 28.08Z" fill="white"/>
<path d="M372.37 21.52C379.73 20.91 383.41 20.61 390.77 20C390.77 22.36 390.76 23.49 390.73 25.69C388.24 25.89 387 25.99 384.51 26.19C384.32 37 384.05 47.81 383.93 58.63C381.55 58.83 380.36 58.93 377.98 59.13C378.1 48.31 378.38 37.5 378.56 26.68C376.07 26.88 374.83 26.98 372.34 27.18C372.36 24.97 372.36 23.85 372.37 21.52Z" fill="white"/>
<path d="M202.419 67.3602C206.921 69.5638 175.532 66.7939 159.606 66.9281L166.762 51.42C188.762 61.42 197.916 65.1567 202.419 67.3602Z" fill="#FFAC30"/>
</svg>
