<svg width="1920" height="2052" viewBox="0 0 1920 2052" fill="none" xmlns="http://www.w3.org/2000/svg">
<g opacity="0.42">
<path d="M-102.462 1471.39C-80.2003 1472.85 6.0906 1484.65 140.066 1559.02C222.678 1603.5 300.072 1651.78 376.957 1700.43C436.814 1738.23 497.175 1775.58 561.104 1810.42C638.893 1852.76 721.968 1889.89 812.844 1919.26C878.402 1940.43 916.487 1946.24 946.769 1944.91C998.42 1942.63 1006.66 1921.08 1005.82 1902.02C1004.68 1876.09 983.834 1841.36 963.461 1811.31C923.688 1752.39 863.365 1689.15 815.373 1619.6C754.464 1531.19 709.264 1432.67 704.415 1322.87C696.865 1151.89 788.748 1079.14 843.503 1099.56C885.638 1119.76 864.977 1160.51 908.389 1251.26C952.87 1357.31 1035.01 1447.58 1155.45 1521.94C1249.7 1580.11 1357.03 1625.15 1474.68 1659.97C1548.95 1681.97 1625.79 1699.85 1704.08 1714.96C1786.48 1730.94 1869.37 1746.02 1952.15 1761.46C2124.93 1789.57 2292.51 1848.52 2405.02 1868.13C2463.13 1878.29 2504.47 1871.67 2533.36 1853.57C2563.4 1834.81 2567.17 1798.29 2564.46 1737.04C2567.62 1701.42 2518.12 1481.73 2646.59 1383.91C2720.05 1328.1 2849.64 1333.01 2883.88 1337.95C2884.35 1348.74 2885.89 1383.45 2886.46 1396.42C2876.07 1396.18 2865.15 1395.7 2854.64 1395.64C2826.52 1395.4 2798.79 1397.94 2771.89 1404.44C2730.43 1414.47 2699.19 1432.93 2676.66 1458.08C2658.01 1478.87 2615.94 1534.43 2624.94 1738.29C2643.31 1934.24 2534.79 1936.59 2492.8 1937.49C2459.86 1938.16 2407.47 1926.7 2359.14 1908.95C2281.84 1880.63 2152.14 1825.77 2002.71 1790.96C1937.82 1776.13 1871.73 1763.79 1805.64 1751.37C1713.46 1733.99 1622.37 1714.74 1533.96 1690.66C1443.83 1666.13 1357.31 1637.26 1276.4 1601.6C1178.07 1558.17 1091.84 1506.18 1021.41 1442.95C868.491 1302.54 878.677 1203.06 818.04 1174.35C795.772 1163.83 727.157 1189.44 733.501 1333.09C742.342 1533.3 925.642 1707.41 959.894 1745.39C1073.54 1864.95 1115.22 1946.27 1066.95 1983.63C1015.01 2023.76 883.481 2010.82 615.443 1874.98C524.334 1828.43 435.886 1779.68 350.36 1728.71C289.659 1692.6 229.976 1655.74 167.115 1621.29C126.997 1599.18 15.5484 1535.23 -99.9343 1528.65C-100.776 1509.59 -101.621 1490.45 -102.462 1471.39Z" fill="#FF3475"/>
<path d="M2831.26 143.481C2723.19 197.596 2620.38 260.982 2518.98 320.383C2461.49 354.044 2418.89 394.633 2387.29 440.489C2362.71 475.923 2343.98 512.668 2325.77 549.564C2308.17 585.213 2291.1 620.926 2272.04 656.29C2252.61 692.194 2230.12 727.274 2201.78 760.782C2183.44 782.515 2162.41 803.146 2136.28 821.125C2127.48 827.18 2118.01 832.742 2108.27 838.142C2100.83 842.219 2092.28 845.037 2082.9 846.759C2068.96 849.293 2057.18 847.285 2047.55 840.474C2040.1 835.311 2035.36 828.982 2031.39 822.357C2023.02 808.429 2018.57 793.806 2015.02 778.967C2008.12 750.503 2001.6 721.935 1994.83 693.465C1989.49 670.772 1984.02 647.999 1978.42 625.318C1969.16 588.153 1955.87 551.776 1940.87 515.562C1914.71 452.553 1882.31 391.041 1848.22 329.952C1827.25 292.519 1806.17 255.179 1783.65 218.25C1772.61 200.169 1758.71 182.824 1745.07 165.554C1738.95 157.804 1730.88 150.489 1722.44 143.713C1689.35 117.189 1644.7 111.489 1596.63 123.55C1579.22 127.893 1563.48 134.342 1548.58 141.887C1519.8 156.41 1495.88 173.943 1474.13 192.949C1447.7 216.085 1425.55 241.038 1403.81 266.147C1385.06 287.81 1366.45 309.642 1346.91 330.992C1323.23 356.971 1296.2 381.354 1263.25 402.686C1230.94 423.553 1195.08 441.265 1157.16 457.063C1100.16 480.939 1040.64 501.264 979.865 520.076C897.71 545.412 815.261 570.063 730.978 591.831C690.978 602.14 650.385 610.907 608.62 616.936C528.348 628.414 458.594 616.325 399.851 579.951C367.444 559.936 343.261 535.809 323.837 509.38C300.5 477.631 284.049 444.183 276.447 408.863C273.322 394.616 271.501 380.138 269.29 365.764C265.242 339.527 261.849 313.262 256.887 287.153C253.092 266.659 246.29 246.472 234.676 227.37C228.59 217.439 221.08 208.006 210.602 199.751C190.32 183.647 163.849 176.098 131.947 176.461C103.851 176.742 44.6969 184.585 -155.774 273.032C-156.228 262.765 -156.681 252.498 -157.135 242.231C-106.626 220.037 -18.9002 175.102 50.1391 147.207C77.3692 136.24 105.86 127.049 136.617 121.593C157.207 117.894 178.143 116.098 199.21 117.26C226.469 118.846 248.109 127.044 264.493 141.141C278.692 153.329 287.326 167.42 293.755 182.131C300.909 198.379 305.066 215.195 307.913 232.069C313.202 262.61 314.697 293.492 316.975 324.253C320.157 366.569 329.474 408.003 350.666 447.693C365.837 475.966 386.044 502.274 414.777 525.328C446.775 550.94 486.334 569.332 536.198 577.155C567.809 582.123 599.873 582.451 632.453 579.617C683.745 575.173 732.929 564.632 780.949 551.527C867.519 528.001 952.964 502.782 1036.15 474.001C1074.06 460.907 1110.71 446.298 1145.17 429.433C1200.59 402.402 1245.07 368.617 1282.93 330.766C1308.97 304.683 1331.14 277.289 1354.1 250.034C1378.31 221.155 1402.79 192.438 1431.67 165.358C1462.95 135.992 1498.82 109.562 1542.8 88.1793C1569.67 75.1362 1597.93 63.6883 1629.81 56.8754C1648.29 52.9211 1666.97 50.7011 1686.3 51.1553C1712.07 51.8478 1733.64 58.3058 1751.37 70.1638C1765.04 79.4111 1774.98 90.3056 1783.38 101.965C1796.53 120.302 1806.32 139.66 1815.19 159.145C1851.87 240.258 1893.89 320.176 1933.43 400.553C1964.6 463.95 1991.99 528.124 2017.05 592.838C2026.84 618.211 2036.11 643.694 2046.16 669.055C2051.48 682.594 2058.25 695.895 2067.6 708.385C2071.36 713.362 2075.65 718.229 2080.45 722.812C2083.61 725.898 2087.67 728.683 2091.98 731.195C2103.71 737.913 2117.29 739.144 2132.08 735.003C2142.85 732 2151.83 727.157 2159.99 721.653C2171.73 713.725 2181.45 704.839 2190.23 695.385C2216.19 667.562 2238.68 638.497 2256.11 607.999C2275.25 574.462 2293.2 540.628 2311.54 506.865C2325.87 480.427 2341.14 454.297 2358.26 428.52C2390.04 380.825 2436.31 340.074 2494.67 305.154C2531.64 282.947 2569.16 261.064 2606.55 239.101C2658.53 208.647 2710.38 178.111 2762.76 147.9C2781.85 136.858 2817.27 118.032 2829.38 112.703L2830.74 143.504C2722.66 197.62 2619.86 261.005 2518.46 320.406" fill="#FF3475"/>
<path d="M-120.114 1071.67C98.5761 1128.1 255.186 1289.7 387.253 1288.14C511.76 1281.94 489.47 1160.88 641.477 989.221C695.515 927.989 764.516 875.424 849.562 832.264C908.527 802.286 973.355 780.157 1044.49 767.077C1091.14 758.479 1138.38 754.562 1186.12 756.028C1217.95 756.976 1248.99 760.836 1278 769.406C1307.15 778.057 1331.22 790.682 1345.98 809.819C1362.83 831.48 1362.11 853.656 1343.25 875.673C1334.38 886.003 1322.55 894.894 1308.83 902.387C1288.56 913.395 1267.89 924.072 1246.93 934.413C1171.6 971.391 1118.26 1018.82 1088.27 1077.33C1068.32 1116.22 1063.76 1155.74 1070.25 1195.73C1075.65 1228.71 1086.77 1260.47 1106.1 1290.74C1137.71 1340.26 1182.97 1383.59 1241.47 1420.33C1348.46 1487.44 1474.29 1532.1 1620.67 1551.35C1674.71 1558.47 1729.49 1561.63 1785.19 1558.82C1819.78 1557.03 1853.88 1552.82 1887.16 1545.07C1925 1536.26 1956.52 1521.35 1981.75 1500.8C1997.22 1488.26 2012.01 1475.14 2025.33 1461.47C2081.62 1403.63 2143.54 1348.41 2209.49 1295.2C2309.69 1214.49 2410.29 1133.94 2510.89 1053.39C2541.47 1028.94 2573.12 1005.05 2608.28 983.27C2634.48 966.944 2662.33 952.114 2694.43 941.369C2723.16 931.731 2752.98 925.881 2785.01 925.425C2813.11 925.056 2842.13 931.01 2866.53 939.174C2866.89 947.353 2868.27 981.466 2868.47 986.165C2835.12 977.525 2801.39 972.127 2768.97 975.651C2731.98 979.639 2698.67 989.827 2666.94 1003C2630.57 1018.12 2598.96 1036.95 2570.06 1057.75C2533.02 1084.5 2496.92 1111.72 2460.82 1139.03C2396.01 1188.19 2331.59 1237.58 2269.33 1288.11C2225.33 1323.79 2185.35 1361.3 2151.13 1401.34C2132.52 1423 2118.42 1445.85 2103.8 1468.64C2093.97 1484.07 2083.75 1499.43 2073.12 1514.63C2046.93 1552.14 2002.35 1574.77 1943.31 1585.14C1901.73 1592.47 1859.55 1595.03 1817.09 1594.11C1733.47 1592.4 1651.55 1584.25 1572.03 1568.23C1454.35 1544.49 1348.89 1506.08 1256.32 1453.24C1167.65 1402.58 1105.12 1339.87 1068.34 1265.47C1049.44 1227.08 1042.16 1187.21 1045.74 1146.34C1052.16 1074.57 1092.99 1011.65 1166.12 957.335C1185.57 942.876 1207.32 929.624 1227.72 915.733C1239.32 907.811 1251.2 900.05 1262.12 891.722C1269.49 886.078 1276.18 879.942 1281.81 873.591C1307.97 844.364 1293.41 817.895 1264.7 801.378C1246.91 791.092 1225.5 785.237 1202.74 781.36C1170.72 775.974 1138.11 775.148 1104.98 777.483C1017.64 783.606 939.58 806.494 867.937 840.868C808.132 869.662 757.533 904.676 713.021 943.693C663.832 986.839 626.784 1034.24 596.803 1084.04C501.248 1243.18 532.422 1354.26 406.012 1353.04C282.972 1347.84 204.446 1241.2 -22.8059 1148.54C-52.7661 1136.35 -91.3861 1124.37 -118.035 1118.74C-118.723 1103.17 -119.418 1087.42 -120.114 1071.67Z" fill="#FF3475"/>
<path d="M-140.786 603.563C-55.9003 628.148 47.5037 753.827 189.042 838.853C214.664 853.936 242.064 867.634 272.364 878.588C296.256 887.21 321.606 893.152 349.023 895.341C383.95 898.071 417.237 893.375 449.514 883.668C478.806 874.79 505.2 862.727 530.764 849.742C576.11 826.642 621.182 803.293 666.663 780.274C728.974 748.754 792.801 718.822 860.745 692.894C947.29 659.867 1038.54 635.264 1134.36 618.827C1193.28 608.728 1252.84 601.216 1312.92 596.47C1352.32 593.336 1391.88 591.065 1431.4 590.541C1468.28 590.046 1504.63 592.189 1540.11 598.469C1602.73 609.652 1649.51 634.001 1680.98 671.319C1702.88 697.29 1716.73 725.361 1723.03 755.072C1736.67 820.028 1723.84 883.364 1684.65 944.724C1658.85 985.268 1618.72 1019.3 1569.72 1048.83C1543.1 1064.83 1514.57 1079.08 1484.54 1092C1474.87 1096.18 1465.07 1100.27 1455.68 1104.7C1447.7 1108.54 1439.87 1112.54 1432.58 1116.96C1402.65 1135.2 1394.29 1157.19 1405.11 1181.99C1414.61 1203.89 1434.93 1220.86 1461.03 1234.79C1493.45 1252.1 1530.95 1262.57 1571.78 1268.09C1611.55 1273.48 1652.17 1274.04 1692.9 1271.46C1743.33 1268.27 1792.79 1261.12 1840.73 1249.06C1919.45 1229.19 1989.6 1199.68 2052.98 1162.62C2119.05 1123.96 2174.47 1079.32 2223.44 1031.04C2266.36 988.692 2302.08 943.961 2334.33 897.902C2374.48 840.422 2408.65 781.375 2442.68 722.333C2460.74 691.11 2478.27 659.737 2497.13 628.653C2514.51 599.901 2535.89 572.367 2563.27 547.01C2591.4 520.834 2625.22 498.505 2667.2 482.267C2702.58 468.499 2740.47 461.159 2781.06 461.111C2804.04 461.055 2827.47 466.431 2848.35 472.309C2849.39 495.976 2848.67 521.736 2849.73 545.925C2847.47 545.24 2838.05 541.297 2836.31 540.676C2798.09 525.887 2763.08 520.925 2718.34 524.993C2684.06 528.076 2653.73 537.348 2626.81 552.224C2600.4 566.903 2579.24 584.576 2560.65 603.704C2534.89 630.124 2513.8 658.168 2495.24 686.972C2470.54 725.462 2447.17 764.33 2423.14 803.14C2386.98 861.751 2348.29 919.603 2302.55 975.412C2261.79 1025.07 2215.8 1072.35 2160.72 1115.84C2094.34 1168.21 2017.74 1212.39 1928.89 1246.74C1870 1269.48 1808.13 1287.12 1742.1 1296.92C1656.24 1309.78 1571.99 1308.53 1490.33 1288.6C1440.54 1276.41 1398.45 1257.26 1367.36 1228.47C1350.65 1212.9 1337.69 1196.04 1331.6 1177.04C1327.63 1164.58 1327.07 1151.96 1331.51 1139.3C1338.4 1119.9 1354.14 1104.47 1379.81 1093.92C1394.13 1088.06 1409.28 1083.12 1424.57 1078.52C1450.89 1070.65 1477.35 1063.03 1501.71 1052.45C1587.67 1015.26 1643.45 963.544 1672.38 899.061C1687.69 864.909 1693.25 830.14 1689.07 795.104C1686.1 769.344 1677.25 744.627 1661.9 721.156C1633.31 677.434 1585.37 647.731 1517.55 631.982C1481.72 623.626 1444.61 619.075 1406.57 617.268C1358.01 615.054 1309.32 616.07 1260.74 619.436C1159.78 626.51 1062.59 644.402 968.983 672.248C881.214 698.354 800.352 732.176 724.198 771.457C672.316 798.245 622.609 826.681 573.858 855.946C545.451 872.98 516.373 889.695 485.649 904.826C466.366 914.308 446.25 922.781 424.056 928.817C378.627 941.111 324.034 945.178 279.631 933.103C146.213 895.144 -18.1852 732.666 -137.528 677.347C-138.611 652.81 -139.698 628.187 -140.786 603.563Z" fill="#FF3475"/>
<path d="M-111.704 1262.14C101.872 1283.04 436.256 1627.45 575.678 1584.25C635.917 1562.32 576.19 1488.76 609.458 1251.65C621.988 1178.48 648.283 1107.66 699.847 1040.96C744.7 982.919 805.989 934.182 886.67 896.271C913.175 883.767 941.211 873.201 972.47 867.2C996.302 862.574 1020.38 860.464 1044.67 863.314C1049.03 863.82 1053.26 864.591 1057.25 865.636C1071.6 869.274 1080.42 875.772 1082.73 886.306C1085.49 898.388 1082.73 910.105 1077.46 921.758C1071.49 935.186 1062.19 947.715 1052.76 960.249C1029.3 991.187 1011.95 1023.51 998.971 1056.86C987.874 1085.16 982.834 1113.81 981.488 1142.81C980.049 1172.69 983.457 1202.27 991.314 1231.47C1001.22 1268.35 1019.18 1303.3 1042.86 1336.95C1080.69 1390.55 1133.69 1436.68 1197.87 1477.18C1282.86 1530.79 1380.43 1571.9 1488.44 1602.7C1598.45 1634.02 1713.28 1655.54 1831.71 1669.57C1888.49 1676.31 1945.72 1681.45 2003.26 1684.66C2053.04 1687.44 2102.77 1689.34 2152.97 1686.86C2179.31 1685.61 2205.32 1682.63 2230.39 1676.2C2263.63 1667.68 2287 1652.43 2300.88 1630.72C2311.09 1614.93 2315.48 1598.43 2317.89 1581.67C2321.09 1558.87 2320.21 1536.06 2319.73 1513.33C2318.19 1442.61 2348.04 1377.91 2412.98 1319.77C2455.31 1281.9 2503.17 1247.44 2554.41 1214.93C2584.18 1196.09 2614.35 1177.41 2647.53 1161.21C2677.87 1146.45 2710.03 1133.96 2745.95 1126.53C2786.04 1118.22 2825.69 1117.86 2865.07 1126.15C2868.12 1126.8 2871.17 1127.62 2874.76 1128.43C2875.47 1144.7 2876.19 1160.88 2876.92 1177.5C2835.79 1171.03 2783.49 1167.59 2738.66 1178.63C2706.05 1186.61 2676.35 1198.3 2648.73 1212.25C2595.66 1239 2547.5 1269.55 2503.11 1302.54C2476.15 1322.56 2452.81 1344.34 2434.16 1368.1C2409.41 1399.61 2395.52 1432.92 2390.89 1467.91C2387.75 1491.93 2390.11 1515.72 2391.42 1539.55C2392.84 1565.64 2394.38 1591.64 2390.94 1617.77C2388.69 1635.21 2384.73 1652.56 2375.22 1669.29C2373.15 1672.95 2370.81 1676.54 2368.21 1680.06C2352.7 1700.71 2328.06 1713.82 2294.69 1719.57C2270.45 1723.78 2245.8 1724.95 2221.22 1724.38C2146.4 1722.54 2072.55 1715.95 1998.93 1708.48C1903.27 1698.76 1808.67 1686.11 1715.37 1670.18C1619.94 1653.82 1527.33 1632.71 1439.11 1604.09C1350.76 1575.39 1269.09 1540.2 1196.86 1495.96C1108.98 1442.22 1041.95 1378.84 1000.02 1303.71C983.905 1274.87 973.387 1244.91 966.521 1214.35C961.458 1191.9 959.145 1169.25 958.793 1146.43C958.228 1112.8 965.034 1079.55 976.98 1046.68C986.006 1022.04 996.752 997.681 1006.7 973.093C1012.03 959.955 1016.57 946.852 1016.11 933.273C1015.96 929.967 1015.68 926.666 1014.75 923.481C1011.32 911.253 999.735 904.617 981.648 902.538C966.334 900.774 951.316 902.744 936.626 906.183C901.265 914.457 870.34 928.028 842.03 944.273C802.19 967.129 769.752 994.018 742.3 1023.74C701.431 1067.91 673.848 1115.51 655.426 1165.32C642.975 1198.65 635.139 1232.38 631.259 1266.47C606.727 1484.28 738.872 1654.02 669.874 1685.83C525.702 1752.35 180.102 1362.15 -109.295 1316.69C-110.001 1300.68 -110.989 1278.32 -111.704 1262.14Z" fill="#B92454"/>
<path d="M-150.654 380.036C-93.0976 359.797 21.3375 333.734 63.0611 371.383C113.409 416.934 96.4122 472.259 182.502 586.584C210.674 623.699 245.141 657.659 290.028 686.625C308.957 698.866 329.406 709.819 352.264 718.836C403.468 739.154 458.298 743.445 516.894 731.878C551.271 725.129 583.938 715.318 616.462 705.251C669.849 688.77 721.972 670.428 773.544 651.499C877.983 613.236 986.239 581.081 1097.44 553.156C1159.41 537.604 1220.93 520.939 1281.05 502.243C1347.39 481.616 1409.72 456.546 1465.98 424.769C1480.33 416.638 1494.95 408.669 1509.72 400.956C1522.56 394.286 1535.53 387.611 1549.06 381.608C1565.54 374.255 1583.85 369.436 1603.49 367.959C1629.15 366.041 1652.07 370.608 1672.59 380.164C1688.14 387.323 1701.02 396.344 1712.49 406.212C1747.17 436.152 1774.88 468.753 1797.82 503.397C1825.69 545.494 1845.63 589.511 1859.06 634.861C1872.78 680.983 1879.45 727.765 1879.57 775.185C1879.74 820.772 1870.57 865.899 1855.21 910.603C1843.58 944.768 1829.44 978.52 1813.05 1011.85C1805.22 1027.89 1797.93 1044.16 1795.25 1060.93C1794.02 1068.66 1793.96 1076.33 1796.92 1083.87C1800.78 1093.82 1810.13 1100.29 1824.59 1103.66C1836.4 1106.37 1848.88 1106.51 1861.33 1105.79C1885.7 1104.36 1908.73 1099.51 1931.17 1092.94C1973.82 1080.33 2011.52 1062.45 2047.01 1042.23C2107.1 1008.02 2156.29 967.835 2198.07 923.447C2242.73 876.055 2277.42 825.616 2307.04 773.657C2327.27 737.979 2343.52 701.431 2360.83 665.185C2385.72 613.173 2412.07 561.446 2442.26 510.507C2449.97 497.526 2458.86 484.841 2467.89 472.237C2491.9 438.834 2525.16 409.73 2566.21 384.553C2638.97 339.842 2784.46 268.39 2837.06 249.067C2837.69 263.25 2840.55 276.078 2841.17 290.087C2811.08 298.825 2734.98 327.67 2690.02 350.665C2657.01 367.553 2624.41 384.86 2592.49 402.572C2553 424.454 2522.79 451.331 2497.43 480.697C2470.56 511.699 2449.41 544.453 2432.11 578.083C2412.04 617.241 2393.03 656.701 2373.75 696.085C2349.17 746.079 2323.51 795.77 2292.03 844.15C2256.48 898.724 2213.59 950.659 2159.21 998.393C2108.77 1042.82 2050.33 1081.75 1980.24 1112.57C1938.49 1130.98 1894.5 1145.99 1846.56 1155.09C1816.73 1160.67 1786.53 1163.75 1756.18 1160.56C1744.83 1159.4 1733.57 1157.37 1723.07 1154.52C1702.33 1148.9 1692.39 1137.92 1692.25 1122.84C1692.12 1113.96 1694.89 1105.29 1699.11 1096.74C1705.86 1083.1 1715.81 1070.28 1726.28 1057.7C1765.44 1010.38 1796.09 960.988 1817.05 909.15C1830.68 875.595 1838.89 841.494 1841.96 807.009C1845.78 765.605 1841.48 724.734 1831.55 684.198C1819.03 632.705 1796.76 583.387 1763.17 536.747C1748.34 516.043 1730.41 496.697 1707.45 479.577C1695.5 470.69 1682.53 462.457 1667.01 456.168C1634.24 442.708 1598.7 441.052 1561.19 448.113C1541 451.969 1521.81 457.611 1503.18 464.1C1450.4 482.472 1396.91 499.654 1341.31 513.53C1284.02 527.829 1226.59 541.96 1168.44 554.728C1022.23 586.99 883.055 629.925 748.563 680.674C696.756 700.223 645.361 720.19 593.824 739.902C564.373 751.14 534.089 761.37 501.689 768.293C434.68 782.673 372.578 777.307 315.145 752.731C284.753 739.688 258.938 723.218 235.16 705.263C170.215 656.347 120.49 601.092 87.2795 539.092C62.8451 497.366 53.0191 459.267 14.144 426.635C-44.4435 384.849 -122.795 416.031 -148.805 421.888C-149.436 407.618 -150.023 394.306 -150.654 380.036Z" fill="#B92454"/>
<path d="M-129.162 866.766C115.226 975.671 246.448 1073.97 353.193 1061.15C493.779 1044.3 529.506 940.202 742.421 818.252C827.676 767.934 923.04 729.374 1029.75 703.826C1095.25 688.118 1162.37 679.052 1231.27 677.753C1288.62 676.703 1344.87 680.495 1398.51 693.383C1433.02 701.623 1464.53 713.308 1491.53 729.726C1531.08 753.785 1554.73 783.776 1561.43 819.485C1568.85 859.695 1557.01 897.967 1523.9 933.255C1495.54 963.45 1454.77 983.035 1403.99 993.123C1384.98 996.927 1365.96 1000.38 1346.65 1003.41C1293.56 1011.77 1254.29 1032.6 1225.43 1063.17C1202.09 1087.91 1188.96 1114.82 1186.55 1143.43C1181.09 1207.14 1210.46 1262.42 1272.8 1309.01C1320.88 1344.9 1378.43 1372.09 1447.7 1387.94C1489.09 1397.36 1531.87 1402.27 1575.94 1403.9C1660.27 1406.98 1740.33 1393.77 1817.99 1370.72C1908.49 1343.8 1989.22 1307.02 2062.92 1262.7C2142.38 1214.99 2211.05 1161.05 2272.99 1103.3C2330.27 1049.86 2380.86 993.837 2429.71 937.105C2463.44 897.867 2497.71 858.867 2532.51 820.018C2552.03 798.146 2573.96 777.213 2600.06 758.451C2616.48 746.567 2634.25 735.669 2654.47 726.581C2704.06 704.253 2755.54 701.282 2808.37 716.734C2825.01 721.666 2841.03 727.497 2857.56 732.957C2858.36 751.142 2859.68 781.073 2860 788.208C2851.06 785.115 2835.98 779.853 2826.92 776.853C2779.58 760.81 2731.3 762.07 2682.47 777.478C2648.4 788.224 2620.47 804.364 2595.69 823.156C2566.08 845.648 2540.09 869.811 2515.58 894.693C2479.12 931.611 2443.72 968.83 2408.06 1006.06C2351.19 1065.59 2291.1 1123.6 2224.17 1178.6C2148.26 1241.06 2063.67 1297.63 1967.58 1346.5C1914.14 1373.62 1857.38 1397.05 1795.63 1414.51C1743.74 1429.18 1690.05 1438.88 1634.37 1442.03C1565.97 1445.84 1500.5 1438.62 1438.16 1421.93C1355.62 1399.86 1285.58 1366.42 1232.26 1318.91C1196.71 1287.26 1171.52 1252.2 1159.02 1213.08C1145.32 1170.53 1148.7 1128.1 1171.55 1086.38C1200.47 1033.41 1255.37 997.507 1335.32 978.807C1356.9 973.757 1378.91 969.385 1400.2 963.737C1467.83 945.669 1506.4 911.884 1516.8 864.871C1527.75 815.219 1503.08 774.287 1447.3 742.489C1411.73 722.265 1369.32 710.539 1323.69 703.4C1274.09 695.652 1223.48 694.748 1172.4 697.963C1101.01 702.51 1032.78 715.898 967.213 736.229C861.741 768.958 770.502 814.658 691.457 871.764C640.796 908.35 595.918 947.993 553.589 988.831C478.824 1068.5 413.296 1128.32 332.884 1124.72C282.742 1122.49 236.435 1103 171.253 1069.53C85.1056 1025.3 -12.5216 967.974 -126.78 920.712C-127.571 902.788 -128.366 884.777 -129.162 866.766Z" fill="#B92454"/>
<path d="M-153.911 306.253C-1.39481 238.318 61.865 234.217 86.1901 234.799C112.485 235.382 134.697 241.637 152.843 253.999C169.637 265.463 179.979 279.565 188.128 294.549C198.138 313.024 204.246 332.37 208.916 351.866C214.58 376.026 219.203 400.406 225.65 424.445C239.16 474.586 262.024 522.397 302.023 565.615C324.783 590.24 352.163 612.395 386.702 630.136C417.078 645.795 451.161 656.146 490.299 659.038C514.809 660.833 539.327 659.837 563.891 656.922C613.279 650.992 660.034 638.989 705.795 625.286C815.589 592.279 925.109 559.022 1034.76 525.847C1083.76 511.042 1132.76 496.412 1180.07 479.067C1225.7 462.318 1268.99 443.32 1306.8 419.071C1343.71 395.384 1375.65 369.128 1404.09 340.934C1421.58 323.51 1438 305.698 1455.09 288.118C1473.31 269.442 1493 251.398 1515.92 235.042C1531.97 223.611 1549.24 213.258 1569.92 205.545C1585.29 199.81 1600.38 196.528 1615.2 195.874C1682.32 192.91 1733.05 220.485 1789.88 296.698C1874.35 410.049 1952.74 605.878 1959.84 766.584C1961.25 798.516 1960.69 830.536 1961.18 862.422C1961.55 882.631 1962.97 902.881 1971.44 922.209C1973.92 927.94 1977.85 933.434 1982.27 938.556C1988.5 945.692 1998.62 948.732 2011.47 948.252C2025.37 947.725 2038.25 944.89 2050.39 940.343C2073.01 932.021 2092.22 920.799 2109.65 908.172C2139.45 886.806 2164.27 862.956 2187.21 838.23C2226.47 796.133 2256.53 751.216 2282.61 705.167C2305.14 665.29 2323.71 624.63 2342.14 583.888C2359.48 545.461 2377.9 507.335 2402.14 470.347C2420.48 442.424 2441.62 415.511 2469.17 390.931C2484.33 377.359 2501.11 364.674 2519.38 353.057C2610.47 295.158 2704.29 239.406 2805.45 189.431C2812.65 185.887 2824.49 180.308 2832.73 176.544C2832.82 178.633 2834.2 209.869 2834.29 211.957C2750.63 247.821 2669.81 291.579 2595.44 335.575C2576.24 346.885 2557.04 358.194 2538.23 369.66C2499.48 393.341 2470.92 421.802 2447.46 452.74C2422.76 485.302 2404.17 519.426 2387.44 553.903C2364.92 600.23 2343.2 646.61 2320.28 692.78C2297.12 739.398 2270.51 785.208 2238.05 829.534C2209.81 868.094 2177.42 904.919 2137 938.611C2107.74 963.005 2075.37 985.358 2037.98 1004.36C2015.12 1016.09 1990.87 1026.23 1963.28 1031.89C1954.04 1033.78 1944.24 1034.91 1934.66 1035.25C1913.68 1035.91 1899.85 1029.2 1893.23 1016.07C1888.18 1005.92 1887.71 995.301 1888.29 984.552C1889.51 964.622 1895.21 945.016 1898.94 925.236C1904.67 894.471 1910.93 863.769 1915.09 832.898C1919.14 802.73 1918.47 772.596 1916.87 742.502C1915.24 711.451 1910.99 680.69 1904 650.138C1880.38 540.725 1768.46 278.726 1605.9 297.673C1499.18 307.966 1444.04 427.569 1124.59 522.578C1061.05 541.076 996.808 558.646 933.835 578.165C848.182 604.614 763.516 632.589 678.426 659.884C644.884 670.694 611.065 681.167 575.53 688.49C548.717 694.033 521.554 697.586 493.739 698.291C444.935 699.575 401.688 689.889 362.787 671.556C330.46 656.333 304.264 637.177 281.006 616.147C235.455 575.093 204.011 529.317 185.007 479.68C176.547 457.649 170.563 435.159 163.537 412.89C156.516 390.708 148.978 368.723 135.714 347.95C128.66 336.928 120.055 326.498 108.093 317.349C86.3381 300.613 58.3976 292.518 24.4447 294.018C-45.3116 296.749 -148.333 340.355 -152.355 341.492C-152.873 329.745 -153.392 317.999 -153.911 306.253Z" fill="#F44C7F"/>
<path d="M-107.276 1362.37C37.7988 1390.66 205.646 1512.27 375.64 1617.05C541.181 1719.15 709.955 1805.24 770.817 1779.54C856.432 1743.33 666.884 1606.2 653.793 1309.76C655.181 1240.04 671.342 1171.76 710.992 1105.94C730.206 1074.05 754.215 1043.7 785.697 1015.98C803.902 999.921 824.535 985.323 848.824 973.178C866.299 964.386 885.038 957.456 906.299 954.076C932.514 949.868 949.269 957.497 953.068 975.114C955.041 984.093 954.781 993.084 953.469 1002.03C949.223 1030.82 944.322 1059.63 940.208 1088.4C935.792 1119.29 933.871 1150.14 937.07 1180.95C951.873 1352.56 1128.59 1481.63 1252.17 1543.82C1331.3 1583.66 1418.04 1614.7 1510.17 1639.66C1593.92 1662.38 1680.34 1680.1 1767.97 1695.49C1864.87 1712.4 1963.07 1726.28 2061.27 1739.99C2127.75 1749.26 2194.23 1758.79 2260.72 1768.15C2284.64 1771.45 2308.89 1773.34 2333.67 1772.42C2376.15 1770.72 2406.52 1756.39 2427.24 1731.94C2440.35 1716.45 2447.36 1699.67 2452.11 1682.46C2458.8 1658.36 2460.35 1634.06 2459.68 1609.76C2459 1588.43 2457.01 1567.25 2456.33 1545.92C2455.36 1514.93 2455.56 1483.88 2461.55 1452.85C2468.38 1417.24 2487.84 1384.91 2518.57 1355.04C2547.54 1327 2582.33 1302.79 2621.56 1281.1C2646.69 1267.17 2672.51 1254 2701.07 1243.33C2733.89 1231.07 2768.35 1223.18 2805.72 1221.79C2828.67 1220.95 2857.95 1223.67 2879.19 1228.92C2879.96 1246.32 2880.74 1263.9 2881.53 1281.82C2859.92 1280.34 2759.06 1277.64 2704.57 1298.97C2650.22 1320.28 2605.23 1348.6 2570.27 1383.62C2543.47 1410.43 2528.49 1439.95 2522.52 1471.42C2516.11 1504.66 2516.01 1537.97 2516.94 1571.14C2518.03 1607.53 2517.92 1643.89 2514.8 1680.3C2512.75 1705.15 2509.64 1729.96 2500.08 1754.26C2495.48 1766.15 2489.16 1777.68 2479.78 1788.38C2469.66 1800.07 2456.91 1808.91 2441.68 1814.99C2428 1820.48 2375.63 1839.09 2260.84 1806.68C2196.51 1789.55 2131.93 1772.7 2064.44 1761.21C2006.61 1751.38 1948.41 1742.36 1890.47 1732.97C1784.5 1715.86 1679.5 1696.78 1577.39 1671.83C1493.35 1651.3 1412.16 1627.16 1335.8 1596.45C1228.69 1553.4 1136.6 1499.5 1062.19 1432.52C983.341 1363.2 930.364 1293.8 910.412 1184.05C897.792 1115.38 914.727 1031.9 884.906 1016.92C864.125 1007.37 795.235 1020.79 715.991 1144.77C699.43 1177.24 689.211 1210.55 683.48 1244.37C679.085 1269.76 677.573 1295.02 678.688 1320.25C691.897 1619.39 989.817 1798.38 880.462 1859.18C785.976 1911.65 555.516 1770.13 339.676 1635.47C161.12 1524.18 -3.05991 1420.19 -104.99 1414.14C-105.751 1396.91 -106.515 1379.6 -107.276 1362.37Z" fill="#F44C7F"/>
<path d="M-115.883 1167.47C-55.6681 1180.68 90.1386 1240.41 174.588 1290.82C205.751 1309.4 235.887 1328.56 266.667 1347.43C305.008 1370.93 344.748 1393.41 389.297 1411.76C400.802 1416.48 412.815 1420.83 425.322 1424.46C433.172 1426.73 442.02 1427.82 450.719 1428.48C467.325 1429.76 481.186 1425.39 492.373 1416.97C499.873 1411.32 505.098 1404.72 509.387 1397.73C518.457 1383.04 523.291 1367.57 527.338 1352.13C538.367 1310.41 548.344 1268.65 560.299 1227.06C577.616 1167.1 603.539 1108.68 642.042 1052.58C675.983 1003.22 718.888 957.557 774.778 917.428C831.427 876.655 896.426 843.534 972.794 820.982C1009.36 810.213 1047.11 802.444 1086.81 800.342C1119.05 798.657 1150.28 800.939 1179.44 809.851C1185.56 811.76 1191.7 813.843 1197.33 816.385C1222.79 827.901 1232.45 847.264 1223.23 867.461C1218.19 878.319 1209.42 887.86 1199.04 896.775C1185.24 908.63 1170.91 920.161 1157.12 932.016C1127.12 957.576 1099.26 984.088 1077.16 1012.96C1049.21 1049.42 1032.13 1087.83 1026.16 1128.11C1016.74 1191.56 1033.45 1251.67 1070 1309.08C1102.75 1360.46 1150.16 1405.09 1208 1444.82C1283.45 1496.59 1372.76 1535.1 1472.41 1563.83C1575.12 1593.47 1683.1 1611.63 1795.03 1621.15C1835.77 1624.59 1876.91 1625.3 1918.14 1624.87C1944.4 1624.67 1970.64 1623.95 1996.92 1621.31C2022.82 1618.77 2048.25 1614.77 2072.35 1607.25C2104.88 1597.18 2128.49 1581.58 2142.75 1559.59C2153.82 1542.54 2160.65 1524.8 2166.83 1506.92C2173.92 1486.12 2179.96 1465.28 2189.83 1444.88C2207.77 1408 2234.9 1373.93 2267.63 1341.71C2293.69 1316.15 2322.7 1291.94 2352.25 1268.14C2397.79 1231.44 2443.05 1194.65 2491.41 1159.56C2534.69 1128.19 2580.26 1098.36 2630.18 1071.66C2663.92 1053.52 2700.57 1038.74 2741.67 1029.6C2773.28 1022.63 2805.2 1019.56 2837.34 1024.77C2847.4 1026.41 2860.95 1030 2870.65 1032.36C2870.85 1037.06 2872.08 1064.73 2872.75 1079.96C2839.06 1072.55 2815.53 1069.14 2787.53 1071.6C2744.87 1075.23 2705.79 1085.67 2669.59 1101.66C2638.54 1115.41 2609.95 1131.05 2582.71 1147.95C2507.93 1194.49 2437.74 1243.88 2374.97 1297.74C2342.95 1325.22 2314.14 1353.87 2291.75 1385.28C2268.5 1417.95 2253.71 1451.91 2248.85 1487.61C2246.17 1507.25 2243.36 1526.91 2240.16 1546.49C2238.08 1558.96 2234.16 1571.25 2228.65 1583.35C2213.91 1615.47 2182.39 1636.39 2133.96 1646.11C2110.53 1650.81 2086.73 1653.26 2062.62 1654.58C2010.2 1657.33 1958.14 1656.32 1906.25 1653.12C1805.63 1646.93 1706.97 1634.72 1610.66 1616.13C1481.5 1591.24 1363.91 1551.79 1260.67 1495.33C1204.41 1464.6 1153.9 1430.21 1111.82 1390.48C1061.24 1342.68 1028.04 1289.74 1012.33 1231.5C1003.85 1200.15 999.564 1168.43 1002.22 1136.32C1005.66 1095.28 1020.46 1055.74 1045.71 1017.66C1066.52 986.232 1091.99 956.338 1119.47 927.14C1128.5 917.5 1137.39 907.692 1145.22 897.582C1152.55 888.018 1156.69 877.809 1156.22 867.107C1155.45 849.618 1142.59 837.981 1117.91 832.445C1099.34 828.296 1080.16 828.097 1060.64 829.221C1007.18 832.366 957.657 844.055 911.055 862.503C843.801 889.185 788.483 924.407 742.66 966.446C685.982 1018.47 645.019 1075.37 618.167 1136.54C528.161 1364.82 618.535 1475.04 522.749 1506.99C433.826 1536.72 309.052 1426.81 147.86 1322.07C85.7746 1287.33 6.47157 1240.44 -113.723 1213.41C-114.523 1198.27 -115.203 1182.87 -115.883 1167.47Z" fill="#F44C7F"/>
<path d="M-146.622 471.396C2.2116 453.927 33.2674 562.314 86.8698 628.033C134.25 686.705 181.703 729.158 255.782 773.747C273.728 784.55 293.448 793.879 315.185 801.288C365.059 818.265 417.526 819.61 471.95 808.75C507.492 801.601 540.351 790.212 571.684 776.972C609.849 760.815 647.464 744.072 685.625 727.828C754.985 698.262 825.867 670.461 899.525 646.023C984.831 617.672 1073 594.686 1163.9 576.898C1234.87 563.041 1306.01 549.961 1377.13 536.533C1408 530.724 1438.73 524.572 1469.61 518.85C1497.61 513.603 1525.96 510.084 1554.78 508.289C1608.62 505.039 1654.13 515.322 1690.98 540.807C1715.23 557.521 1733.03 577.047 1747.36 598.122C1770.54 632.319 1788 667.814 1796.62 705.182C1814.82 784.321 1806.58 862.449 1764.14 939.384C1740.91 981.384 1708.47 1020.3 1669.78 1057.15C1657.04 1069.21 1643.11 1080.81 1630.11 1092.81C1620.39 1101.7 1610.67 1110.67 1601.89 1120.03C1593.24 1129.31 1587.24 1139.34 1586.68 1150.35C1586.06 1160.05 1589.59 1168.79 1598.08 1176.52C1609.16 1186.58 1623.91 1193.43 1641.32 1197.98C1665.1 1204.16 1690.15 1206.11 1715.73 1205.5C1785.28 1204 1850.92 1191.25 1913.41 1169.83C1981.6 1146.51 2040.63 1115.04 2093.92 1078.43C2159.95 1032.97 2213.37 981.53 2258.21 926.197C2300.31 874.123 2334.69 819.948 2364.43 764.584C2388.33 719.939 2410.64 674.929 2433.88 630.139C2485.48 534.491 2535.79 475.08 2592.33 437.799C2678.11 381.355 2780.66 348.058 2839.7 340.481C2839.89 344.745 2842.08 394.427 2842.33 399.996C2687.97 405.417 2591.64 463.635 2545.39 516.851C2520.65 542.615 2501.51 570.224 2483.97 598.286C2454.76 644.909 2429.54 692.402 2403.66 739.75C2377.41 787.811 2351.03 835.878 2319.73 882.68C2275.5 948.884 2220.85 1011.19 2151.37 1067.7C2098.37 1110.75 2038.17 1148.54 1967.38 1178.43C1904.85 1204.91 1837.77 1223.65 1766.12 1234.05C1717.57 1241.07 1668.8 1243.32 1620.21 1237.44C1591.29 1234.01 1564.09 1227.71 1539.08 1217.66C1528.12 1213.26 1517.91 1208.13 1509.09 1201.9C1483.88 1184.09 1479.77 1162.48 1497.17 1140.09C1504.63 1130.52 1514.37 1122.07 1525.86 1114.59C1540.16 1105.32 1555 1096.39 1569.71 1087.37C1658.83 1032.26 1722.28 967.212 1750.87 888.796C1766.92 844.672 1771.13 800.199 1764.56 755.505C1759.26 718.95 1746.81 683.843 1724.59 650.563C1715.45 636.931 1704.63 623.983 1691.75 611.911C1659.27 581.177 1614.36 563.632 1557.91 558.365C1525.86 555.422 1493.55 555.454 1461.22 557.928C1422.6 560.853 1383.98 563.779 1345.55 568.004C1195.48 584.308 1050.13 612.173 912.258 657.753C848.305 678.885 787.541 703.799 728.43 730.471C678.465 753.077 629.191 776.437 579.639 799.461C545.275 815.45 509.809 830.268 471.709 841.976C449.677 848.703 426.77 853.463 402.815 855.305C367.073 857.93 333.634 853.217 302.301 842.657C282.704 836.112 265 827.827 247.67 819.09C-5.49546 677.968 12.4428 539.869 -143.898 533.086C-144.805 512.552 -145.711 492.018 -146.622 471.396Z" fill="#F44C7F"/>
<path d="M-134.511 745.65C13.4263 814.963 212.767 986.446 359.721 979.956C455.287 975.736 519.527 916.495 624.086 851.201C668.021 822.933 712.77 795.239 761.736 770.846C825.351 739.093 892.008 710.781 964.466 688.925C1025.52 670.537 1088.63 657.201 1153.94 648.825C1205.66 642.182 1257.75 637.964 1310.15 637.829C1372.01 637.626 1432.26 642.811 1489.04 658.524C1536.91 671.754 1577.05 691.514 1606.04 720.311C1628.84 742.929 1641.65 768.256 1646.66 795.496C1652.33 825.671 1650.78 855.904 1639.76 886.031C1625.94 924.041 1597.45 957.032 1559.1 986.797C1540.81 1000.94 1520.34 1013.35 1497.17 1023.97C1473.35 1034.87 1446.96 1041.18 1419.88 1046.65C1401.27 1050.43 1382.52 1054.23 1364.34 1058.95C1312.66 1072.48 1283.87 1098.6 1274.27 1133.98C1266.47 1162.57 1274.62 1189.67 1292.17 1215.22C1320.81 1256.94 1367.33 1287.31 1428.4 1307.98C1470.54 1322.25 1515.94 1330.18 1563.38 1333.75C1649.7 1340.14 1733.73 1330.59 1815.83 1309.88C1924.69 1282.4 2019.36 1240.04 2102.05 1185.21C2165.73 1143.08 2219.61 1095.98 2267.7 1045.82C2320.94 990.38 2366.32 932.32 2407.56 872.874C2437.57 829.703 2466.79 786.392 2496.94 743.302C2514.98 717.66 2534.36 692.394 2556.93 668.207C2572.86 651.201 2590.67 635.072 2612.24 620.868C2632.53 607.505 2655.03 596.399 2682.08 590.409C2746.1 573.721 2820.94 596.918 2851.82 611.945C2851.94 614.642 2854.47 671.981 2854.56 673.982C2796.54 651.001 2766.98 647.86 2746.31 646.855C2713.8 645.326 2683.69 650.666 2655.43 662.027C2631.56 671.625 2611.76 684.355 2593.86 698.397C2566.82 719.642 2544.2 742.871 2524.53 767.279C2500.5 797.196 2477.41 827.508 2454.05 857.744C2411.55 912.626 2368.52 967.356 2320.56 1020.39C2272.59 1073.33 2220.19 1124.12 2158.68 1170.86C2097.3 1217.51 2028.85 1258.8 1951.02 1292.84C1883.11 1322.51 1810.28 1344.73 1731.92 1357.96C1683.81 1366.1 1635.13 1370.17 1585.96 1369.11C1506.29 1367.31 1432.27 1353.93 1366.87 1324.47C1300.27 1294.55 1255.39 1253.73 1234.82 1201.45C1221.51 1167.69 1221.98 1133.76 1240.98 1099.97C1249.63 1084.68 1262.29 1070.87 1279.22 1058.79C1303.42 1041.68 1332.51 1031.06 1366.86 1026.85C1388.16 1024.25 1409.6 1021.99 1430.26 1016.98C1485.5 1003.65 1527.38 979.48 1558.5 946.547C1582.72 920.98 1596.33 893.092 1602.78 863.69C1608.69 836.839 1607.52 810.388 1596.79 784.534C1579.44 742.496 1541.41 711.221 1485.16 689.731C1448.16 675.586 1407.61 667.612 1365.37 662.939C1303.87 656.153 1241.9 656.797 1179.64 662.859C1031.08 677.44 898.65 718.421 778.804 779.595C721 809.086 668.489 842.44 618.692 877.767C532.089 936.253 469.82 1019.29 353.803 1024.42C197.017 1031.34 32.1688 888.411 -131.741 808.383C-132.663 787.501 -133.585 766.619 -134.511 745.65Z" fill="#F44C7F"/>
<path d="M-124.444 973.614C122.257 1057.57 233.578 1172.18 359.102 1171.17C454.34 1168.44 490.009 1086.84 553.548 1023.62C605.095 965.459 664.156 910.892 735.3 862.243C785.282 828.129 840.171 798.069 902.031 774.153C963.886 750.15 1029.17 732.359 1098.61 722.493C1165.05 713.02 1231.34 712.185 1296.8 722.197C1335.95 728.227 1372.25 738.306 1403.59 754.968C1436.94 772.675 1459.61 795.212 1467.05 823.74C1477.5 864.252 1458.93 898.637 1409.42 925.669C1393.39 934.397 1375.28 940.776 1356.89 946.732C1339.28 952.392 1321.39 957.802 1303.78 963.549C1261.18 977.461 1223.37 995.694 1192.8 1020.23C1156.52 1049.38 1135.14 1082.85 1125.73 1119.44C1113.05 1168.56 1122.37 1215.84 1147.89 1261.44C1176.7 1312.99 1223.01 1356.46 1285.01 1392.16C1361.42 1436.04 1449.54 1465.37 1549.94 1478.45C1600.28 1485.04 1651.13 1485.58 1702.36 1479.74C1760.39 1473.08 1814.24 1458.33 1864.4 1437.11C1910.82 1417.53 1953.41 1394.56 1994.77 1370.41C2050.99 1337.59 2102.19 1301.5 2152.05 1264.52C2271.85 1175.62 2379.84 1080.8 2479.62 981.803C2508.56 953.064 2538.84 924.876 2573.15 898.689C2594.62 882.223 2617.45 866.743 2643.25 853.225C2657.37 845.801 2672.32 839.126 2688.5 833.791C2724.48 821.74 2761.78 818.698 2800.11 824.067C2820.59 826.911 2843.86 833.381 2862.27 839.804C2862.54 845.895 2865.13 887.221 2865.28 890.788C2848.35 884.998 2821.51 877.522 2803.03 875.287C2766.06 870.904 2730.39 875.269 2696.06 886.113C2666.01 895.548 2639.93 908.904 2616.31 924.332C2598.44 936.018 2581.25 948.198 2564.72 960.697C2513.76 999.301 2466.96 1040.08 2421.1 1081.33C2334.32 1159.61 2241.49 1234.59 2144.35 1307.23C2088.78 1348.82 2032.55 1390.02 1976.31 1431.21C1956.08 1446.05 1933.83 1459.67 1910.21 1472.13C1849.49 1504.02 1781.25 1520.29 1705.28 1522.07C1632.98 1523.78 1563.78 1515.33 1496.52 1500.08C1411.47 1480.82 1334.69 1452.39 1268.69 1412.24C1205.52 1373.79 1156.89 1328.34 1125.5 1274.89C1106.47 1242.52 1096.04 1208.63 1093.96 1173.5C1090.43 1114.37 1113.64 1059.91 1169.03 1011.52C1196.98 987.096 1231.17 967.191 1269.99 950.831C1287.52 943.431 1305.61 936.53 1323.28 929.298C1343.92 920.802 1363.88 911.726 1380.98 900.248C1398.83 888.213 1411.76 874.479 1416.01 857.814C1419.49 844.322 1416.69 831.456 1410.74 818.816C1398.99 793.617 1375.43 774.694 1342.24 760.816C1319.23 751.196 1293.99 744.9 1267.42 740.93C1220.35 733.855 1172.51 733.265 1124.21 737.141C1049.34 743.063 980.406 761.364 914.937 786.834C804.922 829.702 716.049 887.329 644.937 957.51C492.146 1105.49 489.055 1249.64 349.723 1232.43C235.248 1218.92 45.9139 1065.82 -122.254 1023.21C-122.984 1006.68 -123.714 990.145 -124.444 973.614Z" fill="#F44C7F"/>
</g>
</svg>
