<svg width="165" height="165" viewBox="0 0 165 165" fill="none" xmlns="http://www.w3.org/2000/svg">
<path d="M27.1429 25.56C28.4329 25.56 29.7629 25.61 31.1129 25.68C44.9929 13.56 63.1529 6.21 83.0429 6.21C105.743 6.21 126.203 15.79 140.613 31.13C141.863 26.06 138.053 19.39 128.953 13.42C115.693 4.92 99.9429 0 83.0429 0C59.0729 0 37.4229 9.9 21.9429 25.84C23.0329 25.71 24.1429 25.63 25.2529 25.59C25.8829 25.57 26.5129 25.56 27.1429 25.56Z" fill="#00C9F5"/>
<path d="M82.2529 58.9901C78.2729 59.3201 74.8529 62.0701 74.6129 65.1301C74.3729 68.1901 77.4029 70.4101 81.3829 70.0901C85.3629 69.7601 88.7829 67.0201 89.0229 63.9501C89.2629 60.8901 86.2329 58.6701 82.2529 58.9901Z" fill="#00C9F5"/>
<path d="M119.953 58.6701C128.913 58.3001 136.643 55.9501 141.913 52.0701C145.773 49.2301 148.323 45.5701 149.043 41.2601C149.883 36.2601 148.153 31.0801 144.513 26.3101C145.363 28.6401 145.633 31.0201 145.243 33.3501C143.843 41.5701 134.493 46.9101 122.363 47.3701C92.623 48.4701 51.4029 30.9501 25.4529 31.7201C17.5929 31.9701 10.4429 34.8901 5.73295 39.7201C3.31295 42.2001 1.53295 45.1801 0.632947 48.5701C-0.0870532 51.3001 -0.177053 54.0601 0.282947 56.7601C1.11295 61.8301 5.48295 66.6001 11.9729 67.9601C14.2529 68.4401 16.5629 68.3601 18.4929 67.9601C14.5929 65.2501 12.2629 61.5301 12.4629 57.5501C12.7129 52.6901 16.6829 48.6301 22.4429 46.5001C24.8629 45.6001 27.6029 45.0501 30.5129 44.9201C56.7629 44.0001 90.0229 59.9101 119.953 58.6701Z" fill="#00C9F5"/>
<path d="M158.843 64.1701L160.813 54.4801C161.163 53.0201 161.963 51.0801 164.403 50.2901L164.543 49.5801L157.733 50.3601C151.543 51.0601 147.343 57.2001 146.193 62.9101L145.633 65.6901L141.583 66.1501L140.373 72.1301L144.423 71.6601L140.143 92.7401C139.973 93.6801 139.883 94.5701 139.853 95.4101C138.533 96.8401 137.013 98.0001 135.453 98.6301C131.673 100.18 129.193 98.0701 129.923 93.9101H129.913L133.063 78.4101C133.443 76.4101 133.243 74.5601 132.733 72.9801C131.923 70.4401 130.143 68.5701 127.703 67.7101C126.263 67.2001 124.613 67.0401 122.783 67.3101C118.083 68.0001 114.313 70.5601 111.773 74.0001C111.323 74.6201 110.893 75.2501 110.523 75.9201C110.323 74.0201 109.713 72.3601 108.373 71.3501C107.293 70.5201 105.973 70.2101 104.913 70.3301L96.663 71.2801L96.523 71.9901C96.693 72.0001 96.853 71.9901 97.003 72.0001C97.453 72.0301 97.773 72.2101 98.013 72.4701C98.173 72.6501 98.293 72.8601 98.373 73.1001C98.793 74.3101 98.413 76.1801 98.263 76.9601L93.623 99.8301C92.143 101.71 90.273 103.27 88.373 104.05C84.593 105.6 82.113 103.49 82.843 99.3401H82.833L85.583 85.7901C86.443 81.5501 86.893 76.3701 84.003 74.1701C82.913 73.3501 81.6031 73.0301 80.543 73.1501L72.293 74.1001L72.153 74.8101C74.943 74.4701 74.163 78.4401 73.903 79.7201L69.623 100.84H69.633C69.533 101.41 69.463 101.95 69.413 102.48C67.913 104.42 66.003 106.04 64.053 106.84C60.273 108.39 57.793 106.28 58.513 102.13L64.163 74.3101C65.023 70.0701 65.473 64.8901 62.583 62.7001C61.493 61.8701 60.183 61.5601 59.123 61.6801L50.873 62.6301L50.733 63.3401C53.503 63.0101 52.753 66.9201 52.493 68.2201L52.483 68.2801C52.483 68.2701 52.493 68.2501 52.493 68.2401L45.313 103.64C44.393 108.9 45.583 112.59 48.343 114.43C50.613 115.95 53.963 116.22 58.073 115.05C62.603 113.76 66.513 110.69 69.603 106.84C70.063 108.99 71.113 110.61 72.663 111.64C74.943 113.17 78.283 113.43 82.393 112.26C86.223 111.17 89.613 108.8 92.433 105.76L91.683 109.46L104.903 107.94L110.163 82.0201C111.023 78.7101 113.723 76.0401 115.833 75.1701C118.733 73.9801 120.783 75.5801 120.093 78.7701L116.713 95.4501C115.793 100.71 116.983 104.4 119.733 106.24C122.013 107.76 125.353 108.03 129.463 106.86C133.663 105.66 137.323 102.94 140.293 99.4801C140.823 101.27 141.803 102.64 143.173 103.55C145.443 105.08 148.793 105.34 152.903 104.17C153.263 104.08 153.653 103.95 154.053 103.79C157.443 102.43 161.783 98.6601 162.023 94.1901C160.353 95.9601 158.123 96.4001 156.953 96.4601C156.903 96.4601 156.853 96.4601 156.803 96.4701C156.733 96.4701 156.673 96.4701 156.603 96.4701C154.173 96.4801 152.793 94.5001 153.353 91.2601H153.343L157.623 70.1601L163.633 69.4701L164.843 63.4901L158.843 64.1701Z" fill="#00C9F5"/>
<path d="M154.483 110.08C153.543 110.34 152.633 110.54 151.733 110.69C141.003 138.15 114.263 157.66 83.0429 157.66C57.0429 157.66 34.1329 144.12 21.0129 123.73L20.0229 123.84L13.9629 124.54C27.8929 148.19 53.6129 164.07 83.0429 164.07C118.993 164.07 149.403 140.4 159.553 107.79C158.483 108.47 157.393 109.04 156.323 109.47C155.663 109.73 155.063 109.93 154.483 110.08Z" fill="#00C9F5"/>
<path d="M33.7729 78.5199C33.7729 78.5199 37.4429 60.3199 37.5729 59.7799C37.9229 58.3199 38.7229 56.3799 41.1629 55.5899L41.3029 54.8799L34.4229 55.6699V55.6799C28.2729 56.4199 24.1029 62.5299 22.9429 68.2199L20.5429 80.0399V80.0499L16.4629 80.5199L15.2529 86.4999L19.3329 86.0299L12.7429 118.52L25.9629 117L32.5529 84.5099L43.8529 83.2099L45.0629 77.2299L33.7729 78.5199Z" fill="#00C9F5"/>
<path d="M40.3729 122.54C41.1329 121.77 42.3829 121.77 43.1529 122.53C43.9229 123.29 43.9429 124.54 43.1629 125.32C42.4029 126.09 41.1529 126.09 40.3829 125.33C39.6129 124.58 39.5929 123.33 40.3729 122.54Z" fill="#00C9F5"/>
<path d="M45.283 127.33C46.683 125.41 49.263 124.99 51.263 126.45C52.613 127.43 53.023 128.63 53.013 129.87L50.923 129.93C50.893 129.18 50.663 128.57 50.033 128.11C49.113 127.43 47.883 127.74 47.173 128.72C46.453 129.71 46.533 130.96 47.453 131.63C48.143 132.13 48.773 132.11 49.523 131.92L50.183 133.9C48.933 134.3 47.633 134.32 46.173 133.25C44.293 131.86 43.833 129.32 45.283 127.33Z" fill="#00C9F5"/>
<path d="M52.293 136.57L53.813 135.5C54.003 135.83 54.293 136.05 54.513 136.16C54.693 136.25 54.963 136.3 55.303 136.16L55.103 129.33L57.363 130.44L57.333 134.71L60.603 132.04L62.813 133.13L57.193 137.32C55.873 138.3 54.933 138.5 53.803 137.94C53.103 137.59 52.633 137.11 52.293 136.57Z" fill="#00C9F5"/>
<path d="M65.893 138.3L64.393 133.71L66.893 134.42L67.663 137.02L69.693 135.2L72.143 135.89L68.483 139L70.043 143.78L67.543 143.07L66.703 140.28L64.523 142.23L62.073 141.54L65.893 138.3Z" fill="#00C9F5"/>
<path d="M78.9329 141.64L78.2229 139.25L77.1129 141.49L78.9329 141.64ZM77.3729 136.49L79.5429 136.67L82.3229 145.15L79.9029 144.95L79.4329 143.45L76.2929 143.19L75.5929 144.59L73.2229 144.39L77.3729 136.49Z" fill="#00C9F5"/>
<path d="M88.6729 140.61C89.4729 140.54 89.9229 140.07 89.8629 139.41C89.7929 138.71 89.2729 138.39 88.4629 138.46L87.4029 138.56L87.6029 140.71L88.6729 140.61ZM84.9729 136.88L88.4629 136.56C90.5229 136.37 91.9429 137.3 92.1129 139.13C92.2929 141.05 90.9129 142.2 88.8829 142.38L87.7729 142.48L87.9929 144.8L85.7429 145.01L84.9729 136.88Z" fill="#00C9F5"/>
<path d="M93.793 135.9L95.953 135.32L97.153 139.76L99.003 134.49L101.043 133.94L103.183 141.82L101.023 142.41L99.813 137.97L97.973 143.24L95.933 143.79L93.793 135.9Z" fill="#00C9F5"/>
<path d="M103.583 132.99L105.623 132.01L107.053 134.99L108.163 130.79L110.573 129.63L109.303 134.13L114.203 136.95L111.753 138.12L108.593 136.28L108.243 137.46L109.153 139.37L107.113 140.35L103.583 132.99Z" fill="#00C9F5"/>
<path d="M112.303 128.54L114.113 127.22L116.823 130.94L116.673 125.36L118.373 124.12L123.183 130.72L121.373 132.04L118.663 128.32L118.823 133.9L117.113 135.15L112.303 128.54Z" fill="#00C9F5"/>
<path d="M123.033 125.27C122.273 124.5 122.283 123.25 123.053 122.49C123.823 121.73 125.073 121.73 125.843 122.52C126.603 123.29 126.593 124.54 125.823 125.3C125.063 126.06 123.813 126.06 123.033 125.27Z" fill="#00C9F5"/>
<path d="M66.4731 27.5001L68.8931 24.5101C69.5031 23.7601 69.6831 23.3101 69.5731 22.8301C69.4531 22.3301 69.023 22.1101 68.493 22.2401C67.963 22.3701 67.613 22.7801 67.163 23.6401L65.373 22.7601C65.963 21.4501 66.653 20.6501 68.203 20.2801C69.933 19.8601 71.373 20.6101 71.743 22.1301C72.043 23.4001 71.5631 24.2301 70.5731 25.3501L69.443 26.6301L72.7231 25.8401L73.1531 27.6301L66.8631 29.1501L66.4731 27.5001Z" fill="#00C9F5"/>
<path d="M79.483 22.8404C79.373 21.5504 78.673 20.6604 77.783 20.7404C76.883 20.8204 76.373 21.7704 76.483 23.1004C76.593 24.4004 77.283 25.2804 78.183 25.2004C79.093 25.1204 79.603 24.1604 79.483 22.8404ZM74.223 23.2904C74.023 20.9904 75.323 18.9304 77.643 18.7404C79.953 18.5404 81.563 20.3304 81.763 22.6504C81.963 24.9504 80.673 27.0104 78.343 27.2104C76.013 27.4004 74.413 25.6204 74.223 23.2904Z" fill="#00C9F5"/>
<path d="M89.153 23.0502C89.253 21.7602 88.703 20.7702 87.813 20.7002C86.913 20.6302 86.253 21.4902 86.153 22.8202C86.053 24.1202 86.583 25.1002 87.493 25.1702C88.403 25.2302 89.053 24.3602 89.153 23.0502ZM83.8829 22.6402C84.0629 20.3402 85.673 18.5202 87.993 18.6902C90.313 18.8702 91.603 20.8902 91.423 23.2102C91.253 25.5102 89.643 27.3302 87.323 27.1602C84.993 26.9902 83.7129 24.9702 83.8829 22.6402Z" fill="#00C9F5"/>
<path d="M92.673 25.8502L96.183 24.2602C97.063 23.8602 97.423 23.5402 97.543 23.0602C97.653 22.5602 97.373 22.1702 96.843 22.0502C96.313 21.9302 95.813 22.1402 95.023 22.7102L93.823 21.1202C94.933 20.2102 95.913 19.8002 97.463 20.1602C99.203 20.5602 100.163 21.8702 99.803 23.4002C99.513 24.6702 98.713 25.2002 97.323 25.7602L95.733 26.4002L99.023 27.1602L98.613 28.9602L92.313 27.5102L92.673 25.8502Z" fill="#00C9F5"/>
</svg>
