<svg width="1920" height="748" viewBox="0 0 1920 748" fill="none" xmlns="http://www.w3.org/2000/svg">
<g opacity="0.2">
<path d="M-49.5136 909.593C-33.9527 911.091 26.2062 920.986 118.176 973.654C174.922 1005.21 227.915 1039.17 280.542 1073.37C321.515 1099.94 362.853 1126.23 406.755 1150.93C460.176 1180.94 517.434 1207.62 580.357 1229.32C625.75 1244.96 652.285 1249.73 673.537 1249.56C709.785 1249.27 716.111 1235.13 716.008 1222.43C715.868 1205.15 702.153 1181.54 688.647 1161.06C662.285 1120.91 621.636 1077.4 589.787 1029.98C549.37 969.707 520.219 903.076 519.627 829.894C518.707 715.946 584.945 669.713 622.787 684.601C651.793 699.039 636.275 725.667 664.373 787.086C692.829 858.709 748.073 920.721 830.563 973.06C895.113 1014 969.164 1046.52 1050.71 1072.48C1102.18 1088.88 1155.56 1102.6 1210.03 1114.51C1267.36 1127.1 1325.05 1139.1 1382.65 1151.34C1502.99 1174.14 1618.9 1217.34 1697.23 1233.06C1737.69 1241.2 1766.83 1237.77 1787.53 1226.41C1809.05 1214.64 1812.63 1190.43 1812.3 1149.6C1815.42 1125.98 1786.35 978.619 1878.87 916.574C1931.76 881.177 2022.44 887.519 2046.3 891.618C2046.36 898.809 2046.54 921.946 2046.61 930.587C2039.34 930.181 2031.7 929.605 2024.34 929.317C2004.64 928.49 1985.15 929.517 1966.13 933.209C1936.83 938.897 1914.47 950.444 1898.04 966.64C1884.44 980.031 1853.54 1016 1854.64 1151.87C1862.5 1282.7 1786.41 1281.69 1756.96 1281.29C1733.87 1280.95 1697.45 1272.08 1664.04 1259.13C1610.61 1238.45 1521.13 1198.87 1417.32 1172.16C1372.24 1160.76 1326.25 1150.98 1280.26 1141.14C1216.11 1127.4 1152.79 1112.42 1091.46 1094.3C1028.93 1075.84 969.045 1054.58 913.267 1028.94C845.483 997.703 786.396 961.065 738.661 917.318C635.107 820.263 644.787 754.305 603.035 733.764C587.701 726.233 538.971 741.647 539.745 837.387C540.823 970.819 664.804 1091.02 687.832 1117.11C764.4 1199.36 791.527 1254.47 756.756 1278.18C719.332 1303.65 627.509 1291.92 443.178 1195.17C380.531 1162.04 319.805 1127.5 261.184 1091.56C219.576 1066.09 178.701 1040.15 135.537 1015.73C107.993 1000.06 31.5402 954.868 -49.2054 947.749C-49.308 935.05 -49.411 922.292 -49.5136 909.593Z" fill="#110F74"/>
<path d="M2039.96 95.544C1962.85 128.991 1889.2 168.731 1816.64 205.853C1775.5 226.888 1744.61 252.887 1721.3 282.651C1703.17 305.647 1689.11 329.653 1675.41 353.773C1662.16 377.077 1649.29 400.436 1635.03 423.517C1620.5 446.947 1603.85 469.757 1583.13 491.381C1569.72 505.408 1554.47 518.638 1535.7 529.982C1529.38 533.802 1522.6 537.279 1515.63 540.641C1510.32 543.177 1504.26 544.85 1497.64 545.773C1487.81 547.129 1479.61 545.513 1473.04 540.753C1467.95 537.14 1464.78 532.816 1462.17 528.314C1456.67 518.848 1453.92 509.011 1451.81 499.053C1447.7 479.949 1443.87 460.784 1439.85 441.679C1436.69 426.453 1433.44 411.169 1430.1 395.944C1424.56 370.994 1416.17 346.472 1406.59 322.019C1389.87 279.471 1368.74 237.771 1346.42 196.313C1332.69 170.907 1318.86 145.56 1304.03 120.453C1296.76 108.159 1287.46 96.2876 1278.35 84.4727C1274.26 79.1704 1268.79 74.1112 1263.05 69.4022C1240.54 50.9684 1209.4 46.1165 1175.42 53.0023C1163.11 55.4794 1151.92 59.3973 1141.28 64.0647C1120.74 73.0455 1103.54 84.1451 1087.81 96.2767C1068.7 111.045 1052.55 127.124 1036.67 143.316C1022.98 157.287 1009.39 171.373 995.143 185.116C977.89 201.842 958.326 217.426 934.698 230.839C911.526 243.958 885.945 254.894 858.974 264.507C818.425 279.042 776.201 291.156 733.14 302.232C674.93 317.143 616.532 331.591 556.921 344.077C528.632 349.989 499.966 354.86 470.549 357.881C414.012 363.615 365.447 353.917 325.218 328.319C303.024 314.232 286.696 297.604 273.762 279.557C258.222 257.877 247.551 235.23 243.127 211.547C241.302 201.993 240.396 192.315 239.214 182.698C237.048 165.144 235.342 147.586 232.533 130.095C230.398 116.368 226.148 102.774 218.498 89.787C214.487 83.0342 209.467 76.5796 202.336 70.8379C188.537 59.6408 170.183 53.9898 147.821 53.4745C128.128 52.9957 86.4812 56.8117 -56.241 110.912C-56.2962 104.069 -56.3515 97.2267 -56.4068 90.384C-20.4506 76.8132 42.1638 48.9928 91.2496 32.0683C110.609 25.4167 130.806 19.9762 152.496 17.0753C167.016 15.1023 181.731 14.4035 196.462 15.6763C215.521 17.3781 230.474 23.3465 241.594 33.1155C251.23 41.5626 256.92 51.1434 261.048 61.0848C265.645 72.0663 268.129 83.3548 269.692 94.6508C272.617 115.099 272.876 135.684 273.686 156.207C274.834 184.44 280.302 212.232 294.136 239.145C304.044 258.319 317.53 276.304 337.072 292.326C358.837 310.128 386.085 323.304 420.822 329.692C442.844 333.748 465.301 334.726 488.201 333.613C524.253 331.872 558.984 326.025 592.964 318.443C654.221 304.842 714.733 290.087 773.753 272.908C800.648 265.094 826.705 256.242 851.279 245.837C890.798 229.164 922.826 207.738 950.324 183.449C969.233 166.71 985.467 149.007 1002.25 131.416C1019.95 112.773 1037.84 94.2447 1058.76 76.9098C1081.43 58.111 1107.24 41.3745 1138.6 28.1888C1157.76 20.147 1177.86 13.1995 1200.37 9.42213C1213.41 7.22899 1226.56 6.19489 1240.09 6.95547C1258.13 8.02757 1273.08 12.8362 1285.2 21.1473C1294.54 27.625 1301.23 35.11 1306.81 43.0679C1315.56 55.5817 1321.92 68.6946 1327.64 81.8708C1351.27 136.715 1378.67 190.891 1404.31 245.313C1424.53 288.238 1442.09 331.591 1457.99 375.247C1464.2 392.363 1470.04 409.539 1476.44 426.653C1479.82 435.789 1484.22 444.8 1490.45 453.333C1492.97 456.734 1495.85 460.075 1499.09 463.238C1501.22 465.366 1504 467.316 1506.96 469.09C1515 473.838 1524.49 474.979 1534.96 472.575C1542.58 470.832 1548.99 467.822 1554.86 464.353C1563.28 459.356 1570.32 453.674 1576.71 447.591C1595.61 429.692 1612.11 410.885 1625.11 391.005C1639.37 369.142 1652.81 347.054 1666.53 325.022C1677.24 307.77 1688.61 290.744 1701.26 273.998C1724.75 243.014 1758.21 216.995 1799.99 195.142C1826.47 181.242 1853.31 167.571 1880.07 153.843C1917.27 134.81 1954.37 115.721 1991.85 96.8605C2005.51 89.965 2030.8 78.2781 2039.43 75.0188L2039.59 95.5469C1962.49 128.994 1888.84 168.734 1816.27 205.855" fill="#110F74"/>
<path d="M-51.6652 643.191C100.12 685.923 205.72 797.17 298.293 799.264C385.688 798.094 373.165 717.005 484.057 606.387C523.484 566.923 573.173 533.582 633.864 506.879C675.945 488.329 721.932 475.141 772.11 468.125C805.011 463.51 838.212 462.024 871.627 464.131C893.903 465.517 915.551 468.822 935.66 475.213C955.861 481.661 972.402 490.632 982.26 503.717C993.513 518.53 992.436 533.269 978.658 547.472C972.179 554.136 963.668 559.772 953.861 564.432C939.38 571.277 924.621 577.891 909.675 584.275C855.945 607.094 817.364 637.388 794.856 675.613C779.88 701.019 775.675 727.208 779.204 753.972C782.142 776.043 789.123 797.444 801.894 818.045C822.776 851.744 853.379 881.653 893.426 907.484C966.674 954.678 1053.7 987.379 1155.77 1003.66C1193.45 1009.68 1231.75 1013.08 1270.85 1012.53C1295.14 1012.16 1319.13 1010.17 1342.65 1005.81C1369.38 1000.83 1391.85 991.664 1410.05 978.585C1421.21 970.608 1431.91 962.228 1441.59 953.451C1482.51 916.295 1527.31 881.022 1574.88 847.176C1647.15 795.848 1719.69 744.634 1792.24 693.421C1814.29 677.875 1837.07 662.728 1862.26 649.071C1881.04 638.828 1900.93 629.621 1923.7 623.231C1944.08 617.499 1965.12 614.314 1987.57 614.77C2007.26 615.191 2027.45 619.842 2044.34 625.852C2044.38 631.303 2044.47 654.036 2044.5 657.167C2021.35 650.627 1997.86 646.235 1975.05 647.811C1949.03 649.587 1925.43 655.577 1902.86 663.589C1876.99 672.787 1854.36 684.568 1833.58 697.726C1806.95 714.643 1780.96 731.903 1754.97 749.221C1708.3 780.392 1661.9 811.735 1616.99 843.878C1585.25 866.578 1556.27 890.589 1531.27 916.423C1517.68 930.393 1507.22 945.266 1496.39 960.084C1489.11 970.117 1481.55 980.095 1473.72 989.959C1454.41 1014.3 1422.6 1028.3 1380.97 1033.8C1351.65 1037.69 1322.03 1038.39 1292.3 1036.78C1233.76 1033.65 1176.56 1026.29 1121.26 1013.74C1039.41 995.149 966.499 967.09 902.99 929.734C842.161 893.922 799.95 850.71 776.082 800.333C763.819 774.336 759.74 747.634 763.293 720.523C769.624 672.917 799.84 632.02 852.464 597.612C866.467 588.452 882.041 580.149 896.691 571.389C905.023 566.393 913.54 561.511 921.409 556.228C926.717 552.647 931.561 548.723 935.669 544.63C954.745 525.802 945.216 507.843 925.525 496.172C913.321 488.905 898.473 484.502 882.623 481.382C860.323 477.039 837.495 475.716 814.224 476.484C752.873 478.487 697.594 491.866 646.519 513.04C603.88 530.782 567.533 552.881 535.348 577.788C499.781 605.332 472.611 635.998 450.332 668.422C379.314 772.049 398.318 846.706 309.778 842.898C223.702 836.518 171.408 763.695 14.55 696.647C-6.13034 687.825 -32.8835 678.936 -51.4118 674.563C-51.4956 664.183 -51.5804 653.687 -51.6652 643.191Z" fill="#110F74"/>
<path d="M-54.1855 331.21C4.66191 349.582 73.9008 435.664 170.898 495.599C188.465 506.244 207.312 516.008 228.262 524.016C244.782 530.32 262.392 534.875 281.546 536.982C305.948 539.626 329.391 537.291 352.254 531.597C373.005 526.384 391.806 518.983 410.05 510.949C442.412 496.653 474.589 482.185 507.043 467.947C551.508 448.45 596.994 430.047 645.262 414.405C706.744 394.48 771.308 380.273 838.862 371.608C880.405 366.285 922.33 362.699 964.546 360.966C992.23 359.814 1020.01 359.242 1047.71 359.83C1073.57 360.375 1098.98 362.663 1123.68 367.683C1167.27 376.61 1199.42 393.922 1220.52 419.5C1235.2 437.301 1244.18 456.308 1247.84 476.228C1255.74 519.775 1245.13 561.616 1216.1 601.517C1196.99 627.884 1168 649.576 1132.91 668.069C1113.86 678.082 1093.5 686.887 1072.13 694.773C1065.25 697.322 1058.28 699.814 1051.58 702.536C1045.9 704.901 1040.3 707.382 1035.08 710.15C1013.65 721.574 1007.23 736.008 1014.17 752.77C1020.27 767.567 1034.08 779.344 1052.01 789.232C1074.28 801.52 1100.29 809.371 1128.75 814.012C1156.48 818.544 1184.92 819.88 1213.53 819.127C1248.95 818.203 1283.79 814.616 1317.68 807.731C1373.34 796.378 1423.25 778.404 1468.6 755.246C1515.88 731.087 1555.86 702.696 1591.4 671.73C1622.55 644.57 1648.73 615.652 1672.5 585.768C1702.1 548.471 1727.55 509.99 1752.91 471.51C1766.36 451.162 1779.44 430.701 1793.45 410.464C1806.36 391.744 1822.04 373.93 1841.88 357.706C1862.26 340.955 1886.53 326.899 1916.35 317.089C1941.49 308.767 1968.23 304.782 1996.67 305.712C2012.77 306.219 2029.05 310.353 2043.53 314.759C2043.66 330.532 2042.49 347.657 2042.62 363.778C2041.05 363.268 2034.55 360.421 2033.35 359.967C2006.95 349.219 1982.54 345.087 1951.09 346.733C1926.99 347.971 1905.51 353.422 1886.26 362.683C1867.38 371.824 1852.11 383.082 1838.59 395.37C1819.87 412.339 1804.37 430.5 1790.63 449.226C1772.34 474.253 1754.97 499.562 1737.14 524.817C1710.31 562.961 1681.73 600.539 1648.25 636.591C1618.42 668.67 1585 699.039 1545.29 726.674C1497.44 759.942 1442.64 787.526 1379.51 808.275C1337.67 822.009 1293.87 832.28 1247.35 837.237C1186.87 843.757 1127.87 840.928 1071.16 825.728C1036.59 816.439 1007.58 802.697 986.539 782.801C975.228 772.048 966.578 760.519 962.794 747.734C960.335 739.344 960.267 730.936 963.696 722.615C969.021 709.872 980.442 699.979 998.699 693.568C1008.88 690.006 1019.62 687.078 1030.46 684.381C1049.1 679.765 1067.83 675.322 1085.17 668.861C1146.35 646.155 1186.75 613.063 1208.67 570.841C1220.27 548.478 1225.05 525.474 1223.02 502.062C1221.6 484.849 1216.03 468.192 1205.88 452.21C1186.96 422.439 1154.13 401.537 1107.02 389.449C1082.12 383.039 1056.24 379.131 1029.63 377.026C995.66 374.401 961.523 373.922 927.398 375.01C856.481 377.323 787.923 386.923 721.627 403.233C659.464 418.523 601.943 439.112 547.581 463.444C510.545 480.039 474.991 497.782 440.085 516.1C419.746 526.761 398.945 537.193 377.032 546.533C363.278 552.386 348.967 557.547 333.263 561.037C301.118 568.14 262.764 569.552 231.961 560.464C139.451 532.041 28.4161 420.026 -53.7882 380.385C-53.9203 364.032 -54.0529 347.621 -54.1855 331.21Z" fill="#110F74"/>
<path d="M-50.6408 770.128C98.468 789.105 323.955 1026.21 422.746 1000.77C465.514 987.607 425.545 937.244 454.914 780.252C465.564 731.858 485.797 685.359 523.631 642.196C556.541 604.641 600.729 573.664 658.227 550.35C677.118 542.659 697.032 536.293 719.087 533.041C735.903 530.527 752.825 529.695 769.774 532.167C772.814 532.607 775.763 533.221 778.53 534.01C788.488 536.772 794.505 541.304 795.85 548.369C797.48 556.475 795.242 564.206 791.256 571.835C786.727 580.628 779.892 588.745 772.965 596.862C755.738 616.892 742.752 637.991 732.808 659.876C724.31 678.444 720.046 697.385 718.362 716.652C716.59 736.5 718.222 756.262 722.981 775.883C728.977 800.656 740.669 824.338 756.403 847.292C781.54 883.856 817.496 915.81 861.428 944.278C919.603 981.967 986.914 1011.64 1061.81 1034.69C1138.09 1058.14 1217.99 1075.19 1300.62 1087.34C1340.23 1093.16 1380.2 1097.94 1420.43 1101.45C1455.23 1104.47 1490.03 1106.91 1525.26 1106.46C1543.75 1106.25 1562.05 1104.88 1579.78 1101.2C1603.29 1096.31 1620.05 1086.73 1630.34 1072.61C1637.89 1062.34 1641.39 1051.47 1643.51 1040.37C1646.33 1025.27 1646.3 1010.08 1646.54 994.942C1647.27 947.846 1669.84 905.503 1716.83 868.356C1747.45 844.157 1781.87 822.364 1818.6 801.944C1839.94 790.115 1861.56 778.4 1885.21 768.408C1906.85 759.302 1929.7 751.753 1955.06 747.662C1983.36 743.084 2011.15 743.787 2038.53 750.235C2040.65 750.74 2042.77 751.361 2045.26 751.979C2045.35 762.823 2045.44 773.609 2045.53 784.685C2016.87 779.407 1980.32 775.875 1948.62 782.162C1925.57 786.698 1904.46 793.769 1884.75 802.395C1846.89 818.939 1812.36 838.124 1780.42 859.027C1761.02 871.71 1744.11 885.649 1730.43 901.012C1712.29 921.398 1701.7 943.231 1697.56 966.403C1694.75 982.316 1695.79 998.198 1696.11 1014.09C1696.43 1031.48 1696.85 1048.82 1693.77 1066.12C1691.74 1077.68 1688.52 1089.13 1681.44 1100.03C1679.89 1102.42 1678.16 1104.76 1676.25 1107.03C1664.85 1120.41 1647.26 1128.55 1623.73 1131.58C1606.63 1133.81 1589.34 1134.01 1572.12 1133.04C1519.75 1130.05 1468.18 1123.91 1416.78 1117.19C1350.01 1108.45 1284.05 1097.79 1219.08 1084.98C1152.64 1071.83 1088.29 1055.59 1027.21 1034.45C966.042 1013.26 909.715 987.904 860.241 956.755C800.04 918.909 754.696 875.142 727.235 824.157C716.68 804.582 710.077 784.396 706.047 763.899C703.073 748.845 702.031 733.718 702.368 718.521C702.831 696.132 708.45 674.165 717.66 652.575C724.614 636.397 732.765 620.441 740.364 604.316C744.434 595.7 747.953 587.089 747.972 578.042C747.954 575.838 747.844 573.635 747.275 571.494C745.184 563.276 737.234 558.585 724.615 556.773C713.93 555.236 703.357 556.191 692.976 558.131C667.989 562.798 645.974 571.095 625.723 581.233C597.225 595.498 573.81 612.621 553.816 631.746C524.052 660.171 503.509 691.189 489.329 723.895C479.753 745.778 473.401 768.04 469.811 790.629C447.056 934.983 535.306 1051.07 486.149 1070.6C383.434 1111.45 151.259 843.598 -50.3471 806.487C-50.4333 795.817 -50.5537 780.914 -50.6408 770.128Z" fill="#2460B9"/>
<path d="M-55.3874 182.236C-14.5431 170.134 66.3028 155.504 94.5746 181.547C128.687 213.051 115.364 249.462 172.762 327.579C191.552 352.944 214.834 376.359 245.544 396.698C258.494 405.292 272.542 413.066 288.327 419.608C323.684 434.342 361.992 438.498 403.343 432.191C427.602 428.515 450.741 422.761 473.786 416.834C511.614 407.133 548.603 396.164 585.221 384.791C659.375 361.807 736.047 342.978 814.674 327.033C858.489 318.154 902.021 308.523 944.622 297.508C991.63 285.356 1035.95 270.152 1076.18 250.341C1086.44 245.271 1096.89 240.315 1107.43 235.533C1116.6 231.399 1125.86 227.265 1135.49 223.592C1147.23 219.089 1160.18 216.317 1173.97 215.8C1192 215.132 1207.95 218.715 1222.08 225.56C1232.79 230.692 1241.58 237.001 1249.37 243.839C1272.9 264.584 1291.49 286.935 1306.67 310.532C1325.12 339.205 1337.97 368.967 1346.22 399.463C1354.66 430.479 1358.13 461.767 1357 493.324C1355.96 523.663 1348.38 553.474 1336.47 582.857C1327.46 605.315 1316.69 627.439 1304.35 649.228C1298.45 659.714 1292.93 670.372 1290.63 681.467C1289.56 686.579 1289.33 691.684 1291.21 696.772C1293.66 703.48 1300.04 708.01 1310.09 710.596C1318.29 712.676 1327.04 713.069 1335.78 712.882C1352.89 712.512 1369.15 709.829 1385.04 705.989C1415.25 698.612 1442.11 687.608 1467.5 674.993C1510.48 653.652 1545.97 628.081 1576.37 599.534C1608.88 569.058 1634.47 536.317 1656.55 502.445C1671.64 479.184 1683.96 455.249 1697.01 431.541C1715.78 397.521 1735.57 363.726 1758.03 330.546C1763.75 322.091 1770.31 313.861 1776.96 305.689C1794.64 284.03 1818.68 265.452 1848.09 249.673C1900.21 221.647 2003.97 177.552 2041.33 165.941C2041.4 175.393 2043.08 183.998 2043.15 193.334C2021.85 198.435 1967.79 215.824 1935.7 230.059C1912.14 240.515 1888.86 251.257 1866.04 262.286C1837.81 275.911 1815.96 293.079 1797.44 312.018C1777.82 332.01 1762.17 353.304 1749.19 375.272C1734.12 400.853 1719.79 426.659 1705.28 452.409C1686.77 485.093 1667.53 517.55 1644.23 548.997C1617.93 584.469 1586.55 618.01 1547.24 648.484C1510.75 676.847 1468.82 701.369 1418.92 720.214C1389.2 731.472 1357.99 740.423 1324.17 745.336C1303.13 748.348 1281.88 749.679 1260.7 746.835C1252.78 745.797 1244.95 744.178 1237.66 742.033C1223.27 737.8 1216.59 730.257 1216.87 720.222C1217.01 714.306 1219.17 708.605 1222.35 703.012C1227.43 694.098 1234.72 685.804 1242.38 677.681C1271.03 647.12 1293.77 614.982 1309.78 580.985C1320.18 558.979 1326.81 536.483 1329.84 513.609C1333.58 486.148 1331.61 458.85 1325.68 431.641C1318.23 397.079 1303.88 363.733 1281.54 331.902C1271.68 317.773 1259.61 304.475 1243.97 292.538C1235.82 286.341 1226.94 280.556 1216.23 276.003C1193.61 266.269 1168.75 264.324 1142.29 268.133C1128.04 270.22 1114.45 273.519 1101.24 277.396C1063.79 288.369 1025.87 298.534 986.557 306.448C946.048 314.605 905.447 322.646 864.379 329.763C761.111 347.763 662.502 373.032 566.972 403.612C530.174 415.392 493.653 427.46 457.039 439.354C436.117 446.134 414.637 452.223 391.759 456.061C344.441 464.041 301.066 458.998 261.453 441.282C240.492 431.883 222.826 420.311 206.624 407.799C162.37 373.709 128.942 335.762 107.257 293.718C91.2036 265.373 85.2926 239.788 58.8884 217.153C18.9066 187.957 -36.7876 206.849 -55.1621 210.129C-55.2389 200.619 -55.3106 191.746 -55.3874 182.236Z" fill="#2460B9"/>
<path d="M-52.7675 506.627C115.681 584.89 205.111 653.411 280.231 647.41C379.164 639.536 406.857 571.113 559.153 495.014C620.174 463.553 687.977 440.156 763.396 425.687C809.694 416.788 856.949 412.346 905.257 413.116C945.469 413.777 984.786 417.635 1022.04 427.483C1046.01 433.784 1067.79 442.307 1086.28 453.872C1113.38 470.819 1129.18 491.337 1132.97 515.257C1137.14 542.19 1127.87 567.376 1103.76 590.072C1083.12 609.492 1054.06 621.558 1018.22 627.067C1004.8 629.147 991.386 630.995 977.782 632.555C940.371 636.858 912.322 649.785 891.319 669.441C874.335 685.352 864.449 702.945 862.026 721.929C856.571 764.191 875.735 801.674 918.227 834.155C950.999 859.175 990.626 878.63 1038.75 890.826C1067.52 898.074 1097.36 902.357 1128.2 904.485C1187.21 908.532 1243.64 901.639 1298.64 888.146C1362.73 872.376 1420.24 849.817 1473.01 822.076C1529.9 792.214 1579.4 757.946 1624.28 720.99C1665.77 686.787 1702.65 650.708 1738.33 614.116C1762.96 588.806 1787.97 563.667 1813.35 538.641C1827.58 524.55 1843.48 511.141 1862.25 499.275C1874.06 491.757 1886.79 484.927 1901.19 479.359C1936.5 465.678 1972.65 464.922 2009.27 476.456C2020.8 480.133 2031.88 484.393 2043.32 488.418C2043.42 500.537 2043.58 520.486 2043.62 525.241C2037.43 522.971 2027.01 519.112 2020.73 516.901C1987.97 505.103 1954.11 504.796 1919.5 513.891C1895.36 520.233 1875.38 530.311 1857.54 542.228C1836.21 556.492 1817.39 571.955 1799.57 587.931C1773.08 611.632 1747.33 635.559 1721.4 659.487C1680.03 697.749 1636.44 734.926 1588.15 769.938C1533.36 809.7 1472.65 845.334 1404.07 875.58C1365.93 892.358 1325.56 906.602 1281.85 916.756C1245.12 925.288 1207.26 930.465 1168.16 931.245C1120.14 932.155 1074.46 925.797 1031.2 913.214C973.934 896.569 925.715 872.659 889.567 839.779C865.469 817.879 848.715 793.947 840.958 767.623C832.446 738.985 835.899 710.831 852.976 683.611C874.594 649.046 913.973 626.459 970.471 615.912C985.721 613.063 1001.25 610.676 1016.31 607.422C1064.16 597.003 1092.05 575.436 1100.54 544.4C1109.48 511.62 1093.24 483.798 1054.97 461.316C1030.57 447.015 1001.14 438.206 969.356 432.374C934.803 426.042 899.367 424.24 863.493 425.168C813.361 426.501 765.209 433.791 718.752 445.765C644.016 465.042 578.921 493.289 522.077 529.413C485.647 552.557 453.189 577.872 422.487 604.043C368.067 655.284 320.625 693.536 264.376 689.235C229.3 686.561 197.353 672.495 152.538 648.674C93.3091 617.198 26.3708 576.738 -52.4771 542.58C-52.5736 530.634 -52.6705 518.63 -52.7675 506.627Z" fill="#2460B9"/>
<path d="M-55.7843 133.062C52.8132 91.4743 97.2415 90.2455 114.27 91.2098C132.679 92.2209 148.082 96.9099 160.481 105.567C171.954 113.593 178.84 123.222 184.166 133.386C190.708 145.917 194.493 158.935 197.267 172.019C200.618 188.23 203.234 204.563 207.137 220.711C215.322 254.397 230.12 286.753 257.041 316.46C272.358 333.386 290.976 348.778 314.723 361.402C335.606 372.542 359.221 380.239 386.57 383.091C403.697 384.867 420.901 384.786 438.187 383.428C472.942 380.654 506.009 373.775 538.421 365.743C616.193 346.383 693.779 326.85 771.458 307.375C806.165 298.686 840.874 290.112 874.463 279.692C906.859 269.63 937.679 258.014 964.789 242.775C991.259 227.889 1014.31 211.175 1034.96 193.088C1047.65 181.909 1059.61 170.446 1072.04 159.153C1085.28 147.158 1099.54 135.618 1116.02 125.278C1127.55 118.052 1139.92 111.573 1154.6 106.931C1165.52 103.479 1176.18 101.653 1186.58 101.569C1233.68 101.188 1268.52 120.74 1306.39 172.802C1362.68 250.232 1412.6 382.4 1413.47 489.505C1413.64 510.787 1412.43 532.08 1411.96 553.31C1411.7 566.766 1412.17 580.274 1417.62 593.337C1419.21 597.209 1421.82 600.958 1424.79 604.471C1428.97 609.367 1435.98 611.63 1445 611.615C1454.75 611.594 1463.85 610.013 1472.47 607.276C1488.53 602.275 1502.28 595.263 1514.82 587.274C1536.24 573.763 1554.24 558.481 1570.95 542.572C1599.52 515.491 1621.74 486.315 1641.18 456.292C1658 430.291 1672.04 403.675 1685.99 377.001C1699.13 351.842 1713.01 326.91 1730.94 302.872C1744.5 284.726 1760 267.319 1779.93 251.616C1790.9 242.945 1802.98 234.902 1816.08 227.605C1881.38 191.238 1948.54 156.364 2020.7 125.509C2025.83 123.321 2034.27 119.89 2040.14 117.581C2040.15 118.972 2040.32 139.79 2040.33 141.182C1980.8 163.062 1923.05 190.264 1869.82 217.776C1856.08 224.846 1842.33 231.916 1828.87 239.1C1801.11 253.939 1780.37 272.2 1763.15 292.231C1745.01 313.313 1731.11 335.578 1718.5 358.123C1701.54 388.416 1685.14 418.763 1667.9 448.943C1650.48 479.414 1630.66 509.266 1606.79 537.991C1586.02 562.98 1562.38 586.716 1533.2 608.177C1512.07 623.716 1488.82 637.822 1462.14 649.578C1445.82 656.843 1428.58 663.014 1409.1 666.129C1402.57 667.167 1395.68 667.687 1388.96 667.683C1374.24 667.628 1364.72 662.833 1360.42 653.937C1357.14 647.063 1357.09 639.988 1357.76 632.849C1359.13 619.616 1363.63 606.705 1366.74 593.632C1371.54 573.296 1376.72 553.014 1380.42 532.571C1384.03 512.592 1384.32 492.524 1383.98 472.462C1383.63 451.761 1381.44 431.191 1377.31 410.695C1363.57 337.329 1291.84 160.335 1177.46 169.088C1102.42 173.406 1060.73 251.685 834.48 307.33C789.485 318.132 744.025 328.3 699.404 339.795C638.715 355.364 578.678 371.971 518.361 388.116C494.583 394.513 470.62 400.68 445.535 404.71C426.607 407.763 407.484 409.483 387.977 409.293C353.749 408.989 323.695 401.519 296.908 388.397C274.647 377.5 256.782 364.132 241.024 349.587C210.157 321.188 189.296 289.983 177.249 256.502C171.884 241.641 168.266 226.535 163.913 211.55C159.56 196.623 154.84 181.815 146.078 167.677C141.417 160.176 135.655 153.031 127.507 146.66C112.692 135.007 93.3221 128.958 69.4944 129.151C20.5493 129.314 -52.7478 155.887 -55.5946 156.548C-55.6578 148.72 -55.7211 140.891 -55.7843 133.062Z" fill="#00C9F5"/>
<path d="M-50.0989 836.932C50.8261 859.198 165.322 944.103 281.751 1017.86C395.13 1089.72 511.182 1151.01 554.482 1135.35C615.395 1113.29 486.091 1017.54 484.495 819.971C487.249 773.613 500.317 728.563 529.781 685.7C544.058 664.94 561.656 645.312 584.422 627.614C597.588 617.359 612.418 608.134 629.746 600.629C642.215 595.193 655.522 591.026 670.505 589.281C688.98 587.102 700.525 592.576 702.737 604.389C703.889 610.411 703.478 616.388 702.329 622.312C698.619 641.364 694.449 660.419 690.83 679.47C686.947 699.915 684.813 720.403 686.267 740.979C692.253 855.524 812.77 945.6 897.773 989.915C952.193 1018.3 1012.18 1041.01 1076.09 1059.81C1134.19 1076.91 1194.29 1090.75 1255.3 1103.07C1322.75 1116.62 1391.21 1128.19 1459.66 1139.64C1506 1147.38 1552.34 1155.3 1598.68 1163.1C1615.36 1165.87 1632.3 1167.7 1649.69 1167.68C1679.5 1167.55 1701.14 1158.74 1716.29 1142.96C1725.87 1132.96 1731.21 1121.96 1734.98 1110.62C1740.28 1094.75 1741.99 1078.61 1742.13 1062.43C1742.2 1048.22 1741.35 1034.08 1741.42 1019.87C1741.53 999.221 1742.47 978.568 1747.45 958.056C1753.15 934.523 1767.61 913.471 1789.91 894.327C1810.92 876.354 1835.92 861.074 1863.96 847.567C1881.92 838.897 1900.35 830.745 1920.63 824.318C1943.94 816.938 1968.29 812.508 1994.51 812.47C2010.61 812.456 2031.05 814.959 2045.81 818.957C2045.9 830.555 2045.99 842.269 2046.09 854.214C2030.99 852.713 1960.39 848.527 1921.67 861.425C1883.04 874.321 1850.79 892.096 1825.4 914.57C1805.94 931.777 1794.69 951.063 1789.7 971.865C1784.36 993.83 1783.44 1015.99 1783.25 1038.09C1783.07 1062.33 1782.07 1086.52 1778.96 1110.67C1776.88 1127.16 1774.07 1143.59 1766.75 1159.54C1763.22 1167.34 1758.5 1174.86 1751.65 1181.76C1744.26 1189.3 1735.11 1194.88 1724.28 1198.57C1714.55 1201.89 1677.38 1213.04 1597.79 1188.74C1553.15 1175.82 1508.33 1163.08 1461.34 1153.83C1421.07 1145.92 1380.53 1138.54 1340.17 1130.92C1266.36 1117.02 1193.28 1101.83 1122.37 1082.8C1064.01 1067.15 1007.74 1049.17 955.022 1026.92C881.075 995.733 817.928 957.678 767.503 911.343C714.029 863.351 678.684 815.909 667.51 742.406C660.422 696.417 674.421 641.269 653.91 630.59C639.594 623.747 590.982 631.041 532.29 711.661C519.857 732.871 511.846 754.799 506.966 777.165C503.238 793.955 501.533 810.729 501.669 827.546C503.28 1026.91 707.445 1153.08 629.271 1190.94C561.728 1223.62 403.871 1123.98 256.082 1029.26C133.82 950.968 21.4435 877.877 -49.8202 871.436C-49.9129 859.954 -50.0061 848.414 -50.0989 836.932Z" fill="#00C9F5"/>
<path d="M-51.1485 707.037C-9.29584 717.254 91.3383 760.457 149.22 796.003C170.579 809.111 191.205 822.573 212.289 835.857C238.552 852.405 265.822 868.306 296.567 881.57C304.507 884.986 312.813 888.166 321.483 890.88C326.925 892.575 333.097 893.512 339.175 894.158C350.777 895.398 360.601 892.825 368.654 887.483C374.054 883.902 377.883 879.637 381.067 875.088C387.798 865.523 391.58 855.344 394.81 845.169C403.604 817.667 411.662 790.114 421.101 762.723C434.767 723.235 454.423 684.975 482.834 648.558C507.877 616.518 539.105 587.153 579.29 561.776C620.024 535.988 666.413 515.49 720.497 502.294C746.391 495.996 773.038 491.721 800.912 491.264C823.542 490.907 845.365 493.167 865.568 499.789C869.811 501.204 874.056 502.736 877.935 504.56C895.483 512.827 901.753 525.941 894.775 539.162C890.968 546.268 884.578 552.408 877.079 558.094C867.112 565.656 856.775 572.989 846.807 580.55C825.134 596.847 804.938 613.828 788.712 632.517C768.202 656.112 755.248 681.269 750.035 707.93C741.818 749.925 751.989 790.322 776.134 829.388C797.761 864.357 829.844 895.182 869.355 922.989C920.894 959.224 982.485 986.969 1051.57 1008.45C1122.78 1030.61 1197.97 1045.25 1276.16 1054.25C1304.61 1057.5 1333.42 1058.94 1362.32 1059.64C1380.72 1060.13 1399.12 1060.27 1417.61 1059.13C1435.81 1058.06 1453.74 1056 1470.82 1051.57C1493.86 1045.64 1510.8 1035.82 1521.36 1021.53C1529.55 1010.44 1534.79 998.803 1539.57 987.05C1545.08 973.378 1549.84 959.653 1557.28 946.312C1570.79 922.194 1590.67 900.17 1614.42 879.507C1633.34 863.116 1654.28 847.695 1675.6 832.561C1708.44 809.214 1741.09 785.811 1775.88 763.609C1807 743.756 1839.69 724.992 1875.35 708.408C1899.45 697.137 1925.51 688.169 1954.54 683.064C1976.87 679.172 1999.31 677.888 2021.7 682.115C2028.7 683.45 2038.11 686.158 2044.84 687.959C2044.86 691.091 2045.01 709.531 2045.1 719.679C2021.68 713.953 2005.28 711.128 1985.6 712.099C1955.62 713.501 1927.97 719.524 1902.2 729.301C1880.09 737.714 1859.65 747.448 1840.14 758.044C1786.56 787.242 1736.11 818.443 1690.76 852.794C1667.62 870.32 1646.7 888.699 1630.21 909.072C1613.09 930.261 1601.86 952.505 1597.54 976.143C1595.16 989.153 1592.69 1002.16 1589.94 1015.12C1588.17 1023.37 1585.11 1031.45 1580.94 1039.37C1569.79 1060.4 1547.17 1073.57 1512.99 1078.89C1496.45 1081.46 1479.71 1082.53 1462.79 1082.84C1425.99 1083.42 1389.54 1081.51 1353.26 1078.15C1282.92 1071.65 1214.11 1061.18 1147.1 1046.53C1057.24 1026.9 975.857 997.867 904.966 957.845C866.332 936.062 831.82 911.984 803.353 884.551C769.136 851.54 747.224 815.529 737.708 776.403C732.569 755.335 730.374 734.128 733.054 712.823C736.514 685.596 747.897 659.639 766.558 634.9C781.942 614.478 800.555 595.19 820.552 576.413C827.127 570.212 833.608 563.897 839.351 557.355C844.73 551.165 847.896 544.47 847.838 537.337C847.744 525.681 839.03 517.633 821.883 513.364C808.977 510.163 795.539 509.575 781.833 509.86C744.302 510.685 709.301 517.289 676.178 528.459C628.374 544.619 588.715 566.745 555.534 593.632C514.493 626.903 484.337 663.798 463.96 703.862C395.062 853.634 455.567 929.116 387.637 948.106C324.573 965.781 239.958 889.683 129.694 816.169C87.0814 791.576 32.7154 758.495 -50.8091 737.655C-50.9827 727.565 -51.0656 717.301 -51.1485 707.037Z" fill="#00C9F5"/>
<path d="M-54.8978 243.125C49.8301 235.03 68.8196 307.89 104.697 352.892C136.395 393.057 168.558 422.432 219.322 453.86C231.62 461.473 245.199 468.149 260.24 473.595C294.75 486.074 331.478 488.213 369.887 482.278C394.973 478.363 418.287 471.564 440.579 463.497C467.733 453.651 494.516 443.402 521.669 433.497C571.022 415.469 621.397 398.65 673.63 384.136C734.125 367.293 796.49 354.089 860.631 344.408C910.712 336.87 960.89 329.854 1011.07 322.605C1032.85 319.472 1054.53 316.107 1076.31 313.031C1096.07 310.204 1116.02 308.535 1136.26 308.024C1174.07 307.138 1205.69 315.06 1230.86 332.892C1247.42 344.589 1259.4 358.004 1268.9 372.368C1284.27 395.673 1295.59 419.706 1300.67 444.776C1311.4 497.869 1303.63 549.661 1271.93 599.849C1254.58 627.246 1230.86 652.374 1202.81 675.972C1193.58 683.702 1183.52 691.09 1174.1 698.763C1167.06 704.445 1160.02 710.185 1153.63 716.21C1147.33 722.176 1142.88 728.708 1142.2 736.02C1141.52 742.463 1143.77 748.36 1149.52 753.707C1157.03 760.663 1167.19 765.568 1179.27 769.008C1195.78 773.689 1213.27 775.577 1231.21 775.78C1279.98 776.43 1326.3 769.503 1370.63 756.734C1419.01 742.831 1461.17 723.295 1499.44 700.194C1546.87 671.511 1585.61 638.548 1618.44 602.791C1649.27 569.138 1674.75 533.905 1697 497.769C1714.89 468.629 1731.67 439.207 1749.1 409.953C1787.69 347.531 1824.46 309.191 1865.03 285.724C1926.57 250.2 1999.28 230.475 2040.84 226.833C2040.86 229.675 2041.13 262.786 2041.16 266.498C1932.87 266.445 1863.88 302.899 1830.12 337.214C1812.13 353.771 1798.01 371.689 1785 389.946C1763.35 420.277 1744.46 451.282 1725.11 482.174C1705.5 513.533 1685.78 544.892 1662.66 575.293C1629.98 618.298 1590.1 658.461 1539.97 694.416C1501.73 721.807 1458.59 745.527 1408.23 763.737C1363.73 779.871 1316.26 790.751 1265.79 795.972C1231.59 799.496 1197.37 799.83 1163.47 794.769C1143.29 791.8 1124.39 786.966 1107.13 779.682C1099.56 776.496 1092.54 772.841 1086.52 768.482C1069.31 756.037 1066.99 741.557 1079.75 727.072C1085.22 720.88 1092.26 715.488 1100.5 710.782C1110.76 704.958 1121.39 699.363 1131.92 693.71C1195.77 659.153 1241.89 617.373 1263.93 565.872C1276.3 536.892 1280.38 507.398 1276.92 477.502C1274.15 453.051 1266.32 429.396 1251.6 406.723C1245.55 397.435 1238.3 388.563 1229.58 380.225C1207.61 359.003 1176.59 346.263 1137.17 341.42C1114.79 338.701 1092.15 337.956 1069.44 338.836C1042.3 339.867 1015.17 340.898 988.136 342.798C882.574 350.088 780.018 365.183 682.252 392.243C636.903 404.788 593.691 419.925 551.593 436.271C516.007 450.129 480.885 464.505 445.578 478.651C421.092 488.475 395.864 497.494 368.87 504.381C353.261 508.335 337.09 510.959 320.258 511.617C295.148 512.516 271.839 508.586 250.155 500.817C236.592 495.997 224.399 490.064 212.48 483.839C38.7043 383.93 54.8023 292.461 -54.5657 284.24C-54.6762 270.554 -54.7868 256.869 -54.8978 243.125Z" fill="#00C9F5"/>
<path d="M-53.4212 425.907C48.4609 475.538 183.748 594.374 286.878 593.541C353.945 592.999 400.469 555.102 475.398 514.133C506.904 496.365 538.966 478.998 573.898 463.928C619.281 444.308 666.708 427.049 718.035 414.223C761.282 403.435 805.845 396.058 851.815 392.033C888.223 388.84 924.828 387.268 961.547 388.421C1004.89 389.753 1046.98 394.632 1086.36 406.435C1119.56 416.373 1147.18 430.474 1166.76 450.324C1182.16 465.915 1190.48 483.072 1193.3 501.317C1196.5 521.53 1194.64 541.611 1186.15 561.397C1175.49 586.362 1154.69 607.639 1127.05 626.536C1113.88 635.516 1099.22 643.289 1082.71 649.802C1065.75 656.492 1047.1 660.064 1027.98 663.06C1014.85 665.138 1001.61 667.217 988.755 669.93C952.2 677.707 931.357 694.403 923.725 717.72C917.529 736.559 922.553 754.787 934.194 772.206C953.193 800.643 985.014 821.959 1027.28 837.16C1056.43 847.653 1088.04 854.009 1121.19 857.511C1181.51 863.809 1240.63 859.446 1298.68 847.61C1375.65 831.91 1443.07 805.965 1502.41 771.444C1548.1 744.92 1587.06 714.855 1622.03 682.618C1660.76 646.988 1694.03 609.43 1724.45 570.851C1746.58 542.835 1768.16 514.709 1790.38 486.75C1803.68 470.115 1817.9 453.762 1834.34 438.203C1845.93 427.265 1858.82 416.954 1874.3 408.014C1888.86 399.604 1904.91 392.747 1924.02 389.403C1969.3 379.816 2021.14 397.027 2042.39 407.758C2042.4 409.556 2042.71 447.771 2042.72 449.104C2002.66 432.436 1982.03 429.645 1967.57 428.486C1944.83 426.698 1923.6 429.537 1903.51 436.427C1886.54 442.247 1872.34 450.249 1859.44 459.168C1839.95 472.664 1823.51 487.585 1809.1 503.359C1791.5 522.697 1774.55 542.319 1757.41 561.885C1726.23 597.397 1694.68 632.795 1659.72 666.946C1624.76 701.038 1586.75 733.589 1542.46 763.233C1498.26 792.818 1449.24 818.673 1393.84 839.476C1345.5 857.613 1293.9 870.672 1238.66 877.613C1204.75 881.889 1170.53 883.441 1136.11 881.573C1080.33 878.486 1028.81 867.826 983.742 846.675C937.842 825.182 907.437 796.953 894.363 761.683C885.899 738.903 887.096 716.334 901.271 694.298C907.723 684.329 916.943 675.44 929.118 667.802C946.512 656.991 967.161 650.619 991.343 648.626C1006.33 647.403 1021.41 646.411 1036.02 643.568C1075.06 636.003 1105.02 620.915 1127.67 599.739C1145.29 583.3 1155.54 565.066 1160.81 545.654C1165.64 527.927 1165.49 510.298 1158.64 492.84C1147.55 464.455 1121.71 442.742 1082.85 427.108C1057.28 416.818 1029.07 410.551 999.599 406.44C956.676 400.465 913.242 399.424 869.468 401.981C765.001 408.161 671.167 432.29 585.632 470.154C544.378 488.407 506.733 509.357 470.94 531.683C408.766 568.547 363.014 622.328 281.596 622.986C171.565 623.874 59.7158 524.856 -53.0834 467.717C-53.1958 453.8 -53.3083 439.882 -53.4212 425.907Z" fill="#00C9F5"/>
<path d="M-52.1934 577.838C118.514 639.555 193.583 718.457 281.558 720.762C348.357 721.208 375.435 667.752 421.569 627.19C459.172 589.713 501.949 554.804 553.039 524.119C588.931 502.604 628.158 483.903 672.112 469.456C716.065 454.95 762.26 444.661 811.167 439.742C857.959 435.015 904.43 436.031 950.038 444.245C977.312 449.187 1002.49 456.754 1024.02 468.585C1046.94 481.158 1062.25 496.692 1066.73 515.852C1073.02 543.058 1059.12 565.497 1023.75 582.311C1012.29 587.739 999.439 591.554 986.403 595.081C973.917 598.429 961.246 601.605 948.761 605.012C918.558 613.259 891.599 624.495 869.552 640.099C843.389 658.636 827.556 680.396 820.022 704.523C809.887 736.907 815.203 768.586 831.922 799.536C850.79 834.527 882.13 864.546 924.656 889.777C977.073 920.786 1038.06 942.388 1108.08 953.479C1143.17 959.053 1178.79 960.621 1214.84 957.952C1255.66 954.896 1293.78 946.354 1329.46 933.423C1362.49 921.5 1392.92 907.22 1422.51 892.134C1462.74 871.628 1499.54 848.829 1535.41 825.4C1621.63 769.089 1699.71 708.552 1772.16 645.044C1793.17 626.607 1815.11 608.568 1839.81 591.956C1855.28 581.509 1871.67 571.749 1890.09 563.366C1900.18 558.761 1910.81 554.673 1922.29 551.507C1947.81 544.342 1974.02 543.202 2000.74 547.684C2015.02 550.062 2031.16 554.919 2043.89 559.629C2043.93 563.689 2044.68 591.249 2044.7 593.627C2032.98 589.372 2014.37 583.761 2001.47 581.835C1975.68 578.042 1950.58 580.101 1926.25 586.502C1904.95 592.068 1886.34 600.337 1869.4 610.043C1856.58 617.396 1844.22 625.092 1832.32 633.018C1795.63 657.497 1761.8 683.519 1728.61 709.884C1665.81 759.917 1598.85 807.606 1528.93 853.637C1488.93 879.999 1448.48 906.075 1408.02 932.15C1393.47 941.547 1377.53 950.085 1360.66 957.818C1317.31 977.596 1269.08 986.8 1215.8 986.187C1165.1 985.61 1116.83 978.345 1070.09 966.602C1011 951.77 957.927 931.031 912.708 902.748C869.431 875.667 836.516 844.269 815.889 807.958C803.383 785.964 796.943 763.167 796.385 739.742C795.423 700.315 813.075 664.623 853.124 633.737C873.331 618.148 897.796 605.713 925.409 595.748C937.885 591.239 950.732 587.076 963.301 582.683C977.98 577.519 992.196 571.953 1004.47 564.721C1017.29 557.136 1026.69 548.303 1030.1 537.315C1032.88 528.42 1031.24 519.792 1027.4 511.24C1019.81 494.193 1003.79 481.043 980.892 471.021C965.011 464.074 947.492 459.286 928.972 456.014C896.171 450.19 862.669 448.663 828.731 450.097C776.122 452.262 727.353 462.804 680.831 478.2C602.652 504.117 538.91 540.355 487.291 585.369C376.455 680.212 370.605 776.064 273.421 761.307C193.559 749.599 64.8128 643.237 -51.9264 610.892C-52.0154 599.874 -52.1044 588.856 -52.1934 577.838Z" fill="#00C9F5"/>
</g>
</svg>
