<svg width="208" height="52" viewBox="0 0 208 52" fill="none" xmlns="http://www.w3.org/2000/svg">
<path d="M17.598 44.0499C22.932 44.0499 27.258 42.0759 30.366 39.5139V26.2839H16.842V32.2479H22.638V35.8179C21.42 36.6159 19.908 37.0359 17.934 37.0359C13.272 37.0359 9.954 33.6339 9.954 28.8879C9.954 24.3099 13.23 20.7399 17.472 20.7399C20.37 20.7399 22.47 21.7479 24.57 23.5119L29.358 17.7579C26.25 15.0699 22.596 13.4739 17.43 13.4739C8.316 13.4739 1.596 20.1939 1.596 28.7619C1.596 37.7499 8.442 44.0499 17.598 44.0499ZM36.9833 43.4619H45.1313V34.5579H48.7013L54.6233 43.4619H64.0313L57.0173 33.2139C60.6713 31.6599 63.0653 28.6779 63.0653 24.1839C63.0653 21.2019 62.1833 18.9339 60.4613 17.2119C58.4873 15.2379 55.3793 14.0619 50.8853 14.0619H36.9833V43.4619ZM45.1313 28.1739V21.1179H50.4653C53.1953 21.1179 54.8753 22.2939 54.8753 24.6039C54.8753 26.8299 53.2793 28.1739 50.5073 28.1739H45.1313ZM69.2708 43.4619H93.1268V36.5319H77.3348V31.8699H91.4468V25.4439H77.3348V20.9919H92.9168V14.0619H69.2708V43.4619ZM99.3845 43.4619H107.448V27.3339L120.006 43.4619H127.146V14.0619H119.082V29.6019L106.986 14.0619H99.3845V43.4619ZM134.461 43.4619H142.609V35.8599L145.591 32.5419L152.983 43.4619H162.769L151.261 26.7039L162.391 14.0619H152.731L142.609 25.9899V14.0619H134.461V43.4619ZM167.409 43.4619H175.599V14.0619H167.409V43.4619Z" fill="white"/>
<path d="M191.775 6.33887H187.855V17H185.219V6.33887H181.352V4.20312H191.775V6.33887ZM196.732 4.20312L200.02 13.4844L203.289 4.20312H206.752V17H204.106V13.502L204.37 7.46387L200.916 17H199.105L195.66 7.47266L195.924 13.502V17H193.287V4.20312H196.732Z" fill="white"/>
</svg>
