<svg width="271" height="82" viewBox="0 0 271 82" fill="none" xmlns="http://www.w3.org/2000/svg">
<path fill-rule="evenodd" clip-rule="evenodd" d="M34.3505 48.7317H30.4772V39.254L47.4588 39.2461C47.4588 44.7084 47.167 48.7635 46.5834 51.4191C46.0218 53.9794 44.8328 56.5793 43.031 59.2111C41.2657 61.8191 39.1285 63.7273 36.6192 64.9279C34.1099 66.1285 31.4108 66.7249 28.5368 66.7249C24.2622 66.7249 20.3742 65.7946 16.8802 63.9261C13.3715 62.1053 10.6579 59.0918 8.74674 54.8778C6.81369 50.7353 5.85083 46.0919 5.85083 40.9476C5.85083 33.1635 7.79848 26.8902 11.6938 22.1275C15.5526 17.3648 20.2867 14.9795 25.8889 14.9795C30.5647 14.9795 34.2339 16.4743 36.8891 19.4639V15.9813H46.0364V33.4338L36.8891 33.4418C36.0867 31.2871 35.0435 29.6571 33.767 28.5599C32.4832 27.4626 30.9878 26.9061 29.2735 26.914C26.8736 26.914 25.1084 27.9476 23.9777 30.007C22.8689 32.0663 22.3145 35.851 22.3145 41.3531C22.3145 46.8314 22.8981 50.5604 24.0652 52.5163C25.247 54.5041 26.9685 55.498 29.2225 55.498C32.6437 55.4821 34.3505 53.2319 34.3505 48.7317Z" fill="#00C9F5"/>
<path fill-rule="evenodd" clip-rule="evenodd" d="M71.6699 26.9134V36.4308H73.3111C75.4557 36.4308 76.9146 36.3433 77.6805 36.1763C78.4975 36.0094 79.1906 35.5323 79.7523 34.7372C80.3139 33.9978 80.5984 32.98 80.5984 31.684C80.5984 30.388 80.3139 29.3623 79.7523 28.599C79.1906 27.8119 78.4684 27.3269 77.593 27.1599C76.7541 26.9929 75.2296 26.9134 73.0048 26.9134H71.6699ZM74.5366 65.9132L53.9004 65.9211V53.9628H56.986V27.9311H53.9004V15.9728L74.5366 15.9648C76.3895 15.9648 78.1109 16.0046 79.6938 16.0841C81.2768 16.1636 82.6336 16.2829 83.7643 16.4419C84.8949 16.6009 85.9307 16.8077 86.8789 17.07C89.5342 17.8095 91.6933 19.4235 93.3492 21.9122C95.0196 24.4486 95.8586 27.4382 95.8586 30.8889C95.8586 33.473 95.348 35.8186 94.3267 37.9256C93.3055 40.0087 91.9706 41.5433 90.3147 42.5213L95.5595 53.9389H98.2876V65.8973L84.6104 65.9052L76.3384 45.5108H71.6699V53.9469H74.5366V65.9132Z" fill="#00C9F5"/>
<path fill-rule="evenodd" clip-rule="evenodd" d="M139.071 65.8815L102.839 65.8974V53.9391H105.793V27.9074H102.788V15.949L139.071 15.9331V31.9147H129.099V27.8994H120.477V35.5801H127.983V45.7415H120.477V53.9311H129.099V49.9079H139.071V65.8815Z" fill="#00C9F5"/>
<path fill-rule="evenodd" clip-rule="evenodd" d="M160.765 65.8736L145.176 65.8815V53.9231H148.51V27.8914H145.176V15.933L163.172 15.9251L176.98 42.0204V27.8755H173.895V15.9171L189.213 15.9092V27.8676H185.909V66.5096L173.406 66.5176L157.409 36.3195V53.9152H160.765V65.8736Z" fill="#00C9F5"/>
<path fill-rule="evenodd" clip-rule="evenodd" d="M238.977 65.8415L219.326 65.8494V53.8911H221.157L212.834 39.6746L222.499 27.8594H219.413V15.901L238.117 15.8931V27.8514H235.17L227.415 37.337L237.11 53.8831H238.992V65.8415H238.977ZM215.365 65.8494V53.8911H212.36V27.8594H215.365V15.901L194.699 15.909V27.8673H197.676V53.899H194.78V65.8574L215.365 65.8494Z" fill="#00C9F5"/>
<path fill-rule="evenodd" clip-rule="evenodd" d="M264.691 65.8258L243.041 65.8338V53.8834L246.535 53.8754V27.8437H243.041V15.8933L264.691 15.8774V27.8358H261.226V53.8754L264.691 53.8675V65.8258Z" fill="#00C9F5"/>
<path d="M270.54 0H0.000244141V3.28368H270.54V0Z" fill="#00C9F5"/>
<path d="M270.54 78.4209H0V81.7045H270.54V78.4209Z" fill="#00C9F5"/>
</svg>
