<svg width="69" height="69" viewBox="0 0 69 69" fill="none" xmlns="http://www.w3.org/2000/svg">
<path d="M34.5 68C15.9984 68 1 53.0016 1 34.5C1 15.9984 15.9984 1 34.5 1C53.0016 1 68 15.9984 68 34.5C68 53.0016 53.0016 68 34.5 68Z" stroke="#00C9F5" stroke-width="1.5" stroke-miterlimit="10"/>
<path d="M34.4994 19.4492C39.4109 19.4492 39.9918 19.4668 41.9282 19.5548C43.7238 19.6428 44.692 19.9421 45.3433 20.1885C46.2059 20.523 46.8045 20.9279 47.4558 21.5616C48.1071 22.213 48.4944 22.8115 48.8289 23.6741C49.0753 24.3254 49.3746 25.2936 49.4626 27.0892C49.5507 29.0256 49.5683 29.6065 49.5683 34.518C49.5683 39.4295 49.533 39.9928 49.445 41.9292C49.357 43.7248 49.0577 44.693 48.8113 45.3443C48.4768 46.2069 48.0719 46.8054 47.4382 47.4568C46.8045 48.0905 46.1883 48.4954 45.3257 48.8299C44.6744 49.0763 43.7062 49.3756 41.9106 49.4636C39.9742 49.5516 39.3933 49.5692 34.4818 49.5692C29.5704 49.5692 28.9894 49.5516 27.053 49.4636C25.2574 49.3756 24.2892 49.0763 23.6379 48.8299C22.7753 48.4954 22.1768 48.0905 21.5254 47.4568C20.8741 46.8054 20.4868 46.2069 20.1523 45.3443C19.9059 44.693 19.6066 43.7248 19.5186 41.9292C19.4306 39.9928 19.413 39.4118 19.413 34.5004C19.413 29.5889 19.4306 29.008 19.5186 27.0716C19.6066 25.276 19.9059 24.3078 20.1523 23.6565C20.4868 22.7939 20.8917 22.1953 21.5254 21.544C22.1768 20.8927 22.7753 20.5054 23.6379 20.1709C24.2892 19.9245 25.2574 19.6252 27.053 19.5372C29.007 19.4668 29.588 19.4492 34.4994 19.4492ZM34.4994 16.1396C29.5175 16.1396 28.8838 16.1573 26.9298 16.2453C24.9758 16.3333 23.6379 16.6502 22.476 17.1079C21.2614 17.5832 20.2404 18.1993 19.2193 19.2203C18.1983 20.2413 17.5646 21.2623 17.1069 22.477C16.6492 23.6389 16.3499 24.9767 16.2443 26.9308C16.1563 28.8848 16.1387 29.5185 16.1387 34.5004C16.1387 39.4823 16.1563 40.116 16.2443 42.07C16.3323 44.024 16.6492 45.3619 17.1069 46.5238C17.5822 47.7384 18.1983 48.7595 19.2193 49.7805C20.2404 50.8015 21.2614 51.4352 22.476 51.8929C23.6379 52.3506 24.9758 52.6499 26.9298 52.7555C28.8838 52.8435 29.5175 52.8611 34.4994 52.8611C39.4813 52.8611 40.115 52.8435 42.069 52.7555C44.0231 52.6675 45.361 52.3506 46.5228 51.8929C47.7375 51.4176 48.7585 50.8015 49.7795 49.7805C50.8005 48.7595 51.4343 47.7384 51.892 46.5238C52.3497 45.3619 52.6489 44.024 52.7369 42.07C52.825 40.116 52.8426 39.4823 52.8426 34.5004C52.8426 29.5185 52.825 28.8848 52.7369 26.9308C52.6489 24.9767 52.332 23.6389 51.892 22.477C51.4167 21.2623 50.8005 20.2413 49.7795 19.2203C48.7585 18.1993 47.7375 17.5656 46.5228 17.1079C45.361 16.6502 44.0231 16.3509 42.069 16.2453C40.115 16.1573 39.4813 16.1396 34.4994 16.1396Z" fill="#00C9F5"/>
<path d="M34.4998 25.0645C29.2891 25.0645 25.0642 29.2894 25.0642 34.5001C25.0642 39.7108 29.2891 43.9357 34.4998 43.9357C39.7106 43.9357 43.9355 39.7108 43.9355 34.5001C43.9355 29.2894 39.7106 25.0645 34.4998 25.0645ZM34.4998 40.6262C31.1199 40.6262 28.3737 37.88 28.3737 34.5001C28.3737 31.1202 31.1199 28.374 34.4998 28.374C37.8798 28.374 40.626 31.1202 40.626 34.5001C40.626 37.88 37.8798 40.6262 34.4998 40.6262Z" fill="#00C9F5"/>
<path d="M46.5052 24.6946C46.5052 25.9093 45.5194 26.8951 44.3047 26.8951C43.0901 26.8951 42.1042 25.9093 42.1042 24.6946C42.1042 23.48 43.0901 22.4941 44.3047 22.4941C45.5194 22.4941 46.5052 23.48 46.5052 24.6946Z" fill="#00C9F5"/>
</svg>
