<svg width="176" height="101" viewBox="0 0 176 101" fill="none" xmlns="http://www.w3.org/2000/svg">
<path d="M138.61 98.7311C137.871 101.502 150.826 84.1686 164.824 74.6086L147.07 74.6086C143.847 82.7399 139.349 95.9601 138.61 98.7311Z" fill="#FF6230"/>
<path d="M152.362 93.2562C150.08 93.948 162.332 83.6241 168.743 78.3757L175.475 83.6841C168.721 86.5865 154.644 92.5643 152.362 93.2562Z" fill="#FF6230"/>
<path d="M24.4641 91.8849C27.2753 96.6915 6.00024 59.5 44.4644 38.8849L18.4641 49.8849C16.5694 64.3386 15.9838 77.3849 24.4641 91.8849Z" fill="#FF4C24"/>
<path d="M70.9166 18.1656C72.5861 18.2291 47.4204 12.7585 41.998 10.612L47.3303 17.2696C51.9538 18.3255 62.6129 17.8502 70.9166 18.1656Z" fill="#FF4C24"/>
<path d="M74.9976 19.5316L47.574 17L52.2418 21.0506C-11.9413 44.3418 14.939 82.6413 30.4985 98C2.95812 64.3797 34.7373 39.2785 61.5775 32.1899L66.2454 40.7975L74.9976 19.5316Z" fill="#FF4C24"/>
<path d="M7.49756 46.5C16.6976 36.9 27.9976 24 49.9976 19C53.4976 19 58.9976 29 50.9976 29C44.5976 29 27.4976 31 7.49756 46.5Z" fill="#FF4C24"/>
</svg>
