<svg width="1920" height="5728" viewBox="0 0 1920 5728" fill="none" xmlns="http://www.w3.org/2000/svg">
<rect y="-27" width="1920" height="5755" fill="url(#paint0_linear)"/>
<path d="M-31.74 44.3188C67.2951 -9.95332 109.121 -14.2951 125.272 -14.3351C142.729 -14.4139 157.655 -10.1314 170.074 -1.15969C181.568 7.1601 188.866 17.5983 194.736 28.7449C201.95 42.4902 206.603 56.9687 210.307 71.5892C214.815 89.7097 218.639 108.017 223.663 126.03C234.183 163.602 250.834 199.232 278.706 231.057C294.567 249.192 313.414 265.371 336.873 278.079C357.506 289.297 380.431 296.436 406.478 297.847C422.789 298.719 439.018 297.484 455.219 294.8C487.788 289.352 518.423 279.372 548.345 268.13C620.134 241.057 691.733 213.802 763.424 186.605C795.458 174.467 827.502 162.461 858.336 148.439C888.074 134.901 916.196 119.71 940.516 100.666C964.26 82.0636 984.626 61.6199 1002.61 39.7829C1013.67 26.2898 1024 12.5245 1034.87 -1.08586C1046.38 -15.5388 1058.88 -29.5436 1073.57 -42.338C1083.85 -51.2809 1094.99 -59.4338 1108.46 -65.6618C1118.48 -70.293 1128.39 -73.067 1138.19 -73.8527C1182.61 -77.4122 1217.12 -57.6033 1257.17 -1.20974C1316.72 82.6645 1374.81 228.9 1384.51 350.035C1386.44 374.105 1387.07 398.279 1388.38 422.331C1389.26 437.575 1390.83 452.828 1397.05 467.247C1398.88 471.523 1401.65 475.591 1404.74 479.37C1409.09 484.632 1415.9 486.727 1424.41 486.111C1433.61 485.439 1442.06 483.046 1449.97 479.376C1464.72 472.65 1477.1 463.802 1488.28 453.93C1507.37 437.219 1523.09 418.732 1537.54 399.62C1562.26 367.078 1580.8 332.59 1596.66 297.326C1610.37 266.789 1621.41 235.739 1632.37 204.63C1642.68 175.29 1653.7 146.156 1668.63 117.765C1679.92 96.3322 1693.11 75.606 1710.61 56.5137C1720.25 45.9729 1730.98 36.07 1742.73 26.9433C1801.35 -18.5451 1861.83 -62.4674 1927.37 -102.174C1932.03 -104.99 1939.71 -109.434 1945.06 -112.436C1945.18 -110.862 1947.07 -87.3174 1947.19 -85.7434C1892.74 -57.0235 1840.59 -22.4159 1792.64 12.2515C1780.25 21.1645 1767.87 30.0775 1755.76 39.1009C1730.79 57.7348 1712.74 79.7755 1698.14 103.585C1682.77 128.645 1671.51 154.762 1661.48 181.11C1647.99 216.514 1635.02 251.942 1621.26 287.236C1607.35 322.871 1591.13 357.966 1570.98 392.056C1553.54 421.704 1533.12 450.139 1507.36 476.361C1488.71 495.347 1467.94 512.853 1443.74 527.928C1428.94 537.232 1413.17 545.36 1395.05 550.179C1388.98 551.787 1382.51 552.833 1376.18 553.275C1362.28 554.191 1352.9 549.398 1348.1 539.618C1344.44 532.056 1343.8 524.055 1343.84 515.933C1344.03 500.868 1347.21 485.96 1349.06 470.961C1351.91 447.63 1355.1 424.338 1356.9 400.96C1358.65 378.114 1357.26 355.387 1355.27 332.709C1353.22 309.309 1349.45 286.179 1343.85 263.261C1324.79 181.159 1242.41 -14.3501 1135.19 3.15252C1064.73 13.023 1031.88 104.367 822.984 182.36C781.417 197.572 739.359 212.098 698.203 228.069C642.22 249.716 586.94 272.496 531.357 294.771C509.449 303.589 487.345 312.159 464.007 318.386C446.397 323.097 428.493 326.314 410.068 327.394C377.741 329.325 348.758 322.869 322.388 309.8C300.475 298.949 282.506 285.01 266.427 269.598C234.939 239.515 212.662 205.591 198.514 168.507C192.218 152.048 187.549 135.194 182.197 118.528C176.85 101.927 171.167 85.4846 161.724 70.0698C156.702 61.8914 150.672 54.1899 142.453 47.5218C127.505 35.3205 108.723 29.7629 86.2517 31.5635C40.1819 35.2552 -26.6985 70.1852 -29.3355 71.0565C-30.321 62.0267 -31.0305 53.1727 -31.74 44.3188Z" fill="#FF5B37"/>
<g opacity="0.42">
<path d="M-102.462 2243.39C-80.2003 2244.85 6.0906 2256.65 140.066 2331.02C222.678 2375.5 300.072 2423.78 376.957 2472.43C436.814 2510.23 497.175 2547.58 561.104 2582.42C638.893 2624.76 721.968 2661.89 812.844 2691.26C878.402 2712.43 916.487 2718.24 946.769 2716.91C998.42 2714.63 1006.66 2693.08 1005.82 2674.02C1004.68 2648.09 983.834 2613.36 963.461 2583.31C923.688 2524.39 863.365 2461.15 815.373 2391.6C754.464 2303.19 709.264 2204.67 704.415 2094.87C696.865 1923.89 788.748 1851.14 843.503 1871.56C885.638 1891.76 864.977 1932.51 908.389 2023.26C952.87 2129.31 1035.01 2219.58 1155.45 2293.94C1249.7 2352.11 1357.03 2397.15 1474.68 2431.97C1548.95 2453.97 1625.79 2471.85 1704.08 2486.96C1786.48 2502.94 1869.37 2518.02 1952.15 2533.46C2124.93 2561.57 2292.51 2620.52 2405.02 2640.13C2463.13 2650.29 2504.47 2643.67 2533.36 2625.57C2563.4 2606.81 2567.17 2570.29 2564.46 2509.04C2567.62 2473.42 2518.12 2253.73 2646.59 2155.91C2720.05 2100.1 2849.64 2105.01 2883.88 2109.95C2884.35 2120.74 2885.89 2155.45 2886.46 2168.42C2876.07 2168.18 2865.15 2167.7 2854.64 2167.64C2826.52 2167.4 2798.79 2169.94 2771.89 2176.44C2730.43 2186.47 2699.19 2204.93 2676.66 2230.08C2658.01 2250.87 2615.94 2306.43 2624.94 2510.29C2643.31 2706.24 2534.79 2708.59 2492.8 2709.49C2459.86 2710.16 2407.47 2698.7 2359.14 2680.95C2281.84 2652.63 2152.14 2597.77 2002.71 2562.96C1937.82 2548.13 1871.73 2535.79 1805.64 2523.37C1713.46 2505.99 1622.37 2486.74 1533.96 2462.66C1443.83 2438.13 1357.31 2409.26 1276.4 2373.6C1178.07 2330.17 1091.84 2278.18 1021.41 2214.95C868.491 2074.54 878.677 1975.06 818.04 1946.35C795.772 1935.83 727.157 1961.44 733.501 2105.09C742.342 2305.3 925.642 2479.41 959.894 2517.39C1073.54 2636.95 1115.22 2718.27 1066.95 2755.63C1015.01 2795.76 883.481 2782.82 615.443 2646.98C524.334 2600.43 435.886 2551.68 350.36 2500.71C289.659 2464.6 229.976 2427.74 167.115 2393.29C126.997 2371.18 15.5484 2307.23 -99.9343 2300.65C-100.776 2281.59 -101.621 2262.45 -102.462 2243.39Z" fill="#FF3475"/>
<path d="M2831.26 915.481C2723.19 969.596 2620.38 1032.98 2518.98 1092.38C2461.49 1126.04 2418.89 1166.63 2387.29 1212.49C2362.71 1247.92 2343.98 1284.67 2325.77 1321.56C2308.17 1357.21 2291.1 1392.93 2272.04 1428.29C2252.61 1464.19 2230.12 1499.27 2201.78 1532.78C2183.44 1554.51 2162.41 1575.15 2136.28 1593.13C2127.48 1599.18 2118.01 1604.74 2108.27 1610.14C2100.83 1614.22 2092.28 1617.04 2082.9 1618.76C2068.96 1621.29 2057.18 1619.28 2047.55 1612.47C2040.1 1607.31 2035.36 1600.98 2031.39 1594.36C2023.02 1580.43 2018.57 1565.81 2015.02 1550.97C2008.12 1522.5 2001.6 1493.93 1994.83 1465.46C1989.49 1442.77 1984.02 1420 1978.42 1397.32C1969.16 1360.15 1955.87 1323.78 1940.87 1287.56C1914.71 1224.55 1882.31 1163.04 1848.22 1101.95C1827.25 1064.52 1806.17 1027.18 1783.65 990.25C1772.61 972.169 1758.71 954.824 1745.07 937.554C1738.95 929.804 1730.88 922.489 1722.44 915.713C1689.35 889.189 1644.7 883.489 1596.63 895.55C1579.22 899.893 1563.48 906.342 1548.58 913.887C1519.8 928.41 1495.88 945.943 1474.13 964.949C1447.7 988.085 1425.55 1013.04 1403.81 1038.15C1385.06 1059.81 1366.45 1081.64 1346.91 1102.99C1323.23 1128.97 1296.2 1153.35 1263.25 1174.69C1230.94 1195.55 1195.08 1213.27 1157.16 1229.06C1100.16 1252.94 1040.64 1273.26 979.865 1292.08C897.71 1317.41 815.261 1342.06 730.978 1363.83C690.978 1374.14 650.385 1382.91 608.62 1388.94C528.348 1400.41 458.594 1388.33 399.851 1351.95C367.444 1331.94 343.261 1307.81 323.837 1281.38C300.5 1249.63 284.049 1216.18 276.447 1180.86C273.322 1166.62 271.501 1152.14 269.29 1137.76C265.242 1111.53 261.849 1085.26 256.887 1059.15C253.092 1038.66 246.29 1018.47 234.676 999.37C228.59 989.439 221.08 980.006 210.602 971.751C190.32 955.647 163.849 948.098 131.947 948.461C103.851 948.742 44.6969 956.585 -155.774 1045.03C-156.228 1034.77 -156.681 1024.5 -157.135 1014.23C-106.626 992.037 -18.9002 947.102 50.1391 919.207C77.3692 908.24 105.86 899.049 136.617 893.593C157.207 889.894 178.143 888.098 199.21 889.26C226.469 890.846 248.109 899.044 264.493 913.141C278.692 925.329 287.326 939.42 293.755 954.131C300.909 970.379 305.066 987.195 307.913 1004.07C313.202 1034.61 314.697 1065.49 316.975 1096.25C320.157 1138.57 329.474 1180 350.666 1219.69C365.837 1247.97 386.044 1274.27 414.777 1297.33C446.775 1322.94 486.334 1341.33 536.198 1349.16C567.809 1354.12 599.873 1354.45 632.453 1351.62C683.745 1347.17 732.929 1336.63 780.949 1323.53C867.519 1300 952.964 1274.78 1036.15 1246C1074.06 1232.91 1110.71 1218.3 1145.17 1201.43C1200.59 1174.4 1245.07 1140.62 1282.93 1102.77C1308.97 1076.68 1331.14 1049.29 1354.1 1022.03C1378.31 993.155 1402.79 964.438 1431.67 937.358C1462.95 907.992 1498.82 881.562 1542.8 860.179C1569.67 847.136 1597.93 835.688 1629.81 828.875C1648.29 824.921 1666.97 822.701 1686.3 823.155C1712.07 823.848 1733.64 830.306 1751.37 842.164C1765.04 851.411 1774.98 862.306 1783.38 873.965C1796.53 892.302 1806.32 911.66 1815.19 931.145C1851.87 1012.26 1893.89 1092.18 1933.43 1172.55C1964.6 1235.95 1991.99 1300.12 2017.05 1364.84C2026.84 1390.21 2036.11 1415.69 2046.16 1441.05C2051.48 1454.59 2058.25 1467.9 2067.6 1480.38C2071.36 1485.36 2075.65 1490.23 2080.45 1494.81C2083.61 1497.9 2087.67 1500.68 2091.98 1503.19C2103.71 1509.91 2117.29 1511.14 2132.08 1507C2142.85 1504 2151.83 1499.16 2159.99 1493.65C2171.73 1485.72 2181.45 1476.84 2190.23 1467.38C2216.19 1439.56 2238.68 1410.5 2256.11 1380C2275.25 1346.46 2293.2 1312.63 2311.54 1278.86C2325.87 1252.43 2341.14 1226.3 2358.26 1200.52C2390.04 1152.82 2436.31 1112.07 2494.67 1077.15C2531.64 1054.95 2569.16 1033.06 2606.55 1011.1C2658.53 980.647 2710.38 950.111 2762.76 919.9C2781.85 908.858 2817.27 890.032 2829.38 884.703L2830.74 915.504C2722.66 969.62 2619.86 1033.01 2518.46 1092.41" fill="#FF3475"/>
<path d="M-120.114 1843.67C98.5761 1900.1 255.186 2061.7 387.253 2060.14C511.76 2053.94 489.47 1932.88 641.477 1761.22C695.515 1699.99 764.516 1647.42 849.562 1604.26C908.527 1574.29 973.355 1552.16 1044.49 1539.08C1091.14 1530.48 1138.38 1526.56 1186.12 1528.03C1217.95 1528.98 1248.99 1532.84 1278 1541.41C1307.15 1550.06 1331.22 1562.68 1345.98 1581.82C1362.83 1603.48 1362.11 1625.66 1343.25 1647.67C1334.38 1658 1322.55 1666.89 1308.83 1674.39C1288.56 1685.4 1267.89 1696.07 1246.93 1706.41C1171.6 1743.39 1118.26 1790.82 1088.27 1849.33C1068.32 1888.22 1063.76 1927.74 1070.25 1967.73C1075.65 2000.71 1086.77 2032.47 1106.1 2062.74C1137.71 2112.26 1182.97 2155.59 1241.47 2192.33C1348.46 2259.44 1474.29 2304.1 1620.67 2323.35C1674.71 2330.47 1729.49 2333.63 1785.19 2330.82C1819.78 2329.03 1853.88 2324.82 1887.16 2317.07C1925 2308.26 1956.52 2293.35 1981.75 2272.8C1997.22 2260.26 2012.01 2247.14 2025.33 2233.47C2081.62 2175.63 2143.54 2120.41 2209.49 2067.2C2309.69 1986.49 2410.29 1905.94 2510.89 1825.39C2541.47 1800.94 2573.12 1777.05 2608.28 1755.27C2634.48 1738.94 2662.33 1724.11 2694.43 1713.37C2723.16 1703.73 2752.98 1697.88 2785.01 1697.43C2813.11 1697.06 2842.13 1703.01 2866.53 1711.17C2866.89 1719.35 2868.27 1753.47 2868.47 1758.16C2835.12 1749.52 2801.39 1744.13 2768.97 1747.65C2731.98 1751.64 2698.67 1761.83 2666.94 1775C2630.57 1790.12 2598.96 1808.95 2570.06 1829.75C2533.02 1856.5 2496.92 1883.72 2460.82 1911.03C2396.01 1960.19 2331.59 2009.58 2269.33 2060.11C2225.33 2095.79 2185.35 2133.3 2151.13 2173.34C2132.52 2195 2118.42 2217.85 2103.8 2240.64C2093.97 2256.07 2083.75 2271.43 2073.12 2286.63C2046.93 2324.14 2002.35 2346.77 1943.31 2357.14C1901.73 2364.47 1859.55 2367.03 1817.09 2366.11C1733.47 2364.4 1651.55 2356.25 1572.03 2340.23C1454.35 2316.49 1348.89 2278.08 1256.32 2225.24C1167.65 2174.58 1105.12 2111.87 1068.34 2037.47C1049.44 1999.08 1042.16 1959.21 1045.74 1918.34C1052.16 1846.57 1092.99 1783.65 1166.12 1729.34C1185.57 1714.88 1207.32 1701.62 1227.72 1687.73C1239.32 1679.81 1251.2 1672.05 1262.12 1663.72C1269.49 1658.08 1276.18 1651.94 1281.81 1645.59C1307.97 1616.36 1293.41 1589.89 1264.7 1573.38C1246.91 1563.09 1225.5 1557.24 1202.74 1553.36C1170.72 1547.97 1138.11 1547.15 1104.98 1549.48C1017.64 1555.61 939.58 1578.49 867.937 1612.87C808.132 1641.66 757.533 1676.68 713.021 1715.69C663.832 1758.84 626.784 1806.24 596.803 1856.04C501.248 2015.18 532.422 2126.26 406.012 2125.04C282.972 2119.84 204.446 2013.2 -22.8059 1920.54C-52.7661 1908.35 -91.3861 1896.37 -118.035 1890.74C-118.723 1875.17 -119.418 1859.42 -120.114 1843.67Z" fill="#FF3475"/>
<path d="M-140.786 1375.56C-55.9003 1400.15 47.5037 1525.83 189.042 1610.85C214.664 1625.94 242.064 1639.63 272.364 1650.59C296.256 1659.21 321.606 1665.15 349.023 1667.34C383.95 1670.07 417.237 1665.38 449.514 1655.67C478.806 1646.79 505.2 1634.73 530.764 1621.74C576.11 1598.64 621.182 1575.29 666.663 1552.27C728.974 1520.75 792.801 1490.82 860.745 1464.89C947.29 1431.87 1038.54 1407.26 1134.36 1390.83C1193.28 1380.73 1252.84 1373.22 1312.92 1368.47C1352.32 1365.34 1391.88 1363.07 1431.4 1362.54C1468.28 1362.05 1504.63 1364.19 1540.11 1370.47C1602.73 1381.65 1649.51 1406 1680.98 1443.32C1702.88 1469.29 1716.73 1497.36 1723.03 1527.07C1736.67 1592.03 1723.84 1655.36 1684.65 1716.72C1658.85 1757.27 1618.72 1791.3 1569.72 1820.83C1543.1 1836.83 1514.57 1851.08 1484.54 1864C1474.87 1868.18 1465.07 1872.27 1455.68 1876.7C1447.7 1880.54 1439.87 1884.54 1432.58 1888.96C1402.65 1907.2 1394.29 1929.19 1405.11 1953.99C1414.61 1975.89 1434.93 1992.86 1461.03 2006.79C1493.45 2024.1 1530.95 2034.57 1571.78 2040.09C1611.55 2045.48 1652.17 2046.04 1692.9 2043.46C1743.33 2040.27 1792.79 2033.12 1840.73 2021.06C1919.45 2001.19 1989.6 1971.68 2052.98 1934.62C2119.05 1895.96 2174.47 1851.32 2223.44 1803.04C2266.36 1760.69 2302.08 1715.96 2334.33 1669.9C2374.48 1612.42 2408.65 1553.37 2442.68 1494.33C2460.74 1463.11 2478.27 1431.74 2497.13 1400.65C2514.51 1371.9 2535.89 1344.37 2563.27 1319.01C2591.4 1292.83 2625.22 1270.5 2667.2 1254.27C2702.58 1240.5 2740.47 1233.16 2781.06 1233.11C2804.04 1233.05 2827.47 1238.43 2848.35 1244.31C2849.39 1267.98 2848.67 1293.74 2849.73 1317.92C2847.47 1317.24 2838.05 1313.3 2836.31 1312.68C2798.09 1297.89 2763.08 1292.92 2718.34 1296.99C2684.06 1300.08 2653.73 1309.35 2626.81 1324.22C2600.4 1338.9 2579.24 1356.58 2560.65 1375.7C2534.89 1402.12 2513.8 1430.17 2495.24 1458.97C2470.54 1497.46 2447.17 1536.33 2423.14 1575.14C2386.98 1633.75 2348.29 1691.6 2302.55 1747.41C2261.79 1797.07 2215.8 1844.35 2160.72 1887.84C2094.34 1940.21 2017.74 1984.39 1928.89 2018.74C1870 2041.48 1808.13 2059.12 1742.1 2068.92C1656.24 2081.78 1571.99 2080.53 1490.33 2060.6C1440.54 2048.41 1398.45 2029.26 1367.36 2000.47C1350.65 1984.9 1337.69 1968.04 1331.6 1949.04C1327.63 1936.58 1327.07 1923.96 1331.51 1911.3C1338.4 1891.9 1354.14 1876.47 1379.81 1865.92C1394.13 1860.06 1409.28 1855.12 1424.57 1850.52C1450.89 1842.65 1477.35 1835.03 1501.71 1824.45C1587.67 1787.26 1643.45 1735.54 1672.38 1671.06C1687.69 1636.91 1693.25 1602.14 1689.07 1567.1C1686.1 1541.34 1677.25 1516.63 1661.9 1493.16C1633.31 1449.43 1585.37 1419.73 1517.55 1403.98C1481.72 1395.63 1444.61 1391.08 1406.57 1389.27C1358.01 1387.05 1309.32 1388.07 1260.74 1391.44C1159.78 1398.51 1062.59 1416.4 968.983 1444.25C881.214 1470.35 800.352 1504.18 724.198 1543.46C672.316 1570.25 622.609 1598.68 573.858 1627.95C545.451 1644.98 516.373 1661.69 485.649 1676.83C466.366 1686.31 446.25 1694.78 424.056 1700.82C378.627 1713.11 324.034 1717.18 279.631 1705.1C146.213 1667.14 -18.1852 1504.67 -137.528 1449.35C-138.611 1424.81 -139.698 1400.19 -140.786 1375.56Z" fill="#FF3475"/>
<path d="M-111.704 2034.14C101.872 2055.04 436.256 2399.45 575.678 2356.25C635.917 2334.32 576.19 2260.76 609.458 2023.65C621.988 1950.48 648.283 1879.66 699.847 1812.96C744.7 1754.92 805.989 1706.18 886.67 1668.27C913.175 1655.77 941.211 1645.2 972.47 1639.2C996.302 1634.57 1020.38 1632.46 1044.67 1635.31C1049.03 1635.82 1053.26 1636.59 1057.25 1637.64C1071.6 1641.27 1080.42 1647.77 1082.73 1658.31C1085.49 1670.39 1082.73 1682.11 1077.46 1693.76C1071.49 1707.19 1062.19 1719.71 1052.76 1732.25C1029.3 1763.19 1011.95 1795.51 998.971 1828.86C987.874 1857.16 982.834 1885.81 981.488 1914.81C980.049 1944.69 983.457 1974.27 991.314 2003.47C1001.22 2040.35 1019.18 2075.3 1042.86 2108.95C1080.69 2162.55 1133.69 2208.68 1197.87 2249.18C1282.86 2302.79 1380.43 2343.9 1488.44 2374.7C1598.45 2406.02 1713.28 2427.54 1831.71 2441.57C1888.49 2448.31 1945.72 2453.45 2003.26 2456.66C2053.04 2459.44 2102.77 2461.34 2152.97 2458.86C2179.31 2457.61 2205.32 2454.63 2230.39 2448.2C2263.63 2439.68 2287 2424.43 2300.88 2402.72C2311.09 2386.93 2315.48 2370.43 2317.89 2353.67C2321.09 2330.87 2320.21 2308.06 2319.73 2285.33C2318.19 2214.61 2348.04 2149.91 2412.98 2091.77C2455.31 2053.9 2503.17 2019.44 2554.41 1986.93C2584.18 1968.09 2614.35 1949.41 2647.53 1933.21C2677.87 1918.45 2710.03 1905.96 2745.95 1898.53C2786.04 1890.22 2825.69 1889.86 2865.07 1898.15C2868.12 1898.8 2871.17 1899.62 2874.76 1900.43C2875.47 1916.7 2876.19 1932.88 2876.92 1949.5C2835.79 1943.03 2783.49 1939.59 2738.66 1950.63C2706.05 1958.61 2676.35 1970.3 2648.73 1984.25C2595.66 2011 2547.5 2041.55 2503.11 2074.54C2476.15 2094.56 2452.81 2116.34 2434.16 2140.1C2409.41 2171.61 2395.52 2204.92 2390.89 2239.91C2387.75 2263.93 2390.11 2287.72 2391.42 2311.55C2392.84 2337.64 2394.38 2363.64 2390.94 2389.77C2388.69 2407.21 2384.73 2424.56 2375.22 2441.29C2373.15 2444.95 2370.81 2448.54 2368.21 2452.06C2352.7 2472.71 2328.06 2485.82 2294.69 2491.57C2270.45 2495.78 2245.8 2496.95 2221.22 2496.38C2146.4 2494.54 2072.55 2487.95 1998.93 2480.48C1903.27 2470.76 1808.67 2458.11 1715.37 2442.18C1619.94 2425.82 1527.33 2404.71 1439.11 2376.09C1350.76 2347.39 1269.09 2312.2 1196.86 2267.96C1108.98 2214.22 1041.95 2150.84 1000.02 2075.71C983.905 2046.87 973.387 2016.91 966.521 1986.35C961.458 1963.9 959.145 1941.25 958.793 1918.43C958.228 1884.8 965.034 1851.55 976.98 1818.68C986.006 1794.04 996.752 1769.68 1006.7 1745.09C1012.03 1731.96 1016.57 1718.85 1016.11 1705.27C1015.96 1701.97 1015.68 1698.67 1014.75 1695.48C1011.32 1683.25 999.735 1676.62 981.648 1674.54C966.334 1672.77 951.316 1674.74 936.626 1678.18C901.265 1686.46 870.34 1700.03 842.03 1716.27C802.19 1739.13 769.752 1766.02 742.3 1795.74C701.431 1839.91 673.848 1887.51 655.426 1937.32C642.975 1970.65 635.139 2004.38 631.259 2038.47C606.727 2256.28 738.872 2426.02 669.874 2457.83C525.702 2524.35 180.102 2134.15 -109.295 2088.69C-110.001 2072.68 -110.989 2050.32 -111.704 2034.14Z" fill="#B92454"/>
<path d="M-150.654 1152.04C-93.0976 1131.8 21.3375 1105.73 63.0611 1143.38C113.409 1188.93 96.4122 1244.26 182.502 1358.58C210.674 1395.7 245.141 1429.66 290.028 1458.63C308.957 1470.87 329.406 1481.82 352.264 1490.84C403.468 1511.15 458.298 1515.45 516.894 1503.88C551.271 1497.13 583.938 1487.32 616.462 1477.25C669.849 1460.77 721.972 1442.43 773.544 1423.5C877.983 1385.24 986.239 1353.08 1097.44 1325.16C1159.41 1309.6 1220.93 1292.94 1281.05 1274.24C1347.39 1253.62 1409.72 1228.55 1465.98 1196.77C1480.33 1188.64 1494.95 1180.67 1509.72 1172.96C1522.56 1166.29 1535.53 1159.61 1549.06 1153.61C1565.54 1146.25 1583.85 1141.44 1603.49 1139.96C1629.15 1138.04 1652.07 1142.61 1672.59 1152.16C1688.14 1159.32 1701.02 1168.34 1712.49 1178.21C1747.17 1208.15 1774.88 1240.75 1797.82 1275.4C1825.69 1317.49 1845.63 1361.51 1859.06 1406.86C1872.78 1452.98 1879.45 1499.76 1879.57 1547.18C1879.74 1592.77 1870.57 1637.9 1855.21 1682.6C1843.58 1716.77 1829.44 1750.52 1813.05 1783.85C1805.22 1799.89 1797.93 1816.16 1795.25 1832.93C1794.02 1840.66 1793.96 1848.33 1796.92 1855.87C1800.78 1865.82 1810.13 1872.29 1824.59 1875.66C1836.4 1878.37 1848.88 1878.51 1861.33 1877.79C1885.7 1876.36 1908.73 1871.51 1931.17 1864.94C1973.82 1852.33 2011.52 1834.45 2047.01 1814.23C2107.1 1780.02 2156.29 1739.84 2198.07 1695.45C2242.73 1648.05 2277.42 1597.62 2307.04 1545.66C2327.27 1509.98 2343.52 1473.43 2360.83 1437.18C2385.72 1385.17 2412.07 1333.45 2442.26 1282.51C2449.97 1269.53 2458.86 1256.84 2467.89 1244.24C2491.9 1210.83 2525.16 1181.73 2566.21 1156.55C2638.97 1111.84 2784.46 1040.39 2837.06 1021.07C2837.69 1035.25 2840.55 1048.08 2841.17 1062.09C2811.08 1070.83 2734.98 1099.67 2690.02 1122.67C2657.01 1139.55 2624.41 1156.86 2592.49 1174.57C2553 1196.45 2522.79 1223.33 2497.43 1252.7C2470.56 1283.7 2449.41 1316.45 2432.11 1350.08C2412.04 1389.24 2393.03 1428.7 2373.75 1468.09C2349.17 1518.08 2323.51 1567.77 2292.03 1616.15C2256.48 1670.72 2213.59 1722.66 2159.21 1770.39C2108.77 1814.82 2050.33 1853.75 1980.24 1884.57C1938.49 1902.98 1894.5 1917.99 1846.56 1927.09C1816.73 1932.67 1786.53 1935.75 1756.18 1932.56C1744.83 1931.4 1733.57 1929.37 1723.07 1926.52C1702.33 1920.9 1692.39 1909.92 1692.25 1894.84C1692.12 1885.96 1694.89 1877.29 1699.11 1868.74C1705.86 1855.1 1715.81 1842.28 1726.28 1829.7C1765.44 1782.38 1796.09 1732.99 1817.05 1681.15C1830.68 1647.59 1838.89 1613.49 1841.96 1579.01C1845.78 1537.6 1841.48 1496.73 1831.55 1456.2C1819.03 1404.71 1796.76 1355.39 1763.17 1308.75C1748.34 1288.04 1730.41 1268.7 1707.45 1251.58C1695.5 1242.69 1682.53 1234.46 1667.01 1228.17C1634.24 1214.71 1598.7 1213.05 1561.19 1220.11C1541 1223.97 1521.81 1229.61 1503.18 1236.1C1450.4 1254.47 1396.91 1271.65 1341.31 1285.53C1284.02 1299.83 1226.59 1313.96 1168.44 1326.73C1022.23 1358.99 883.055 1401.92 748.563 1452.67C696.756 1472.22 645.361 1492.19 593.824 1511.9C564.373 1523.14 534.089 1533.37 501.689 1540.29C434.68 1554.67 372.578 1549.31 315.145 1524.73C284.753 1511.69 258.938 1495.22 235.16 1477.26C170.215 1428.35 120.49 1373.09 87.2795 1311.09C62.8451 1269.37 53.0191 1231.27 14.144 1198.64C-44.4435 1156.85 -122.795 1188.03 -148.805 1193.89C-149.436 1179.62 -150.023 1166.31 -150.654 1152.04Z" fill="#B92454"/>
<path d="M-129.162 1638.77C115.226 1747.67 246.448 1845.97 353.193 1833.15C493.779 1816.3 529.506 1712.2 742.421 1590.25C827.676 1539.93 923.04 1501.37 1029.75 1475.83C1095.25 1460.12 1162.37 1451.05 1231.27 1449.75C1288.62 1448.7 1344.87 1452.5 1398.51 1465.38C1433.02 1473.62 1464.53 1485.31 1491.53 1501.73C1531.08 1525.78 1554.73 1555.78 1561.43 1591.49C1568.85 1631.7 1557.01 1669.97 1523.9 1705.25C1495.54 1735.45 1454.77 1755.03 1403.99 1765.12C1384.98 1768.93 1365.96 1772.38 1346.65 1775.41C1293.56 1783.77 1254.29 1804.6 1225.43 1835.17C1202.09 1859.91 1188.96 1886.82 1186.55 1915.43C1181.09 1979.14 1210.46 2034.42 1272.8 2081.01C1320.88 2116.9 1378.43 2144.09 1447.7 2159.94C1489.09 2169.36 1531.87 2174.27 1575.94 2175.9C1660.27 2178.98 1740.33 2165.77 1817.99 2142.72C1908.49 2115.8 1989.22 2079.02 2062.92 2034.7C2142.38 1986.99 2211.05 1933.05 2272.99 1875.3C2330.27 1821.86 2380.86 1765.84 2429.71 1709.11C2463.44 1669.87 2497.71 1630.87 2532.51 1592.02C2552.03 1570.15 2573.96 1549.21 2600.06 1530.45C2616.48 1518.57 2634.25 1507.67 2654.47 1498.58C2704.06 1476.25 2755.54 1473.28 2808.37 1488.73C2825.01 1493.67 2841.03 1499.5 2857.56 1504.96C2858.36 1523.14 2859.68 1553.07 2860 1560.21C2851.06 1557.12 2835.98 1551.85 2826.92 1548.85C2779.58 1532.81 2731.3 1534.07 2682.47 1549.48C2648.4 1560.22 2620.47 1576.36 2595.69 1595.16C2566.08 1617.65 2540.09 1641.81 2515.58 1666.69C2479.12 1703.61 2443.72 1740.83 2408.06 1778.06C2351.19 1837.59 2291.1 1895.6 2224.17 1950.6C2148.26 2013.06 2063.67 2069.63 1967.58 2118.5C1914.14 2145.62 1857.38 2169.05 1795.63 2186.51C1743.74 2201.18 1690.05 2210.88 1634.37 2214.03C1565.97 2217.84 1500.5 2210.62 1438.16 2193.93C1355.62 2171.86 1285.58 2138.42 1232.26 2090.91C1196.71 2059.26 1171.52 2024.2 1159.02 1985.08C1145.32 1942.53 1148.7 1900.1 1171.55 1858.38C1200.47 1805.41 1255.37 1769.51 1335.32 1750.81C1356.9 1745.76 1378.91 1741.39 1400.2 1735.74C1467.83 1717.67 1506.4 1683.88 1516.8 1636.87C1527.75 1587.22 1503.08 1546.29 1447.3 1514.49C1411.73 1494.27 1369.32 1482.54 1323.69 1475.4C1274.09 1467.65 1223.48 1466.75 1172.4 1469.96C1101.01 1474.51 1032.78 1487.9 967.213 1508.23C861.741 1540.96 770.502 1586.66 691.457 1643.76C640.796 1680.35 595.918 1719.99 553.589 1760.83C478.824 1840.5 413.296 1900.32 332.884 1896.72C282.742 1894.49 236.435 1875 171.253 1841.53C85.1056 1797.3 -12.5216 1739.97 -126.78 1692.71C-127.571 1674.79 -128.366 1656.78 -129.162 1638.77Z" fill="#B92454"/>
<path d="M-153.911 1078.25C-1.39481 1010.32 61.865 1006.22 86.1901 1006.8C112.485 1007.38 134.697 1013.64 152.843 1026C169.637 1037.46 179.979 1051.56 188.128 1066.55C198.138 1085.02 204.246 1104.37 208.916 1123.87C214.58 1148.03 219.203 1172.41 225.65 1196.44C239.16 1246.59 262.024 1294.4 302.023 1337.61C324.783 1362.24 352.163 1384.39 386.702 1402.14C417.078 1417.79 451.161 1428.15 490.299 1431.04C514.809 1432.83 539.327 1431.84 563.891 1428.92C613.279 1422.99 660.034 1410.99 705.795 1397.29C815.589 1364.28 925.109 1331.02 1034.76 1297.85C1083.76 1283.04 1132.76 1268.41 1180.07 1251.07C1225.7 1234.32 1268.99 1215.32 1306.8 1191.07C1343.71 1167.38 1375.65 1141.13 1404.09 1112.93C1421.58 1095.51 1438 1077.7 1455.09 1060.12C1473.31 1041.44 1493 1023.4 1515.92 1007.04C1531.97 995.611 1549.24 985.258 1569.92 977.545C1585.29 971.81 1600.38 968.528 1615.2 967.874C1682.32 964.91 1733.05 992.485 1789.88 1068.7C1874.35 1182.05 1952.74 1377.88 1959.84 1538.58C1961.25 1570.52 1960.69 1602.54 1961.18 1634.42C1961.55 1654.63 1962.97 1674.88 1971.44 1694.21C1973.92 1699.94 1977.85 1705.43 1982.27 1710.56C1988.5 1717.69 1998.62 1720.73 2011.47 1720.25C2025.37 1719.73 2038.25 1716.89 2050.39 1712.34C2073.01 1704.02 2092.22 1692.8 2109.65 1680.17C2139.45 1658.81 2164.27 1634.96 2187.21 1610.23C2226.47 1568.13 2256.53 1523.22 2282.61 1477.17C2305.14 1437.29 2323.71 1396.63 2342.14 1355.89C2359.48 1317.46 2377.9 1279.33 2402.14 1242.35C2420.48 1214.42 2441.62 1187.51 2469.17 1162.93C2484.33 1149.36 2501.11 1136.67 2519.38 1125.06C2610.47 1067.16 2704.29 1011.41 2805.45 961.431C2812.65 957.887 2824.49 952.308 2832.73 948.544C2832.82 950.633 2834.2 981.869 2834.29 983.957C2750.63 1019.82 2669.81 1063.58 2595.44 1107.58C2576.24 1118.88 2557.04 1130.19 2538.23 1141.66C2499.48 1165.34 2470.92 1193.8 2447.46 1224.74C2422.76 1257.3 2404.17 1291.43 2387.44 1325.9C2364.92 1372.23 2343.2 1418.61 2320.28 1464.78C2297.12 1511.4 2270.51 1557.21 2238.05 1601.53C2209.81 1640.09 2177.42 1676.92 2137 1710.61C2107.74 1735.01 2075.37 1757.36 2037.98 1776.36C2015.12 1788.09 1990.87 1798.23 1963.28 1803.89C1954.04 1805.78 1944.24 1806.91 1934.66 1807.25C1913.68 1807.91 1899.85 1801.2 1893.23 1788.07C1888.18 1777.92 1887.71 1767.3 1888.29 1756.55C1889.51 1736.62 1895.21 1717.02 1898.94 1697.24C1904.67 1666.47 1910.93 1635.77 1915.09 1604.9C1919.14 1574.73 1918.47 1544.6 1916.87 1514.5C1915.24 1483.45 1910.99 1452.69 1904 1422.14C1880.38 1312.73 1768.46 1050.73 1605.9 1069.67C1499.18 1079.97 1444.04 1199.57 1124.59 1294.58C1061.05 1313.08 996.808 1330.65 933.835 1350.17C848.182 1376.61 763.516 1404.59 678.426 1431.88C644.884 1442.69 611.065 1453.17 575.53 1460.49C548.717 1466.03 521.554 1469.59 493.739 1470.29C444.935 1471.57 401.688 1461.89 362.787 1443.56C330.46 1428.33 304.264 1409.18 281.006 1388.15C235.455 1347.09 204.011 1301.32 185.007 1251.68C176.547 1229.65 170.563 1207.16 163.537 1184.89C156.516 1162.71 148.978 1140.72 135.714 1119.95C128.66 1108.93 120.055 1098.5 108.093 1089.35C86.3381 1072.61 58.3976 1064.52 24.4447 1066.02C-45.3116 1068.75 -148.333 1112.35 -152.355 1113.49C-152.873 1101.75 -153.392 1090 -153.911 1078.25Z" fill="#F44C7F"/>
<path d="M-107.276 2134.37C37.7988 2162.66 205.646 2284.27 375.64 2389.05C541.181 2491.15 709.955 2577.24 770.817 2551.54C856.432 2515.33 666.884 2378.2 653.793 2081.76C655.181 2012.04 671.342 1943.76 710.992 1877.94C730.206 1846.05 754.215 1815.7 785.697 1787.98C803.902 1771.92 824.535 1757.32 848.824 1745.18C866.299 1736.39 885.038 1729.46 906.299 1726.08C932.514 1721.87 949.269 1729.5 953.068 1747.11C955.041 1756.09 954.781 1765.08 953.469 1774.03C949.223 1802.82 944.322 1831.63 940.208 1860.4C935.792 1891.29 933.871 1922.14 937.07 1952.95C951.873 2124.56 1128.59 2253.63 1252.17 2315.82C1331.3 2355.66 1418.04 2386.7 1510.17 2411.66C1593.92 2434.38 1680.34 2452.1 1767.97 2467.49C1864.87 2484.4 1963.07 2498.28 2061.27 2511.99C2127.75 2521.26 2194.23 2530.79 2260.72 2540.15C2284.64 2543.45 2308.89 2545.34 2333.67 2544.42C2376.15 2542.72 2406.52 2528.39 2427.24 2503.94C2440.35 2488.45 2447.36 2471.67 2452.11 2454.46C2458.8 2430.36 2460.35 2406.06 2459.68 2381.76C2459 2360.43 2457.01 2339.25 2456.33 2317.92C2455.36 2286.93 2455.56 2255.88 2461.55 2224.85C2468.38 2189.24 2487.84 2156.91 2518.57 2127.04C2547.54 2099 2582.33 2074.79 2621.56 2053.1C2646.69 2039.17 2672.51 2026 2701.07 2015.33C2733.89 2003.07 2768.35 1995.18 2805.72 1993.79C2828.67 1992.95 2857.95 1995.67 2879.19 2000.92C2879.96 2018.32 2880.74 2035.9 2881.53 2053.82C2859.92 2052.34 2759.06 2049.64 2704.57 2070.97C2650.22 2092.28 2605.23 2120.6 2570.27 2155.62C2543.47 2182.43 2528.49 2211.95 2522.52 2243.42C2516.11 2276.66 2516.01 2309.97 2516.94 2343.14C2518.03 2379.53 2517.92 2415.89 2514.8 2452.3C2512.75 2477.15 2509.64 2501.96 2500.08 2526.26C2495.48 2538.15 2489.16 2549.68 2479.78 2560.38C2469.66 2572.07 2456.91 2580.91 2441.68 2586.99C2428 2592.48 2375.63 2611.09 2260.84 2578.68C2196.51 2561.55 2131.93 2544.7 2064.44 2533.21C2006.61 2523.38 1948.41 2514.36 1890.47 2504.97C1784.5 2487.86 1679.5 2468.78 1577.39 2443.83C1493.35 2423.3 1412.16 2399.16 1335.8 2368.45C1228.69 2325.4 1136.6 2271.5 1062.19 2204.52C983.341 2135.2 930.364 2065.8 910.412 1956.05C897.792 1887.38 914.727 1803.9 884.906 1788.92C864.125 1779.37 795.235 1792.79 715.991 1916.77C699.43 1949.24 689.211 1982.55 683.48 2016.37C679.085 2041.76 677.573 2067.02 678.688 2092.25C691.897 2391.39 989.817 2570.38 880.462 2631.18C785.976 2683.65 555.516 2542.13 339.676 2407.47C161.12 2296.18 -3.05991 2192.19 -104.99 2186.14C-105.751 2168.91 -106.515 2151.6 -107.276 2134.37Z" fill="#F44C7F"/>
<path d="M-115.883 1939.47C-55.6681 1952.68 90.1386 2012.41 174.588 2062.82C205.751 2081.4 235.887 2100.56 266.667 2119.43C305.008 2142.93 344.748 2165.41 389.297 2183.76C400.802 2188.48 412.815 2192.83 425.322 2196.46C433.172 2198.73 442.02 2199.82 450.719 2200.48C467.325 2201.76 481.186 2197.39 492.373 2188.97C499.873 2183.32 505.098 2176.72 509.387 2169.73C518.457 2155.04 523.291 2139.57 527.338 2124.13C538.367 2082.41 548.344 2040.65 560.299 1999.06C577.616 1939.1 603.539 1880.68 642.042 1824.58C675.983 1775.22 718.888 1729.56 774.778 1689.43C831.427 1648.65 896.426 1615.53 972.794 1592.98C1009.36 1582.21 1047.11 1574.44 1086.81 1572.34C1119.05 1570.66 1150.28 1572.94 1179.44 1581.85C1185.56 1583.76 1191.7 1585.84 1197.33 1588.38C1222.79 1599.9 1232.45 1619.26 1223.23 1639.46C1218.19 1650.32 1209.42 1659.86 1199.04 1668.78C1185.24 1680.63 1170.91 1692.16 1157.12 1704.02C1127.12 1729.58 1099.26 1756.09 1077.16 1784.96C1049.21 1821.42 1032.13 1859.83 1026.16 1900.11C1016.74 1963.56 1033.45 2023.67 1070 2081.08C1102.75 2132.46 1150.16 2177.09 1208 2216.82C1283.45 2268.59 1372.76 2307.1 1472.41 2335.83C1575.12 2365.47 1683.1 2383.63 1795.03 2393.15C1835.77 2396.59 1876.91 2397.3 1918.14 2396.87C1944.4 2396.67 1970.64 2395.95 1996.92 2393.31C2022.82 2390.77 2048.25 2386.77 2072.35 2379.25C2104.88 2369.18 2128.49 2353.58 2142.75 2331.59C2153.82 2314.54 2160.65 2296.8 2166.83 2278.92C2173.92 2258.12 2179.96 2237.28 2189.83 2216.88C2207.77 2180 2234.9 2145.93 2267.63 2113.71C2293.69 2088.15 2322.7 2063.94 2352.25 2040.14C2397.79 2003.44 2443.05 1966.65 2491.41 1931.56C2534.69 1900.19 2580.26 1870.36 2630.18 1843.66C2663.92 1825.52 2700.57 1810.74 2741.67 1801.6C2773.28 1794.63 2805.2 1791.56 2837.34 1796.77C2847.4 1798.41 2860.95 1802 2870.65 1804.36C2870.85 1809.06 2872.08 1836.73 2872.75 1851.96C2839.06 1844.55 2815.53 1841.14 2787.53 1843.6C2744.87 1847.23 2705.79 1857.67 2669.59 1873.66C2638.54 1887.41 2609.95 1903.05 2582.71 1919.95C2507.93 1966.49 2437.74 2015.88 2374.97 2069.74C2342.95 2097.22 2314.14 2125.87 2291.75 2157.28C2268.5 2189.95 2253.71 2223.91 2248.85 2259.61C2246.17 2279.25 2243.36 2298.91 2240.16 2318.49C2238.08 2330.96 2234.16 2343.25 2228.65 2355.35C2213.91 2387.47 2182.39 2408.39 2133.96 2418.11C2110.53 2422.81 2086.73 2425.26 2062.62 2426.58C2010.2 2429.33 1958.14 2428.32 1906.25 2425.12C1805.63 2418.93 1706.97 2406.72 1610.66 2388.13C1481.5 2363.24 1363.91 2323.79 1260.67 2267.33C1204.41 2236.6 1153.9 2202.21 1111.82 2162.48C1061.24 2114.68 1028.04 2061.74 1012.33 2003.5C1003.85 1972.15 999.564 1940.43 1002.22 1908.32C1005.66 1867.28 1020.46 1827.74 1045.71 1789.66C1066.52 1758.23 1091.99 1728.34 1119.47 1699.14C1128.5 1689.5 1137.39 1679.69 1145.22 1669.58C1152.55 1660.02 1156.69 1649.81 1156.22 1639.11C1155.45 1621.62 1142.59 1609.98 1117.91 1604.45C1099.34 1600.3 1080.16 1600.1 1060.64 1601.22C1007.18 1604.37 957.657 1616.06 911.055 1634.5C843.801 1661.19 788.483 1696.41 742.66 1738.45C685.982 1790.47 645.019 1847.37 618.167 1908.54C528.161 2136.82 618.535 2247.04 522.749 2278.99C433.826 2308.72 309.052 2198.81 147.86 2094.07C85.7746 2059.33 6.47157 2012.44 -113.723 1985.41C-114.523 1970.27 -115.203 1954.87 -115.883 1939.47Z" fill="#F44C7F"/>
<path d="M-146.622 1243.4C2.2116 1225.93 33.2674 1334.31 86.8698 1400.03C134.25 1458.7 181.703 1501.16 255.782 1545.75C273.728 1556.55 293.448 1565.88 315.185 1573.29C365.059 1590.27 417.526 1591.61 471.95 1580.75C507.492 1573.6 540.351 1562.21 571.684 1548.97C609.849 1532.81 647.464 1516.07 685.625 1499.83C754.985 1470.26 825.867 1442.46 899.525 1418.02C984.831 1389.67 1073 1366.69 1163.9 1348.9C1234.87 1335.04 1306.01 1321.96 1377.13 1308.53C1408 1302.72 1438.73 1296.57 1469.61 1290.85C1497.61 1285.6 1525.96 1282.08 1554.78 1280.29C1608.62 1277.04 1654.13 1287.32 1690.98 1312.81C1715.23 1329.52 1733.03 1349.05 1747.36 1370.12C1770.54 1404.32 1788 1439.81 1796.62 1477.18C1814.82 1556.32 1806.58 1634.45 1764.14 1711.38C1740.91 1753.38 1708.47 1792.3 1669.78 1829.15C1657.04 1841.21 1643.11 1852.81 1630.11 1864.81C1620.39 1873.7 1610.67 1882.67 1601.89 1892.03C1593.24 1901.31 1587.24 1911.34 1586.68 1922.35C1586.06 1932.05 1589.59 1940.79 1598.08 1948.52C1609.16 1958.58 1623.91 1965.43 1641.32 1969.98C1665.1 1976.16 1690.15 1978.11 1715.73 1977.5C1785.28 1976 1850.92 1963.25 1913.41 1941.83C1981.6 1918.51 2040.63 1887.04 2093.92 1850.43C2159.95 1804.97 2213.37 1753.53 2258.21 1698.2C2300.31 1646.12 2334.69 1591.95 2364.43 1536.58C2388.33 1491.94 2410.64 1446.93 2433.88 1402.14C2485.48 1306.49 2535.79 1247.08 2592.33 1209.8C2678.11 1153.36 2780.66 1120.06 2839.7 1112.48C2839.89 1116.74 2842.08 1166.43 2842.33 1172C2687.97 1177.42 2591.64 1235.63 2545.39 1288.85C2520.65 1314.62 2501.51 1342.22 2483.97 1370.29C2454.76 1416.91 2429.54 1464.4 2403.66 1511.75C2377.41 1559.81 2351.03 1607.88 2319.73 1654.68C2275.5 1720.88 2220.85 1783.19 2151.37 1839.7C2098.37 1882.75 2038.17 1920.54 1967.38 1950.43C1904.85 1976.91 1837.77 1995.65 1766.12 2006.05C1717.57 2013.07 1668.8 2015.32 1620.21 2009.44C1591.29 2006.01 1564.09 1999.71 1539.08 1989.66C1528.12 1985.26 1517.91 1980.13 1509.09 1973.9C1483.88 1956.09 1479.77 1934.48 1497.17 1912.09C1504.63 1902.52 1514.37 1894.07 1525.86 1886.59C1540.16 1877.32 1555 1868.39 1569.71 1859.37C1658.83 1804.26 1722.28 1739.21 1750.87 1660.8C1766.92 1616.67 1771.13 1572.2 1764.56 1527.51C1759.26 1490.95 1746.81 1455.84 1724.59 1422.56C1715.45 1408.93 1704.63 1395.98 1691.75 1383.91C1659.27 1353.18 1614.36 1335.63 1557.91 1330.37C1525.86 1327.42 1493.55 1327.45 1461.22 1329.93C1422.6 1332.85 1383.98 1335.78 1345.55 1340C1195.48 1356.31 1050.13 1384.17 912.258 1429.75C848.305 1450.89 787.541 1475.8 728.43 1502.47C678.465 1525.08 629.191 1548.44 579.639 1571.46C545.275 1587.45 509.809 1602.27 471.709 1613.98C449.677 1620.7 426.77 1625.46 402.815 1627.31C367.073 1629.93 333.634 1625.22 302.301 1614.66C282.704 1608.11 265 1599.83 247.67 1591.09C-5.49546 1449.97 12.4428 1311.87 -143.898 1305.09C-144.805 1284.55 -145.711 1264.02 -146.622 1243.4Z" fill="#F44C7F"/>
<path d="M-134.511 1517.65C13.4263 1586.96 212.767 1758.45 359.721 1751.96C455.287 1747.74 519.527 1688.49 624.086 1623.2C668.021 1594.93 712.77 1567.24 761.736 1542.85C825.351 1511.09 892.008 1482.78 964.466 1460.92C1025.52 1442.54 1088.63 1429.2 1153.94 1420.82C1205.66 1414.18 1257.75 1409.96 1310.15 1409.83C1372.01 1409.63 1432.26 1414.81 1489.04 1430.52C1536.91 1443.75 1577.05 1463.51 1606.04 1492.31C1628.84 1514.93 1641.65 1540.26 1646.66 1567.5C1652.33 1597.67 1650.78 1627.9 1639.76 1658.03C1625.94 1696.04 1597.45 1729.03 1559.1 1758.8C1540.81 1772.94 1520.34 1785.35 1497.17 1795.97C1473.35 1806.87 1446.96 1813.18 1419.88 1818.65C1401.27 1822.43 1382.52 1826.23 1364.34 1830.95C1312.66 1844.48 1283.87 1870.6 1274.27 1905.98C1266.47 1934.57 1274.62 1961.67 1292.17 1987.22C1320.81 2028.94 1367.33 2059.31 1428.4 2079.98C1470.54 2094.25 1515.94 2102.18 1563.38 2105.75C1649.7 2112.14 1733.73 2102.59 1815.83 2081.88C1924.69 2054.4 2019.36 2012.04 2102.05 1957.21C2165.73 1915.08 2219.61 1867.98 2267.7 1817.82C2320.94 1762.38 2366.32 1704.32 2407.56 1644.87C2437.57 1601.7 2466.79 1558.39 2496.94 1515.3C2514.98 1489.66 2534.36 1464.39 2556.93 1440.21C2572.86 1423.2 2590.67 1407.07 2612.24 1392.87C2632.53 1379.51 2655.03 1368.4 2682.08 1362.41C2746.1 1345.72 2820.94 1368.92 2851.82 1383.94C2851.94 1386.64 2854.47 1443.98 2854.56 1445.98C2796.54 1423 2766.98 1419.86 2746.31 1418.85C2713.8 1417.33 2683.69 1422.67 2655.43 1434.03C2631.56 1443.62 2611.76 1456.36 2593.86 1470.4C2566.82 1491.64 2544.2 1514.87 2524.53 1539.28C2500.5 1569.2 2477.41 1599.51 2454.05 1629.74C2411.55 1684.63 2368.52 1739.36 2320.56 1792.39C2272.59 1845.33 2220.19 1896.12 2158.68 1942.86C2097.3 1989.51 2028.85 2030.8 1951.02 2064.84C1883.11 2094.51 1810.28 2116.73 1731.92 2129.96C1683.81 2138.1 1635.13 2142.17 1585.96 2141.11C1506.29 2139.31 1432.27 2125.93 1366.87 2096.47C1300.27 2066.55 1255.39 2025.73 1234.82 1973.45C1221.51 1939.69 1221.98 1905.76 1240.98 1871.97C1249.63 1856.68 1262.29 1842.87 1279.22 1830.79C1303.42 1813.68 1332.51 1803.06 1366.86 1798.85C1388.16 1796.25 1409.6 1793.99 1430.26 1788.98C1485.5 1775.65 1527.38 1751.48 1558.5 1718.55C1582.72 1692.98 1596.33 1665.09 1602.78 1635.69C1608.69 1608.84 1607.52 1582.39 1596.79 1556.53C1579.44 1514.5 1541.41 1483.22 1485.16 1461.73C1448.16 1447.59 1407.61 1439.61 1365.37 1434.94C1303.87 1428.15 1241.9 1428.8 1179.64 1434.86C1031.08 1449.44 898.65 1490.42 778.804 1551.59C721 1581.09 668.489 1614.44 618.692 1649.77C532.089 1708.25 469.82 1791.29 353.803 1796.42C197.017 1803.34 32.1688 1660.41 -131.741 1580.38C-132.663 1559.5 -133.585 1538.62 -134.511 1517.65Z" fill="#F44C7F"/>
<path d="M-124.444 1745.61C122.257 1829.57 233.578 1944.18 359.102 1943.17C454.34 1940.44 490.009 1858.84 553.548 1795.62C605.095 1737.46 664.156 1682.89 735.3 1634.24C785.282 1600.13 840.171 1570.07 902.031 1546.15C963.886 1522.15 1029.17 1504.36 1098.61 1494.49C1165.05 1485.02 1231.34 1484.19 1296.8 1494.2C1335.95 1500.23 1372.25 1510.31 1403.59 1526.97C1436.94 1544.67 1459.61 1567.21 1467.05 1595.74C1477.5 1636.25 1458.93 1670.64 1409.42 1697.67C1393.39 1706.4 1375.28 1712.78 1356.89 1718.73C1339.28 1724.39 1321.39 1729.8 1303.78 1735.55C1261.18 1749.46 1223.37 1767.69 1192.8 1792.23C1156.52 1821.38 1135.14 1854.85 1125.73 1891.44C1113.05 1940.56 1122.37 1987.84 1147.89 2033.44C1176.7 2084.99 1223.01 2128.46 1285.01 2164.16C1361.42 2208.04 1449.54 2237.37 1549.94 2250.45C1600.28 2257.04 1651.13 2257.58 1702.36 2251.74C1760.39 2245.08 1814.24 2230.33 1864.4 2209.11C1910.82 2189.53 1953.41 2166.56 1994.77 2142.41C2050.99 2109.59 2102.19 2073.5 2152.05 2036.52C2271.85 1947.62 2379.84 1852.8 2479.62 1753.8C2508.56 1725.06 2538.84 1696.88 2573.15 1670.69C2594.62 1654.22 2617.45 1638.74 2643.25 1625.22C2657.37 1617.8 2672.32 1611.13 2688.5 1605.79C2724.48 1593.74 2761.78 1590.7 2800.11 1596.07C2820.59 1598.91 2843.86 1605.38 2862.27 1611.8C2862.54 1617.89 2865.13 1659.22 2865.28 1662.79C2848.35 1657 2821.51 1649.52 2803.03 1647.29C2766.06 1642.9 2730.39 1647.27 2696.06 1658.11C2666.01 1667.55 2639.93 1680.9 2616.31 1696.33C2598.44 1708.02 2581.25 1720.2 2564.72 1732.7C2513.76 1771.3 2466.96 1812.08 2421.1 1853.33C2334.32 1931.61 2241.49 2006.59 2144.35 2079.23C2088.78 2120.82 2032.55 2162.02 1976.31 2203.21C1956.08 2218.05 1933.83 2231.67 1910.21 2244.13C1849.49 2276.02 1781.25 2292.29 1705.28 2294.07C1632.98 2295.78 1563.78 2287.33 1496.52 2272.08C1411.47 2252.82 1334.69 2224.39 1268.69 2184.24C1205.52 2145.79 1156.89 2100.34 1125.5 2046.89C1106.47 2014.52 1096.04 1980.63 1093.96 1945.5C1090.43 1886.37 1113.64 1831.91 1169.03 1783.52C1196.98 1759.1 1231.17 1739.19 1269.99 1722.83C1287.52 1715.43 1305.61 1708.53 1323.28 1701.3C1343.92 1692.8 1363.88 1683.73 1380.98 1672.25C1398.83 1660.21 1411.76 1646.48 1416.01 1629.81C1419.49 1616.32 1416.69 1603.46 1410.74 1590.82C1398.99 1565.62 1375.43 1546.69 1342.24 1532.82C1319.23 1523.2 1293.99 1516.9 1267.42 1512.93C1220.35 1505.86 1172.51 1505.27 1124.21 1509.14C1049.34 1515.06 980.406 1533.36 914.937 1558.83C804.922 1601.7 716.049 1659.33 644.937 1729.51C492.146 1877.49 489.055 2021.64 349.723 2004.43C235.248 1990.92 45.9139 1837.82 -122.254 1795.21C-122.984 1778.68 -123.714 1762.15 -124.444 1745.61Z" fill="#F44C7F"/>
</g>
<defs>
<linearGradient id="paint0_linear" x1="1059" y1="-1043.04" x2="953.126" y2="5727.89" gradientUnits="userSpaceOnUse">
<stop offset="0.145833" stop-color="#FF451C"/>
<stop offset="1" stop-color="#170461"/>
</linearGradient>
</defs>
</svg>
